<mxfile host="app.diagrams.net" agent="Mozilla/5.0 (Windows NT 10.0; Win64; x64) AppleWebKit/537.36 (KHTML, like Gecko) Chrome/141.0.0.0 Safari/537.36" version="28.1.1">
  <diagram name="Page-1" id="XJvEuEV0Y_Jf0uFI5o0x">
    <mxGraphModel dx="2066" dy="1081" grid="0" gridSize="10" guides="1" tooltips="1" connect="1" arrows="1" fold="1" page="1" pageScale="1" pageWidth="1169" pageHeight="827" background="#FFFFFF" math="0" shadow="0">
      <root>
        <mxCell id="0" />
        <mxCell id="1" parent="0" />
        <mxCell id="gjLjuswlvgeIbJqZDYXq-30" value="" style="group" vertex="1" connectable="0" parent="1">
          <mxGeometry x="45" y="270" width="1080" height="249" as="geometry" />
        </mxCell>
        <mxCell id="gjLjuswlvgeIbJqZDYXq-4" value="" style="edgeStyle=orthogonalEdgeStyle;rounded=0;orthogonalLoop=1;jettySize=auto;html=1;" edge="1" parent="gjLjuswlvgeIbJqZDYXq-30" source="gjLjuswlvgeIbJqZDYXq-2" target="gjLjuswlvgeIbJqZDYXq-3">
          <mxGeometry relative="1" as="geometry" />
        </mxCell>
        <mxCell id="gjLjuswlvgeIbJqZDYXq-2" value="" style="shape=image;verticalLabelPosition=bottom;labelBackgroundColor=default;verticalAlign=top;aspect=fixed;imageAspect=0;editableCssRules=.*;image=data:image/svg+xml,PHN2ZyB4bWxuczp4bGluaz0iaHR0cDovL3d3dy53My5vcmcvMTk5OS94bGluayIgeG1sbnM9Imh0dHA6Ly93d3cudzMub3JnLzIwMDAvc3ZnIiBzdHlsZT0iY29sb3I6IHJnYigwLCAwLCAwKTsgZm9udC1zaXplOiBtZWRpdW07IGZvbnQtc3R5bGU6IG5vcm1hbDsgZm9udC12YXJpYW50LWxpZ2F0dXJlczogbm9ybWFsOyBmb250LXZhcmlhbnQtY2Fwczogbm9ybWFsOyBmb250LXdlaWdodDogNDAwOyBsZXR0ZXItc3BhY2luZzogbm9ybWFsOyBvcnBoYW5zOiAyOyB0ZXh0LWFsaWduOiBzdGFydDsgdGV4dC1pbmRlbnQ6IDBweDsgdGV4dC10cmFuc2Zvcm06IG5vbmU7IHdpZG93czogMjsgd29yZC1zcGFjaW5nOiAwcHg7IC13ZWJraXQtdGV4dC1zdHJva2Utd2lkdGg6IDBweDsgd2hpdGUtc3BhY2U6IG5vcm1hbDsgdGV4dC1kZWNvcmF0aW9uLXRoaWNrbmVzczogaW5pdGlhbDsgdGV4dC1kZWNvcmF0aW9uLXN0eWxlOiBpbml0aWFsOyB0ZXh0LWRlY29yYXRpb24tY29sb3I6IGluaXRpYWw7IiBvdmVyZmxvdz0iaGlkZGVuIiB4bWw6c3BhY2U9InByZXNlcnZlIiBoZWlnaHQ9IjI2MS4wMDE1MjU4Nzg5MDYyNSIgd2lkdGg9IjI2MC4wMDA1NDkzMTY0MDYyNSIgdmlld0JveD0iMCAwIDI2MC4wMDA1NDkzMTY0MDYyNSAyNjEuMDAxNTI1ODc4OTA2MjUiPjxkZWZzPjxpbWFnZSBpZD0iaW1nMCIgcHJlc2VydmVBc3BlY3RSYXRpbz0ibm9uZSIgeGxpbms6aHJlZj0iZGF0YTppbWFnZS9qcGVnO2Jhc2U2NCwvOWovNEFBUVNrWkpSZ0FCQVFFQVlBQmdBQUQvMndCREFBTUNBZ01DQWdNREF3TUVBd01FQlFnRkJRUUVCUW9IQndZSURBb01EQXNLQ3dzTkRoSVFEUTRSRGdzTEVCWVFFUk1VRlJVVkRBOFhHQllVR0JJVUZSVC8yd0JEQVFNRUJBVUVCUWtGQlFrVURRc05GQlFVRkJRVUZCUVVGQlFVRkJRVUZCUVVGQlFVRkJRVUZCUVVGQlFVRkJRVUZCUVVGQlFVRkJRVUZCUVVGQlFVRkJUL3dBQVJDQUhNQWN3REFTSUFBaEVCQXhFQi84UUFId0FBQVFVQkFRRUJBUUVBQUFBQUFBQUFBQUVDQXdRRkJnY0lDUW9MLzhRQXRSQUFBZ0VEQXdJRUF3VUZCQVFBQUFGOUFRSURBQVFSQlJJaE1VRUdFMUZoQnlKeEZES0JrYUVJSTBLeHdSVlMwZkFrTTJKeWdna0tGaGNZR1JvbEppY29LU28wTlRZM09EazZRMFJGUmtkSVNVcFRWRlZXVjFoWldtTmtaV1puYUdscWMzUjFkbmQ0ZVhxRGhJV0doNGlKaXBLVGxKV1dsNWlabXFLanBLV21wNmlwcXJLenRMVzJ0N2k1dXNMRHhNWEd4OGpKeXRMVDFOWFcxOWpaMnVIaTQrVGw1dWZvNmVyeDh2UDA5ZmIzK1BuNi84UUFId0VBQXdFQkFRRUJBUUVCQVFBQUFBQUFBQUVDQXdRRkJnY0lDUW9MLzhRQXRSRUFBZ0VDQkFRREJBY0ZCQVFBQVFKM0FBRUNBeEVFQlNFeEJoSkJVUWRoY1JNaU1vRUlGRUtSb2JIQkNTTXpVdkFWWW5MUkNoWWtOT0VsOFJjWUdSb21KeWdwS2pVMk56ZzVPa05FUlVaSFNFbEtVMVJWVmxkWVdWcGpaR1ZtWjJocGFuTjBkWFozZUhsNmdvT0VoWWFIaUltS2twT1VsWmFYbUptYW9xT2twYWFucUttcXNyTzB0YmEzdUxtNndzUEV4Y2JIeU1uSzB0UFUxZGJYMk5uYTR1UGs1ZWJuNk9ucTh2UDA5ZmIzK1BuNi85b0FEQU1CQUFJUkF4RUFQd0Q5UzdpNGlhQ1FDUkNTcHdBdzlLNCt3aGtTK3RtWkdWUklwSkk0QXlLSWJDNlNaR2EybFZRd0pKUTRBcnFiMjl0NXJPZU9PZUo1SGpaVlZYQkpKSEFBb0FUVnBvNU5PdUZSMVppdkFVNUpybjlEamVIVklIa1VvZzNaWmhnRDVUU2FiYVQyMS9CTExESkZHclpaM1VnQWU1TmJtc1hNVjNwMDBVRXFUU3RqQ1JzR1k4ZzhBVUFOOFF5TE5weFdOaEkyNGNLY21zM3cwcGd2cEdsQmpVeGtaZmdaeUtib2NFbGxmckxjUnRCSHRJM3lncU0vVTFvYS9JbC9acEhiTXR4SUpBeFdJN2lCZzg0SDFGQURQRXhGeEJBSWlKQ0dPUW5PT0tqOEwvNlA5cDgzOTNuYmpmeG5yVFBEeW13bWxhNkJ0bFpRQVpSdEJPZTJhZjRpL3dDSmg5bit5LzZUczNidkorZmJuR000K2hvQWo4VEEzRThKaS9lQUtjbE9jYzFiOE5Pc0ZqSXNwRWJHUW5EbkJ4Z1ZINGVZV0VNeTNSRnN6TUNCS2RwSTlzMVcxK043KzhTUzJWcmlNUmhTMFEzQUhKNHlQcUtBSXZFQ05OcUxOR3BrWGFPVkdSVzFvY3FRNlhBa2pxampkbFdPQ1BtTlJhSFBIWldBaXVKRmdrM0U3SlNGT1BvYXlkWXRwYnZVWnBZSW5taWJHSGpVc3A0QTRJb0FoMVdKNU5SdUdSR1pTM0JVWkJycUxDZU5MRzJWcEZWaEdvSUxESU9CVU9tWGNGdFlReFN6UnhTS3VHUjJBSVB1RFhPM3RsY1RYazhrY0VyeHZJekt5b1NDQ2VDRFFCQlBCS1o1Q0kzSUxIa0tmV3V6dUxpSm9KQUpFSktuQUREMHFPQy90VWhqVnJtSldDZ0VGeGtIRmNuRFlYU1RJelcwcXFHQkpLSEFGQUJZUXlKZld6TWpLb2tVa2tjQVpGZFJxMDBjbW5YQ282c3hYZ0tjazB0N2UyODFuUEhIUEU4anhzcXFyZ2tramdBVnp1bTJrOXRmd1N5d3lSUnEyV2QxSUFIdVRRQXVoeHZEcWtEeUtVUWJzc3d3Qjhwclo4UXlMTnB4V05oSTI0Y0tjbW5heGN4WGVuVFJRU3BOSzJNSkd3Wmp5RHdCV1RvY0VsbGZyTGNSdEJIdEkzeWdxTS9VMEFPOE5LWUw2UnBRWTFNWkdYNEdjaXJmaVlpNGdnRVJFaERISVRuSEZQMStSTCt6U08yWmJpUVNCaXNSM0VEQjV3UHFLcStIbE5oTksxMERiS3lnQXlqYUNjOXMwQVA4TC82UDlwODM5M25iamZ4bnJVZmlZRzRuaE1YN3dCVGtwemptcFBFWC9Fdyt6L1pmOUoyYnQzay9QdHpqR2NmUTAvdzh3c0labHVpTFptWUVDVTdTUjdab0FrOE5Pc0ZqSXNwRWJHUW5EbkJ4Z1ZtK0lFYWJVV2FOVEl1MGNxTWlwZGZqZS92RWt0bGE0akVZVXRFTndCeWVNajZpdERRNTQ3S3dFVnhJc0VtNG5aS1FweDlEUUJMb2NxUTZYQWtqcWpqZGxXT0NQbU5jOXFzVHlhamNNaU15bHVDb3lEVTJzVzB0M3FNMHNFVHpSTmpEeHFXVThBY0VWdWFaZHdXMWhERkxOSEZJcTRaSFlBZys0TkFFMWhQR2xqYkswaXF3alVFRmhrSEFya0o0SlRQSVJHNUJZOGhUNjFQZTJWeE5lVHlSd1N2RzhqTXJLaElJSjRJTmRSQmYycVF4cTF6RXJCUUNDNHlEaWdDUzR1SW1na0FrUWtxY0FNUFN1UHNJWkV2clptUmxVU0tTU09BTWlpR3d1a21SbXRwVlVNQ1NVT0FLNm05dmJlYXpuampuaWVSNDJWVlZ3U1NSd0FLQUUxYWFPVFRyaFVkV1lyd0ZPU2E1L1E0M2gxU0I1RktJTjJXWVlBK1UwbW0yazl0ZndTeXd5UlJxMldkMUlBSHVUVzVyRnhGZDZiTkZCS2swcHhoSTJETWZtSFlVQU44UXlMTnB4V05oSTI0Y0tjbXMzdzBwZ3ZwR2xCalV4a1pmZ1p5SzVvZkVId3Y0UHZaSnRjOFJhWHBLUkl4Y1hsNUhHdzQ2YlNjayt3R2E1L3hEKzFOOEtidXlSSXZHdGc3Q1FFZ1J5bnNmOWl0bzBhczlZeGIrUmpLdFRnN1NrbDh6MUR4TVJjUVFDSWlRaGprSnpqaW8vQy8rai9hZk4vZDUyNDM4WjYxNVQ0ZC9haCtGZHBQTTB2alN4UU1vQUpqbEhmOEEzS2s4U2Z0Ui9DcTgremVWNDBzWDI3czRqbFBwL3NWWDFhdC9JL3VaUDFpai9PdnZSNmQ0bUJ1SjRURis4QVU1S2M0NXEzNGFkWUxHUlpTSTJNaE9IT0RqQXJ5cnczKzFIOEtyV0tWWmZHdGdoWmhqY2tvL21sZGovd0FKWG92anFhSzU4T2F0WmE3QjVJSmswNmRad09UMTJrNDY5RFVTcFZJSzhvdGZJdU5Xbk4yakpQNW1sNGdScHRSWm8xTWk3UnlveUsydERsU0hTNEVrZFVjYnNxeHdSOHhxTFE1NDdLd0VWeElzRW00blpLUXB4OURXVHJGdExkNmpOTEJFODBUWXc4YWxsUEFIQkZaR3BEcXNUeWFqY01pTXlsdUNveURYVVdFOGFXTnNyU0tyQ05RUVdHUWNDb2RNdTRMYXdoaWxtamlrVmNNanNBUWZjR3VkdmJLNG12SjVJNEpYamVSbVZsUWtFRThFR2dDQ2VDVXp5RVJ1UVdQSVUrdGRuY1hFVFFTQVNJU1ZPQUdIcFVjRi9hcERHclhNU3NGQUlMaklPSzVPR3d1a21SbXRwVlVNQ1NVT0FLQUN3aGtTK3RtWkdWUklwSkk0QXlLNmpWcG81Tk91RlIxWml2QVU1SnBiMjl0NXJPZU9PZUo1SGpaVlZYQkpKSEFBcm5kTnRKN2EvZ2xsaGtpalZzczdxUUFQY21nQmREamVIVklIa1VvZzNaWmhnRDVUV3o0aGtXYlRpc2JDUnR3NFU1Tk8xaTVpdTlPbWlnbFNhVnNZU05nekhrSGdDc25RNEpMSy9XVzRqYUNQYVJ2bEJVWitwb0FkNGFVd1gwalNneHFZeU12d001RlcvRXhGeEJBSWlKQ0dPUW5PT0tmcjhpWDlta2RzeTNFZ2tERllqdUlHRHpnZlVWVjhQS2JDYVZyb0cyVmxBQmxHMEU1N1pvQWY0WC8wZjdUNXY3dk8zRy9qUFdvL0V3TnhQQ1l2M2dDbkpUbkhOU2VJditKaDluK3kvd0NrN04yN3lmbjI1eGpPUG9hZjRlWVdFTXkzUkZzek1DQktkcEk5czBBU2VHbldDeGtXVWlOaklUaHpnNHdLemZFQ05OcUxOR3BrWGFPVkdSVXV2eHZmM2lTV3l0Y1JpTUtXaUc0QTVQR1I5Uldob2M4ZGxZQ0s0a1dDVGNUc2xJVTQraG9BbDBPVklkTGdTUjFSeHV5ckhCSHpHdWUxV0o1TlJ1R1JHWlMzQlVaQnFiV0xhVzcxR2FXQ0o1b214aDQxTEtlQU9DSzNOTXU0TGF3aGlsbWppa1ZjTWpzQVFmY0dnQjAycldja1RvdHdqTXlrQUR1YTU2MDAyNnRycUdXV0JrampkV1pqMEFCeVRTeDZIZXd5TEk4R0VVaGlkNjhBZmpXM2M2eFozZHZMQkZOdmxsUW9pN1NNa2pBSElvQU5RMUMzdkxPV0NDVlpKWEdGUmVwTlpHbDJjK24zMFZ4Y1J0RENtZHp0MEdRUVAxTkZucGQxcDkxSGNYRVhsd3huY3piZ2NENkExcDZocUZ2cXRuSmEyc25tenlZMnB0SXpnZ25rOGRBYUFFMWU2aTFLek1GcTRtbExBN0Y2NHFsb3NMNlZkUExkcVlJMlFxR2ZvVGtISDZHazAyem0wZTZGeGRwNU1JQlhka055ZllacTNxdHhIcmR1c0ZrM25TcTRjcmpieGdqUE9QVVVBTjF0MTFhS0pMUS9hR1Frc0U3Q21hSC9BTVNuei90bitqK1p0MmIrK001L21LYnBNYmFISkpKZWp5RWtHMVQ5N0ovRE5PMWYvaWUrVjloL2YrVm5mL0RqT01kY2Vob0FacmFOcTBzYjJnTndxTGhpblkxWTBXWk5LdFhpdTJFRWpPV0N2MUl3Qm45RFROSmtYUTQ1STcwK1E4aDNLUHZaSDRacUhWYmVUVzdoWjdKZk9pVkFoYk8zbkpPT2Nlb29BajFlMmwxSzhNOXFobWlJQTNyMHpXbnBWNURZV01WdmNTQ0tkYzdrYnFNa2tmb2E4QytLUDdZdmhYNFAyczJqNmVnOFVlSlkyWld0YlNZQzN0Mi82YXpESXlQN3FnbmpCMjlhK01QaWIrMG40OStLbHpPZFQxbDdDd2xQL0lPMHZOdkJqcGhzSGM0eDJkbXIxc05sdGZFTG1mdXJ6L3lQS3hHWlVhRDVWN3o4djh6NzArSTN4dThDZUJ0VXVWMW54UFl3VDdqbTJoWXp6ai9lampETXY0Z1Y1enJQL0JRN3dacE5ySEJvM2g3V05ZbWpRTHZuOHUyaGJBSFE3bWI4MEZmQTFsWXozOXpIYTJkdkxjM0Vod2tFRVpkMlBvRkhKcjFYd3IreWo4VmZGNnBKYStEN3l6dDNBYnp0VFpMUUFIb2RzaERIOEZOZXdzc3dsQlhyUys5Mi9yN3p4M21lS3J1MUdQM0svd0RYM0hxR3FmdDhhdGNTdTFqNE9zclVFazR1YjU1dWYrQW9sRS8vQUFVUzhkeXF5cjRlOE9xcEJCQmpuUDhBN1ZGWmVtL3NHK01wOGYyaDRpOFBXSHFpUGNUT3YxSGtnZmthNkdML0FJSjJlSmR1NmZ4VlpRZ0hrclpsd0I2LzZ3VWY4SmNOTlB4WWY4S2s5ZGZ3UmhXZjdlZmk2Mm5qbGZ3NW9VaFJnd0NpZGVuL0FHME5kTXYvQUFVWjFpZUNTRzk4RDJNeU9NRXdhaThSSDV4dFZSditDZmQrNzdJUEgxaE14T0VVNlpLcFk5aDkvQXJOMVgvZ254NDdzNG1rdHRiME9aRkdTYmlTV0w5RlI2WC9BQWxTMDAvRkQvNFZJNjYvZ3p0dkRQN2Z2aDYydjRKdFU4SmFwYkl1ZHdzcmlLNFBJeHh1OHYxcjBtRDl0NzRXZUtiTVFTYWpmNkxNekxoZFJzWHgxN3RGdlVmaVFLK1RiLzhBWXorS05xMjIwMHF5MWQreTJWL0dDZnA1cFExd25pWDRLZVAvQUFlclBxL2czV3JPRmZ2VC9ZbmVGZnJJb0svclQrbzVmVzBweSs1LzUzRjlkeDlMNDQvZXY4ckg2Yi9EcngzNGI4U3pQY2FScjJtNnBFWThmNkhkSkt5a2tIREtwSlUreEFycU5iZGRXaWlTMFAyaGtKTEJPd3I4YkVjeHlxNk1Wa1E1REtjRlQ5ZTFlbWVDZjJsZmlWNEFaUnBmaXk5bGdIQnQ5UUl1NHlQUWVhR0tqL2RJcm5xWkxKYTBwL2VkRlBPWXYrSkQ3ajlSTkQvNGxQbi9BR3ovQUVmek51emYzeG5QOHhUTmJSdFdsamUwQnVGUmNNVTdHdmlmUmY4QWdvSnE5MURCRjRvOExXbDdKSGtmYWRMdUd0ODV4MWpjUGs4ZG1IMHJpdmlWKzJmNDA4WFFUYWQ0ZVkrRDlKbEdIK3h5Nzd1VGpuTStBVkgrNEZQcVRYREhLc1M1OHJWbDN1ZHNzMXd5aHpKM2ZheDkxNjM4Vy9CL3dtMDkxOFdlSUxQUjUyWXlMYXlNWHVIWEE1V0pBWEkrZ3I1NitJWDdldmhSTlFrUGh6UXRSMXZBMmlhNmRiT0p2UXJ3N242RlZyNGNsbGx2TGw1WlhlZTRtZkxPNUxQSXhQVWs4a2sxNlQ0VC9adCtJM2pIeTN0ZkROMVkyempjTG5WTVdpYmV4QWZETVA4QWRVMTYwY3J3dEJjMWVWL1YyWDlmTThxV1o0bXUrV2hHM29ydit2a2VuMy8vQUFVQitJQnR4YmFWcFdoYVpBTTdXZUNXZVVaT2Z2R1FLZXY5MnVMdi93QnNMNHEzMXhKTC93QUpEREF6dG5FZW0yeEE5aHVqTmVpNkQvd1QwOFdhaENrdC93Q0pkTHRVWVp6WlJQY2ZoODVpOS95cnFMSC9BSUo4NkxiblpxbmorNk1vNGVPRFN3bTAvVXlNS3IydVdVOUxKL0p2OUNmWlpuVTF1MTg3ZnFlTlcvN2FmeGd0NDQwSGltTjFRQUFOcGxyeUIyNGlGU1EvdG4vRXlOdDB0M3BsMDJjbnpyQlJuL3Znclh0N2Y4RThkSGtYZEI0ajFaMFBLeUZJTU1PeHhnRVpyRjFUL2duMVlnT2JENGllVzRQRVYxbzdOajJMTEwrdUtYMWpMSmJ4WC9nUC9BSDlYektPemY4QTRGL3dUbGJIL2dvVjhSb2lGdk5LOE9Ya0o0WUMxbmpjajJJbUlINVZwMkg3ZjE3YWxKSnZBOXZOTWpCZ3lhb3lLU0Rub1lUL0FEckoxai9nbjM4UmJHTjVMTFVORHYwVVoydGNQRTUvQW9SLzQ5WG44SDdLSHhTbjFtUFRoNFhaWGRzTE9ieUR5Y1p4bmVIL0FFNisxYUtubGxUWFQ3N2Y1RWUwektscHI5MS8wWjFQamY4QWJuK0p2aXhaSUxHNHNQRFZvL0d6VDdVUElSNk04dS9uM1VMWGpQaUQ0Z2VKL0ZaZisyZkVXcTZvamRZN3U4a2tRZXdVbkFIc0JYMHA0Yi80SjUrSlpDa3ZpYnhKWWFWYmptUWFkRTEyd0hwbGpIZy9RTlhyWGg3OWg3NFc2YkNGa2sxWHhOZkVEYWw3ZEdHTWtkY0NKWThER2VDeHBmWE1CaHY0YSs1ZnIvd1ErcDQvRWZ4SDk3L1QvZ0g1NHFvVVlBQUhzS1F5b0RqZXVmVE5mcXQ0WitBZmdQd2hLa3JlQ05EaWdUZ1N6MmNkeElEMitaZ3pmclhhUzZWcE10c3R2b2xqYXd5cSs4cmJ3TEZ4Z2dub1BVVmpMTzRMNFlQNy93RGh6ZU9TeisxTkw1ZjhNZmo1QmF6WE9QSmhrbHljRFlwT2Z5cVdYUzcyQUF5V2s4WVBUZEV3eitsZnNOcFN2b3NqdmZaaFJ4dFVrN3NuOE0wL1ZYYlcvSyt3TVpmS3p2d2R1TTR4MXg2R3N2N2JmL1B2OGY4QWdHbjlpci9uNStIL0FBVDhheTZodHU0YnZUUE5TUVRTV3R3azhFalF6b2NwTEdTcktmWWprVit3YTZQcGZrU1FhL1lXdHo1aHlxWFVDekFqdjJOY0g0cy9adytIUGphVHpJdkJPaytWdDJ2SllRaXlZdG5KeVlpaEo2YzFySE9vUDQ0TmZPLytSbExKcHI0SnAvSzMrWitlL2h6OW9QNGplRmluMkx4ZnFVc2FBS0lyK1FYYUJmUUNZTmdmVEZlN2ZENy9BSUtGNjlvc2NOcDRuOE5XV3JXeTVCdU5Pa2EybUF6bkpWdHlzZXZBMkN1NThWL3NFK0NieUp6cG12YW40YTFBNUlnbUF2TGRSMjR3SC9PUTE0VDQ0L1lxK0pIaFNHUzgweXlnOFdhYU1rVDZTLzczQTlZWHcrZlpkMWJLcmwyTDBra241NlA3L3dEZ21UcFpoaE5ZdHRlV3ErNy9BSUI5WmVDZjJrZkFmeFcxSHk5TDFjV0dvenNOdW02cUJiemtrZmRYSktPZlpHYXZkTFRVN1cydFlZcFpsU1NORlZsUFVFREJGZmpKZldOeHAxM05hWHR0TGFYVUxGSmJlNGpLU0kzY01wR1FmWTE2djhMdjJuL0dudzBhRzJhOE92NkttQWRQMUp5eFJmU09YbGs5aHlvL3UxeVY4bjA1cUV2ay93RE02cUdjYTh0ZVB6WCtYOWVoK2tVdWxYY2tydXR1N0t4SkJBNml1a20xYXpraWRGdUVabVVnQWR6WG1Id2EvYWQ4RS9GK3dqaXNMeDlPMXFPTUdiU0wwWW5HQnl5WXlKRjkxNUhHUXVjVjE4ZWgzc01peVBCaEZJWW5ldkFINDE4NVVwenBTNVpxelBvcWRTRldQTkIzUWxwcHQxYlhVTXNzREpIRzZzekhvQURrbXR6VU5RdDd5emxnZ2xXU1Z4aFVYcVRSYzZ4WjNkdkxCRk52bGxRb2k3U01rakFISXJJczlMdXRQdW83aTRpOHVHTTdtYmNEZ2ZRR3N6UU5MczU5UHZvcmk0amFHRk03bmJvTWdnZnFhMHRYdW90U3N6QmF1SnBTd094ZXVLWFVOUXQ5VnM1TFcxazgyZVRHMU5wR2NFRThuam9EVkRUYk9iUjdvWEYybmt3Z0ZkMlEzSjlobWdCZEZoZlNycDVidFRCR3lGUXo5Q2NnNC9RMVkxdDExYUtKTFEvYUdRa3NFN0NuYXJjUjYzYnJCWk41MHF1SEs0MjhZSXp6ajFGUWFURzJoeVNTWG84aEpCdFUvZXlmd3pRQTdRLytKVDUvMnovUi9NMjdOL2ZHYy96Rk0xdEcxYVdON1FHNFZGd3hUc2FmcS84QXhQZksrdy92L0t6di9oeG5HT3VQUTA3U1pGME9PU085UGtQSWR5ajcyUitHYUFINkxNbWxXcnhYYkNDUm5MQlg2a1lBeitocWxxOXRMcVY0WjdWRE5FUUJ2WHBtcE5WdDVOYnVGbnNsODZKVUNGczdlY2s0NXg2aXJXbVhrT2oyb3Q3dC9KbUJMYmNGdUQ3ak5BRXVsM3NHbjJNVnZjU0NHWk03a2JxTWtrZm9heDcrd3VMeThsbmhpYVNKMnlycjBJcVhVTlB1TlZ2SkxxMWo4MkNURzE5d0djQUE4SG5xRFduWmFwYTZmYXgyOXhMNWMwWTJzdTBuQitvRkFCSjRodEprYU5TKzV3VkdWN21zdURRN3F5bWp1SlZVUnhNSkd3MlRnSEpweStHcnFCaEswa1JWRHVJQk9jRDhLdlNhL2IzOGJXMGFTaVNZR05Td0dBVHdNOCs5QUMzV3IyK3BXNzJzSll5eWphb1lZR2FvMmVtejZQY3BkM0FBaGp6dUtuSjVHQitwcFlkRm4wcVZidVY0MmppTzVnaEpKSHRrVmF1TlZpMXVGcktCWFNXWG9aQUF2SFBPQ2ZTZ0F2cjZMVzRQc3Rya3lraHNNTURBcXZwOXMrZ1ROY1hZQWpaZkxHdzVPU1FmNkdpMjArVFFKUmQzREs4WUczRVJKT1Q5Y1ZMZDNTZUk0eGJXd1pKRVBtRXk4REE0N1o5UlFBYWhLdmlCRWp0TXMwWjNOdjQ0cHVuZjhVOTVuMno1Zk94czJmTjB6bitZcExTSStHbWFXNklrV1ViUUl1VG4zemlsdkQvd2tvWDdOKzc4ak83enVPdlRHTStob0FxZUk3NjJuc3B0VGU1aXRMQ3lpYVM0dUxweEdrYWdaTEVuZ0FEdlh3ZjhlZjJ3Tlc4V3hYWGhyd1hkVGFUNGJMc3Myb1JFeDNOK01BSEI0TWNaeDArOHc2NEJLMVMvYXEvYUdtOGVhcGMrRVBEOTdud3BaVGZ2NW9HK1hVSjFQM3M5NGxQM1IwSkc3bjVjZWEvQmY0TGEvd0RHL3dBVnJvK2lvSVlJZ0pMM1VabEpodEl5ZXJZNnNjSGF2VWtIb0FTUHE4RmdZVUlmV01UNjY5UCtEL1c1OHJqY2RPdlA2dmgvVFRyL0FNRCt0amxmQ3ZoUFdQR3V0MjJqYUJwbHhxdXBUbkVkdGFwdWJIY25zcWp1eElBN2tWOWUvQ3I5aFhTOU5hSzcrSk9wUzNGeU1NZEYwdGlzYTU1eEpPT1c0UElUYmc5R05mUi93bitHZmhmNEM2RC9BR05wVmlUZFBoN3JVQ0EwOTBleGQrT25PRkFBR2VCeWFYNG1lUHZEZmdUVEcxL3hEclZycE5uTnhERE1TMDh4WEFLcEdvTE1jK25RSEp3SzVjVG1sV3ZMMmVIVmwrTC9BTWpxdytXVXFFZmFZaDNmNEl0K0d2aGRvM2hTMmFQd3RvbGhvOWpJT0JheExHemovYmJxeDkySk5kZGI2MWJXa1VkcysvellsRWJCVnp5QmcxOE9lUHYrQ2dtdVR3ZjJmNEgwZUhTYlpCdEdvYW1vbXVHOTFqQjJJZnFYcjV4OFcvRmJ4ajQ3bWxrMTd4THFXcENVNWVHU2NyQ1Q3UkxoQitDaW9wNVRpS3Z2VlhiOFgvWHpLcVpyUXBlN1NWL3dYOWZJL1R2Vy9FdmgvUlpaRzFMeExvZW04a2tYbXBRd2tmVU13eFZmVXYybi9oWmFSdWtuamZTV0pVajl4Y0NZZitPYnEvS0ZWVlI4b0ErZ3BhNzQ1TFQrMU5uRExPYW4yWUwrdnVQMDkwcjQ5L0RhUzZpbEhqdlFsV05sY2lXOFdNa0FqcHV4WGN4L0dEd1I0bXRudHRNOFdhTGR5eWphb2kxR0Z1ZndhdnlKb0lCR0NNaWg1TFQ2VFlMT2FuV0NQMkgwdTFObThXb0dTT1cwWEo4eUZ3NE9SampIWGsxZnZiK1BXb1BzMXFXTXhJWWJoZ1lIdlg0NDZkcU4zbzhwa3NMcWV4a1A4ZHRLMGJmbXBGZWgrRnYyay9pYjRQbFY5UDhBR1dveTdSamJxRExlREhwKytENC9ERmMwOGxtdmdtbjZxMytaMHd6bUQrT0RYbzcvQU9SK2p2aUQ0VStGdkVIbVNlTHZEZWw2dkhJdXdTM0Zza2txdHhqRDQzTHdEeUNLOFk4WmZzSytBUEZqdko0VHV0UzhOM1BVeGVaOW90eDc3WkR2NitqZ2UxZVQ2Ri93VUQ4VkdHTzI4VGVIOU4xZUZXQjg2eFo3U1hvZVRuZXA2OUFGcjNiNFNmdGdlQVBGbXEyK25tVFVOTDFXOVpZSWJPN3RTZk1rSndGRG9XWHIzWWl1VjBNZmc5WTNzdTJxKzcvZ0hTcStCeGVrclg4OUg5Ly9BQVQ1aStJUDdFUHhGOEZNWkxHT3k4UzJoeVZheG1FYzJCMUxSeVk1OWxacXNmQjM5aWp4ajhRcFRkNitqK0ZkSWpiRExjS1B0Y3Zzc1orNE9QdlA3RUt3cjlCN3YvaXB0bjJYOTM1R2QzbmNaejB4alBvYWFsN0Q0UXRwMjFDUlVpMm1WcFF3Q0lvSEpZdGpBSHJUL3RmRXVITHBmdmJYL0lQN0p3Nm56YTI3ZjFxY0w4TC9BSUkrQlBnckVpMk9od0RWaDh3MU80VVQzUkhUUG1IN3VTRHdtMGUxZHZmV011dDNCdXJVQXhFQmNzY0hJcjVmK09IN2NPZzZacUVsbjRLdEI0Z3ZZMTh0cis0TzJ6UmdUOTNhZDB2NEZWN2hqWHlsNDMrUFhqMzRoQjR0WDhTM24yRmlmK0pmYVA4QVo3WUE5akdtQTMxYmNmZW5TeTdFNHArMHF1MSsrLzNDcVpqaHNLdVNrcjI3YmZlZnBmcWZ4bzhEZkQrRVdHdmVLdEtzTHlFa1BBMTNHWkJ5VDl3SGQzOUs4eTFuOXJMNFRmYjVuSGk5R0ROa2JOT3ZIL1VRa1YrYm9VS01BQUFkaFMxNmNjbG9yNHBOL2N2OHp6Slp6V2I5MktYM3YvSS9UT3kvYmUrRUVWdEJDL2lLNkJSRlVuK3k3ckF3UCt1ZFVyVDlwdjRXYXZjUDVIak96ajNNU0RkVzl4QVB6a2pVVitiTkZXOG13L1NUL0QvSWxaeGlPcVg0L3dDWit2OEFvdnhjOEhlTDE4blJQRVdtNnJMSUNxcFozY2NyWlBxRllrVlpnME82c3BvN2lWVkVjVENSc05rNEJ5YS9IWXFHNmdINjEzUGhMNDRlUC9BeXJIb3ZpN1ZiVzNVWUZySmNHYTN4NmVWSnVUOUs1S21Tdi9sM1A3MS9YNUhWVHpsZjh2SWZjLzYvTS9XRzYxZTMxSzNlMWhMR1dVYlZEREF6V1gvWjkvb2l2ZXJERExKRWpGSTVKaWlzeEJDZ3NGWWdaSXlRcHg2R3ZpcjRiL3Q0NmhwVjdianhqb01lb3dJUnV1OUlQbFRZN2t4dWRySDZNZ3I2MDhEL0FCMDhHZkdteE5yNFoxZU9lOWtVTTFuY2Z1cDQ4Y25kR1R1eHg5NEFqM3J4cStDcjRmV2NkTy9ROWlqaktHSTBoTFh0MVBudjR6L3RnZkVqd05kdHAyb2ZEcXcwSlpHLzBlNXVydVM4Z214M1NSQkdHK25CR2VRSzhkbS9iZjhBaWI1alBaeTZScGpFWXphMk83aklQL0xSbjlLL1FIVlBDTmpjNmRjVzJ2MlZwcTJsVHI1YzFwTkdKVWZQVEtzTWY0VjhpZkdqOWlTSzZlNjFiNFllY3dSV21sMEM4a3kyTTlJSkNlZXYzSFByaHVpMTZlRHI0S1ZvVmFhVDc3cjhkanpNWlF4c2J5cFZHMTIyZjRibmo5LysyRDhYdFJ3SnZGNTJnNUNycHRtQVAvSU5McDM3WVh4ZDAxaVl2RmdZTmpjcjZiYVlPUHBGbXZJYit3dWRMdlo3Tzl0NWJTN3QzTWMxdk9oU1NOeHdWWlR5Q1BRMUJYMHYxWER2L2wzSDdrZk9mV3NRditYa3Z2WjlDUWZ0emZFdk1adlJvdXFGQmpkYzJUS1Qvd0IrM1FmcFhvdmd6L2dvaExwY1JnMXp3VWt5TXhjejZkZkZTT0FNQ04xUHAvZnI0Mm9yR2VYNFdlOEY4dFB5Tm9ZL0V3Mm0vbnIrWitqMmpmdGQvRFB4N2ZyL0FNVHAvRDg4Z0FFT3R4R0FENnlEZEdQeGV2YzlGOFFXRVdsVyt5NFM2allGa210bUVrYmdra0ZXQndSejJyOGJxNlB3WjhSZkV2dzh2ZnRYaDNXcnJTM0ozTkhFK1lwRC90eHRsSC80RURYbDFzbWc5YU1yZXY4QVgrWjZsSE9aclNyRy9wL1grUituZnhGK0N2aDc0dlJTUHJtaTJ1b0s2a1EzYmZ1N21FZjdFZ3d5ODg0emc5d2ErTS9qTit4ZnJmZ2t6WDNoRzRsOFRhYkhuemJOa0F2WU1kY0FjU2ozVUJ2OWs4bXZXUGdyKzMxcHQ1RmE2UjQrc0YwcWNBSXVyMkFMVzdIdDVrWkphUDhBM2dXSHNvcjZidDlNL3QrRk5Uc0xxMXViSzhIbnd5eHliMWRHNUJCWElQQjZna1Y1Y2FtTHkyWExMYnQwZm9lbktuaE14anpSMzc5Zm1ma0RiM0Z6cGw3SFBCTE5aM2x2SnVTV0pqSEpFNm5xQ01GU0QrSXI3ZS9adS9iWS90dFlQQ3Z4RXVFaXY1QjVObnJ6QUlrekhnSk9CZ0szUUJ4Z0h2Zzh0MlA3Ulg3TmZocjR1MjgycWFSR3VoK000MXdidFl3SUwwanRPQnpuc0pBTnc0enVBQUg1L3dEaXZ3bnEvZ2pYN3pSTmQwK2JUZFR0VzJTMjg2NEk5Q0QwWlQxRERJSTVCcjNvencrYTArVjZTWDNyL2dIaFNoaU1ycWN5MWkvdWYvQlAxeWcwUzZzcG83aVFMNVVUQ1JpR3ljRGsxbzNXcjIrcFc3MnNKWXl5amFvWVlHYStHUDJXZjJ1Wi9ERU1QZ2p4dGVHYlE1Vit6NmZxMDdjMkpQQWpsWTlZZWVHNnAwKzc5MzdadDlIbDA1bzcxNUlwSVk4T2ZMWWtrZTNGZks0bkN6d3MrU2Z5ZmMrcHcySmhpb2M4UG11d1dlbXo2UGNwZDNBQWhqenVLbko1R0IrcHEzZlgwV3R3ZlpiWEpsSkRZWVlHQlJjYXJGcmNMV1VDdWtzdlF5QUJlT2VjRStsVjdiVDVOQWxGM2NNcnhnYmNSRWs1UDF4WEdkWWFmYlBvRXpYRjJBSTJYeXhzT1Rra0graHFYVUpWOFFJa2RwbG1qTzV0L0hGRjNkSjRqakZ0YkJra1ErWVRMd01EanRuMUZNdElqNGFacGJvaVJaUnRBaTVPZmZPS0FGMDcvaW52TSsyZkw1Mk5tejV1bWMvekZOMUNOdkVEcEphZk1zWTJ0djQ1cDEzL0FNVk5zK3kvdS9JenU4N2pPZW1NWjlEUzJrbzhOSzBWMERJMHAzQXhjakh2bkZBRHRQdVUwQ0ZyZTd5SkdiekJzR1JnZ0QraHF2ZldNdXQzQnVyVUF4RUJjc2NISXA5M2F2NGprRnpiRlVqUWVXUkx3Y2pudG4xRlMyMm9SNkJGOWt1Rlo1QWQyWWdDTUg2NG9BZlo2bkJvOXNscGNGaE5IbmNGR1J5Y2o5RFZHNTBpNDFLZDdxQUtZcFR1VXNjSEZTWEdsUzYzTTE3QXlKRkwwRWhJYmpqbkFQcFZtRFdvTktpVzBsU1JwSWh0WW9BUVQ3Wk5BQ0h4TkZjQXhDQndYK1hKSTR6VUMrSHBMQmhkTktyckNmTUtnSEpBNXgrbFAvNFJmN1ArOSswN3Ruelk4dkdjYyt0SC9DUmYyaC9vdjJmeS9QOEEzVy9mbmJuak9NZTlBRDMxdE5XUTJhUk5HMDN5aG1QQXFLUFNYME54ZXlTTEtrWFZGR0NjOGYxcDM5aC8yVC9wbm4rYjVQemJObTNQNDVvL3RmOEF0My9RZks4anpmOEFscHUzWXh6MHdQU2dCMHVvTDRnWDdKR2hpWS9OdVk1SEZNaXRHOE5NYnFWaE1yank5cWNISjV6K2xML1ozL0NPL3dDbWVaOW94OHV6YnQ2Ky9OSDJ2L2hKdjlGMmZadG43M2ZuZm5IR01jZXRBQ3pURHhNQkZFUEpNWHpFdnptdm5EOXN2NHRUZkN6d1MzaEhTN3NEWGZFY1pXYVNJNGEyc3hsWFBzWkNTZ1BvSEl3UUsraTUyaThHd1NYazhxdkJzSmtkL3dCMnNhcU1saWVlQUsvS1g0eWZFbTUrTGZ4SjF2eFBjYjFqdTVpdHJDLy9BQ3h0MStXSlBxRkFKeDFZc2U5ZXpsZUdWZXR6UzJqK2ZROGZNOFM2RkhsanZMOHVwaitCL0JlcS9FTHhYcG5oelJMZjdScVYvS0lvbEp3cWpxenNleXFvTEUrZ05mcVA4Si9oN3BId0Q4SDIzaHJUNHZ0RG4vU0xtOUFDdmN5a0FNN2Y5ODhEc01EdFhnWDdDL3cyWHdmNGFuOGU2alpDWFVOWkRXK25semd4V3FOaDJISEJrZGYrK1kxSTRhdmQvakY4UjlOOEJlQU5TOFlha3dqK3lyOW50clBPV3VwenlrWVBHTWs4OEhDcXg3VnZtV0psaUszMWVuc245Ny80QmhsdUhqaDZYMWlwdTE5eS93Q0NjViswbCswTnBQd24wdU9TRVIzM2lhOWovd0JEMHRtNFJRU1BPbEk2SmtFQWRXSUlHTU1WL1BIeGY0ejFyeDdyazJyNi9xRXVwYWhMd1pKVHdpOWxSUndxakp3b0FISjlhajhWK0t0VDhiZUlyN1hOWXVUZGFqZVNHU1dUR0FPd1ZSMlVEQUE3QUNzbXZld1dDaGhJZDVQZC93QmREd3Naako0cWZhUFJCUlJSWHBIbkJSUlJRQVVVVVVBRkZGRkFBVGdWOTJmc2NmczMvd0JoYWFuakRYSVJINGd1NHQxakJNdWZzZHV3KzlqdEk0UDFWVGpnc3dyeHo5amI0Q3I4VnZHY3V0NnRIL3hUK2lrU0JYVGNsMWNnZ3JHUjNWUVF6RDNRSGhqWDZEVGJQQ1NQZFN5ck5Hd085cEQ1WVFEa3NTYzhWOHhtdU1hLzJlbjgvd0RML00rbHl2QnAvd0MwVkY2ZjUvNUdmcjNpVFRmaFRvZDlyR3UzY2R2cHNTZVpMT3h3RUM4WXgxSkpZQUFja2tBWkpyODcvd0JvejlxSFd2amZxc2xuYWViby9oT0Zpc0ducStIdUFEa1BPUWNNY2pJVDdxOGRTTnhtL2FxL2FMdWZqWjRxRmhwOGhoOEphWEl5MmNTay93Q2xQMGFkL1hPRHRCNktleFkxNFZYVGwyWHFpbFZxcjN2eS93Q0NjMllZOTFtNlZKKzcrZjhBd0Fvb29yM2p3d29vb29BS0tLS0FDaWlpZ0FxYXl2YmpUYnVHNnM3aVcwdW9XRHhUd1NHT1NOaDBLc01FSDNGUTBVQWZWbndoL2JrMW5UYmVEUS9pQnYxblRNcXE2ekVnKzF3QWRQTVVZRW9IcU1QMVB6bml2cy93bHIrazZqb3R0NGkwZlVyZld0S3UxMlJUMmpaQlBVNTlDTUVFSEJCNElyOGhLN3I0VWZHWHhIOElOWE4xbzF5WkxHWncxM3BrekUyOXlCeGtqK0ZnT2pqa2U0eUQ0R015cUZXODZPa3UzUi81SHU0VE5KMHJRcmF4NzlWL21mZnZ4ei9aNDhQZnREV3ozTU1TYUo0cHQ0OFE2c3FaOHdEN3Njd0gzMTkrcTlqMUIvT254NTRCMTM0YWVKcnJRUEVWZzlocU51ZVZQS1NLZnV1amRHVTlpUGNIQkJBL1RMNE5mR1h3NThSL0RBMXZRcmd6VDhSWG1tekVKUFp5WXpoZ001QjV3dzRPRDNCQVQ0eS9CM1NQMmkvQzhtbjNxcnB1cFdRTFdHb2hmTWVHUnZYcGxEdEc1ZS9YZ2dFZVhnOGRVd2MvWTF2aC9ML2dmMGowOFhncWVMaDdhajhYNS84QUIvcG41VzBWdmVPZkJHc2ZEbnhWZitIdGV0VGFhbFpQdGRlcXVQNFhRL3hJdzVCOVBRNUZZTmZaSnFTVFd4OGcwNHV6M0NpaWltSUs5ZStCSDdUSGluNEczNlEyMGphdDRiZDgzR2kzTWhFZkp5V2libnkzNjhnWVBjSGdqeUdpczZsT0ZXTGhOWFJwVHFUcFNVNE96UDFaK0Zmam53LzhhOUFiV2ZEbXBwSUZiRnpaVEx0dUxWenp0a1hQSGZCR1FjSEJPS3h2ajc4SS9EM3g3OFByYlhOdjlnOFFXeWthZnF5Z0ZvaWY0SC92Ums5VjdkUmcxK2MvdzIrSld2ZkNmeFphK0lmRDEyYmE4aCtWNDJ5WXJpTW41bzVGL2lVNCtvT0NDQ0FSK2wzd1o4YzZMOFpQQlZ2NGswaTc4dVJEc3ZOUGNBeVdzd0dUR3hCNUI2aHNjZ2c0SElIeDJMd2xUQVRWV2s5Ty9iMVByOEppNmVQZzZWVmE5dS9vZm1INHo4RzZ4OFAvQUJMZmFCcjFtMWpxbGsreVdKdVFlNFpUMFpTTUVFZFFhK3MvMk1mMmpaN21LRDRZK0pMcmVzbzh2Ukw2WnVVLzZkbVBweDhtZjkzKzZLOU0vYXcrRTF2OGFQQjUxRFR0T0NlTGRKakwya2lObHJtSWN0Ym5qblBKWDBiamdNMWZuWGFYYzFsY3dYVnRNOEZ4QzZ5eFRSTnRaSFU1VmxQWWdnRUd2YnB6cDVwaDNHV2pYNFB1ZUpValV5ekVKeDFYNXJzZnNWSHBMNkc0dlpKRmxTTHFpakJPZVA2MUpMcUMrSUYreVJvWW1QemJtT1J4WEIvQkQ0c2Y4THIrR09pWDhpcEhmM0VYa1h6b1FRbHhGL3JQbEhRTVYzQVo0VjFydXY3Ty93Q0VkLzB6elB0R1BsMmJkdlgzNXI0eWNIVGs0UzNSOWxDYXFSVTQ3TVNLMGJ3MHh1cFdFeXVQTDJwd2NublA2VTZhWWVKZ0lvaDVKaStZbCtjMG4ydi9BSVNiL1JkbjJiWis5MzUzNXh4akhIclI1UDhBd2kvNzNQMm56Zmx4alpqSFB2VUZoRC94VEdmTi9mOEFuOU5uR052L0FPdWlXSStKaUpZaUlSRjhwRDg1by81R24vcDE4ai9nZTdkK1dPbEhuZjhBQ0wvdXNmYWZOK2JPZG1NY2U5QUN4WFk4TktiV1ZUTXpuek55Y0RCNHgrbE1rMDl2RUQvYkkzRVNuNWRyY25pbmZaUCtFbS8wcmY4QVp0bjdyWmpmbkhPYzhldEg5by84STcvb2ZsL2FNZk52M2JldnR6UUE2UFZrME5CWlNSbVY0dXJxY0E1NS9yVVQ2Skpxekc3U1JZMW0rWUt3NUZQL0FMSS90My9Udk44anpmOEFsbnQzWXh4MXlQU2orM1A3Si8wUHlQTjhuNWQrL2JuOE1VQVJqeE5MY0h5akNnRC9BQ2tnbmpOVHQ0ZWpzRk4wc3pPMEk4d0tSd1NPY2ZwVWorR3JXQlRLc2twWkJ1QUpHTWo4S3BSNi9jWDhpMjBpUkNPWWlOaW9PUUR3Y2MrOUFEMDF1VFZtRm84YXhyTjhwWlR5S2xrMGxORFEzc2NobGVMb2pEQU9lUDYwK2ZSWU5LaWE3aWVScElodVVPUVFUNzRGVnJmVlpkYm1XeW5WRWlsNm1NRU54enhrbjBvQWRIcURlSUgreHlJSWxQemJsNVBGUGx0QjRhVVhVVEdablBsN1g0R0R6bjlLZGM2ZkhvRVgydTNabmtCMjRsSUl3ZnBpb3JXNmZ4SEliYTVDcEdnOHdHTGc1SEhmUHFhQVBEUDJ5ZmlVMmkvQkhVYmRTc0YzcTB5YWJGdFBKVndXbC9EeTBkZitCQ3Z6NjhJK0dybnhsNHAwblFyUTdialVicU8xVjhaMmJtQUxIMlVFayt3cjZkLzRLRjZtbHI0djhLZUhZWkhNZHRZeVg3cXg2bVdUWXVjZWdnYi9BTDZOY3Y4QXNJK0NJdkZmeHBrdnJsR01HamFkTmNxd3h4SzVXSlJ6L3N2SWZ3cjdIQmY3TGdYVjZ1Ny9BRVI4aGpQOXF4eXBkRlpmcXo3MzhOK0hyTCt3ckRUTE9QN0RZYVhieDJkdENuTzJORkFVZmtCWHdsKzNMOFF6clB4RWg4RzJWd1pOTDhQRGRNQWVIdTVGQlk4ZGRxYkZIb1RKNjE5M2VJOWJnK0htbFh0KzdmNkRiVzhsNWNQTHlWU05TekVZeDJCcjhpdGYxdTY4VGE3cVdzWHpiNzdVTG1TN25ZZERKSXhkdjFKcno4bm8rMHF5clM2Zm16dnplcnlVbzBZOWZ5UlFvb29yNjgrU0NpaWlnQW9vb29BS0tLS0FDck9tYWJkYXpxVnBwOWxDMXhlM2N5VzhFSzlaSkhZS3FqNmtnVldyNkkvWWs4Q040aCtLTTNpV2FGWmJMdzFDSnh2QkttNWx5a1FJOWdKVzlpaTFoWHFxaFNsVWZRM29VblhxeHBycWZiM3d3K0c5dDhEL0FJZjZQbzlteTNFdHZFSTdpUURBbG1iNXBKUFhsZ2NaNkRBN1Y0TiszRjhjNU5OOEtXM2dxeFlRNmpxeWViZVBHeHpIYVpJMi93RGJSZ1YvM1ZjSDd3cjZZdTllZ3VOUHZialY1WTdQVDdHQjd5YWRmbDJJZ3l4Sk9lQU1uOEsvS0w0bmVPYmo0aytQTlo4UjNHOUJlemxvWW5PVEZDUGxpai80Q2dVSDFPVDNyNVBMYUR4TmQxcW10dGZtZlZabFdXR29LalQwdnA4amw2S0tLK3pQamdvb29vQUtLS0tBQ2lpaWdBb29vb0FLS0tLQUNpaWlnRG8vaC84QUVEV3ZobjRtdHRjME81OGk2aStXU051WTU0OGpkSEl2ZFRqNmc0SUlJQkg2WC9CbjR5Nkw4Ui9CZHZybWlzUHRFaEVWL3A4cjVrczVsSDNUanFEa2xXeHlQUTVBL0sydTMrRUh4VjFQNFErTXJiV2JIZFBhc1JIZldPL2F0MURubGZaaDFWc2NIMUJJUGs0L0FyRlE1by9Hdng4ajFjQmpYaFpjc3ZoZjRlWjk4ZnRHL0FlTDlvUHdsTGUyTVVWcjR0MHREOWdtNkNkZVdNRHQ2SG5CUDNXT2VoYlA1clh0bGNhYmVUMmwzQkpiWFVFalJTd1NxVmVOMU9HVmdlaEJCQkZmcmg0VzhiYVhyZmhqVE5jOE4zSzMybGFwQ0xpT1NYbGw3RlNBZmxaVGxXQjVCQkhhdmxqOXRMNEZQckduemZFL1JMUkZtaVlSYTNid0xqY2dBQ1hPUFVjSy90dFBHMWlmSnl6R09sTDZ0VjI2ZVQ3ZjExUFZ6UENLckg2eFMzNithNy8xMFBqQ2lpaXZyRDVVS0tLS0FDdlV2MmN2akRlZkJ6NGtXVjhMZ3BvbCs2V21xd00yRWVCamp6RC9BTFVlNHVEN0VkR05lVzBoQVlFSG9henFVNDFZT0V0bVhUbktsTlRqdWo5bFc4UHgyS0c2V1puTUk4MEtRTUhIUDlLL0xmOEFhUjhIeGVDZmpQNGtzcmFJUVdOeE9MNjJRY0txVEFPVlgvWlZ5NmoyV3YwYStGM2k2NjhSL0Ryd2hKUDViZmI5SnMya2NBN2lYaFRjZXA1NU5mRzMvQlFMUW85SitMdWlUUkZpaytpUmdsdXBaWjU4L293cjVIS1pPbmlYVDdwL2dmVzVyRlZNTXFuWnI4VHFmK0NmUGlzMnorTU5IZHl4Z0VPcFc4UlBCSkppbFA1R0g4cSt5WTlRYnhBLzJPUkJFcCtiY3ZKNHI4Ky8yRGJoVitPVTFrNUlUVU5IdUxja2RSaVNLWGovQUw5VitoTnpwOGVnUmZhN2RtZVFIYmlVZ2pCK21Ld3pXSExpbTExc3piSzU4MkdTZlM2R3kyZzhOS0xxSmpNem55OXI4REI1eitsSkZLZkV4TVVvRUlpK1lGT2MwMjF1bjhSeUcydVFxUm9QTUJpNE9SeDN6Nm1uM2NROE5Lc3RxVEkwcDJrUzhqSHRqRmVRZXVKTi93QVV4anl2My9uOWQvR052LzY2V0dFZUpnWlpUNUppK1VCT2MwbHAvd0FWTnY4QXRYN3Z5TWJmSjR6bnJuT2ZRVWwzS2ZEVExGYWdTTEtOeE12Sno3WXhRQVMzYmVHbUZyRW9tVng1bTUrRGs4WS9TbnhhZXZpQmZ0Y2ptSmo4dTFSa2NVV3RxbmlPTTNOeVdTUkQ1WUVYQXdPZStmVTFGYzZoSm9FcHRMZFZlTURkbVVFbkorbUtBRmsxWjlEYzJVY2F5cEYwZGpnblBQOEFXcFUwUk5XUVhqeXRHMDN6RlZIQXAxdnBVV3R3cmV6czZTeTlSR1FGNDQ0eUQ2VlZtMXFmU3BXdElramFPSTdWTGdra2UrRFFCQ25pQzhtZFkyWk5ybmFjTDJOYXMraDJ0bERKY1JCaEpFcGtYTFpHUU1pcFpkRHNvWTNrU0REcUN3Tzl1Q1B4ckV0dFl2THU0aWdsbTN4U3VFZGRvR1FUZ2pnVUFTVzJyM0dwVHBhemxURktkckJSZzRxOWVhWkJvOXM5M2JoaE5IamFXT1J5Y0g5RFV0N3BkcnA5ckpjVzhYbHpSamNyYmljSDZFMW1hZnFGeHF0NUhhM1VubXdTWjNKdEF6Z0Vqa2M5UUtBSDJOOUxyZHdMVzZJTVJCYkNqQnlLc2FoYkpvRUszRnBrU00zbG5lY2pCQlA5QlQ5VHM0ZEh0VGNXaWVUTUNGM1pMY0gyT2FxNlZjU2EzY05CZXQ1MFNvWEM0Mjg1QXp4ajFOQUg1NGZ0dmF0THEzeHprTXpCbXQ5TXRvT093K2QvL1ovMXIwMy9BSUorVzB1bDZkNDAxaVBidXVKcmF6VXN1Y2JGa2R1ZmZ6RS9JVjVKKzJsWm15L2FNOFNvR3pFWXJSbzB5VHNYN05FTWMrNEovR3ZwcjlnSFFiZC9nMXFFczhlODNHcnl6S2M0T1BMalR0MS8xZmYzcjYzRXZreTJLN3FQK1o4bmhsejVsSjluTC9JNlQ5cTd4SzluK3p6NHJ2SkdIMnVZUTZmRmpnRVN5b3JqL3Zndlg1bzE5L2Y4RkJibE5IK0ZPaTZkYkR5MHZOWWpaMTVPUXNNeDZuMzIxOEExdms4ZVhEMzd0bUdieTVzUmJza0ZGRkZlNGVLRkZGRkFCUlJSUUFVVVVVQUZmb3IreEg0S1hRdmhCYXRjUmdTNjlQSnFVaHhod2d3a1F6NmJVM2ovQUs2R3Z6eTA3VDdqVjlRdGJDMFR6THU2bFNDRlA3enV3VlIrSklyOWY3RHcxYWVCUEN1bVdPbUw1WTArMmhzNDMvMkVRSU9EeDBBcjUzT2F2TFRqVFhWL2tmUVpQUzVxa3FqNkw4encvd0RiaDhWUStBUGc2K2wyRXJSWC9pT2NXQkc3Sit6cjg4eCtoMm9oOXBLL09pdnBEOXVueHpjK0pmaWxwK2pTVGVaRG9sZ29LNHh0bW1QbVAwNDVRUS9sWHpmWGJsbEwyV0dpK3IxL3I1SEhtVlgydUpsMlduOWZNS0tLSzlVOHNLS0tLQUNpaWlnQW9vb29BS0tLS0FDaWlpZ0Fvb29vQUtLS0tBUHBiOWl2NHh4ZUZQR2NmZ3ZYWnlOQjF1WEZySTc0RnRlSEFYNkxKZ0tmOXJaNm12dkhYNFlyVzNuMG93UlhHbjNjTExQQmNLSFdSV0JWbFlIcUNPQ0svSGxXWkdESXpJNm5JWlRnZytvUGF2MUwvWm4rSThQeHUrRmxockdwdXR6cmxtZnNOL2c3U0pFQStZZ1krK0NIL3dDQkVkcStVemZEY2tsaUlkZC9YdWZVNVRpZWFMdzgrbTNwMlB6MStPdndzbCtFZnhEdmRIVlhiUzVoOXEwNlp1ZDl1eE9BVDNLa01oenlkdWVoRmVlMStpUDdhL3d2ajhYL0FBN212ckdBSFVmRHF0ZlFoUmxtZ0lIMmhNbm5HMEIvckhnZGEvTzZ2YXdHSitzMFZKN3JSbmpZL0QvVnF6aXRucWdvb29yMFR6d29vb29BL1ZUOW5pemduK0FQZ2ZVQUQ5b2kwYURCQjQzUnB0SEgvQWErWGY4QWdvSFBMZStJZkJWMUx0M05hM1VXUU1aQ3ZFZi9BR2Mvblgwcit6emNYTnQ4Ry9BVmd6LzZQSnBWcnVUYU9RNkt4NTY4N2pYemovd1VVK3oyM2kvd1pZd0xzTVZqY1RzdVNmdnlLQWVmK3VScjR2QS84akRUdkw5VDdIRy84aS9YdEg5RHpmOEFZeHVwTFA0KzZQSkVjTUxhNi9IOXkxZm8zWTMwdXQzQXRib2d4RUZzS01ISXI4N3YySDdLTysvYUQwcEpWTEl0bmRNUURqL2xrUi9XdjBjMU96aDBlMU54YUo1TXdJWGRrdHdmWTVvemovZUY2TDlSNVIvdTc5WCtTR2FoYkpvRUszRnBrU00zbG5lY2pCQlA5QlVXbnlONGdkNDd2NWxqRzVkbkhOTjBxNGsxdTRhQzliem9sUXVGeHQ1eUJuakhxYW0xYU5kRGpqa3NoNUR5RXF4KzlrZmptdkRQYkc2ai93QVU5NWYyUDVmT3p2My9BRGRNWS9tYWRwOFMrSUVlUzd5elJuYXV6amltNlIveFBmTiszZnYvQUNzYlA0Y1p6bnBqMEZOMWFSdERrampzajVDU0Rjdys5ay9qbWdCTlF1WDBDWmJlMElFYkw1aDNqSnlTUi9RVllzYkdMVzRQdFYxa3lrbGNxY0RBbzBxM2oxdTNhZTlYenBWY29HenQ0d0RqakhxYXFhbGVUYVBkRzN0SDhtRUFOdHdHNVB1YzBBRjVxVStqM0wybHVRSVk4YlF3eWVSay9xYXZXdWtXK3BXNlhVd1l5eWpjeFU0R2FYVDlQdDlWczQ3cTZqODJlVE81OXhHY0VnY0Rqb0JXWmVhcGRhZmRTVzl2TDVjTVoycXUwSEErcEZBRmVMVmJ1U1ZFYTRkbFlnRUU5UlhSWGVtV3R0YXpTeFFxa2thTXlzT29JR1FhbW5zTFZJWkdXMmlWZ3BJSVFaQnhYTDJWN2NUWGtFY2s4cnh2SXFzck9TQ0NlUVJRQkxZWDl4ZVhrVUUwclNSTzJHUnVoRmJHcVdVR24yTXR4YnhpR1pNYlhYcU1rQS9vYWwxTzBndHJDYVdLR09LUlZ5cm9vQkI5aUt3OUh1WmJ2VVlZcDVYbWliT1VrWXNwNEo1Qm9BazBpNWwxSzhFRjA1bWlJSjJOMHpWM1dvVTBxMVNXMFVRU000VXNuVWpCT1AwRlM2NUJIWldCbHQ0MWdrM0FiNGdGT1BxS3o5QWtlL3ZIanVXYTRqRVpZTEtkd0J5T2NINm1nRDg0djJ5WlhuK1Blc1BJeFoydHJYSlBmOXdsZlYvN0lRZlMvd0JuRHdwTmJ1WW51cHI1NUNwNjdidVJSL0t2bHI5dDJOWXYyaWRlVkZDS0xlMHdxakFIN2hLK3R2MklHaXYvQU5uM1FZcFVXWVc3M1NCWEFZS1RkenNjZW5CRmZUNDMva1gwdmwrVFBtY0Yvd0FqQ3I4L3pSNVgrMzFleTNYZ2p3bUpaR2tiKzBwVHlld2kvd0RzdjFyNGxyN3Avd0NDakZza0hoandkNVVTeHA5c21CMktBTW1NZjRHdmhhdlR5ci9kWS9QOHp6YzAvd0I2bDh2eUNpaWl2V1BLQ2lpaWdBb29vb0FLS0tLQVBTdjJiZEVPdmZIUHdkQmdrUVh2MjBuKzc1Q05NRCtjWUg0MStuK2tYTXVwWGdndW5NMFJCT3h1bWErQmYyQnRKajFMNDd2TExHc2lXbWtYTXczREkzRm8wL2s3VjkvZU9MKzM4SytGZFMxaEkwZ0ZqQTl5em9OcDJvcFk4ajJGZkc1dkp6eENndWlQc01vaW9ZZHpmVm41VmZISHhDdmlyNHhlTXRUVC9VeTZwUEhEN3hSdDVjZi9BSTRpMXc5RHlQSVRKSzVhUnZtZG1QVTl5YTc3d1g4QnZIM2orR0s0MGZ3emV2WXlESzMxMG90cmRoNnE4aFVQL3dBQnlhK3N2Q2hCS1Rza2ZLV25YbTNGWGJPQm9yNnI4R2Y4RSt2RTJ2cTdhdjRxMHJTUXUwbGJTQ1M3WVp6MXo1WXp4MkpyckwvL0FJSjhhVHBYbEpONHl2YmlSaGt0SFlwR092b1hiK2RjVXN5d3NkT2Y4R2RzY3R4VWxmay9GSHhSUlgyRGUvOEFCUEMvdmJDUzQwSHhwYlRUS3hVVytvMkxRcWVBZjlZanY2LzNLK2VmaWo4RWZHUHdldlJCNGwwbHJlQjJDeFg5dTNtMjBwUFFDUWREd2ZsYkRjWnhXOUhHVUs3dFRscjkzNW1GWEIxNkN2VWpaZjEyT0Vvb29yc09RS0tLS0FDaWlpZ0Fvb29vQUtLS0NjQ2dBb3IyajRZL3NuK04vaVBZVytxelc2K0hkQ241aXZkUlVoNWwvdlJ4RDVtSGNFN1ZQWW12cEx3Qit3UjRGMk8ydWFwckdzenhoUXlwSWx0Q3hPZVFxcVhIVCsrYTgydG1HSG9QbGxLNzh0VDBhT1g0aXN1YU1iTHowUGdXdmZQMk52aXROOFAvQUltalJwYnBvTk04UkJMUmh1d0Z1UVQ1RGZpV1pQOEF0b1BTdnF6VmYyUHZoSm8wa0NRK0ZXa0pYSmFiVXJ0aVRuL3JyajlLMHRBL1pHK0V0NWJlZS9oSlVtamx5a2tXbzNjYktRQVFRVmxCQnpYbVY4MHcxZW5LbktMcy9KZjVucFVjc3hOR3BHcEdTdXZOL3dDUjY3cGxsYjZ4cDVlOWhTNlo5eU41b3lHWHBnanVLL0o3NDFmRDEvaFo4VS9FZmhuQit6MlYwVGJNM082M2NCNGpudWRqS0Q3ZzErcVd1VHlXZCswZHZJMEVlMEhaRXhVWitncjRqL2I5OE9KYStKZkJuaUVjejZuWVhGck14NnNZSlFRVDZuRTRHZlJRTzFjT1VWWEN1NmZTUy9MK21kMmIwbE9ncW5XTC9QVC9BQ1BsT2lpaXZzejQ0S1IyMm94NjRHYVd1aytHbWgvOEpOOFJ2QzJrbFMwZDdxbHJCSUIxQ05Lb2MvZ3VUVXlrb3B5ZlFjWXVUVVYxUDFrOExlRnJmd3Y0RDBld1dCVW4wM1RJWUEzZFdqaUNqLzBHdno5L2JsMW1UVmZqTGFSeVNHUTJtandSSFBxWlpuL2s2MTk4MmQ5Y1Qzc0NTVHlPanlLR1JuSkJCUElJOUsvT0Q5cnJWazFmOW9qeGkwSVZZTGVhRzBSVkhBOHVDTkcvOGVEVjhmbENjOFM1UHN6Ni9ObW9ZWlJYZEhXZnNKVzd0OFlkVnVvMktOYTZGTzRZRG9UY1c2ZnlZMTkrNlJjeTZsZUNDNmN6UkVFN0c2WnI0MS80SjJhUDUvaVh4YnFFaTdvbGh0N1VCaGtOdTgxMkg0R05EK1ZmYm11UVIyVmdaYmVOWUpOd0crSUJUajZpc00xbHpZcHJ0WTJ5cU5zS24zYkl0YWhUU3JWSmJSUkJJemhTeWRTTUU0L1FWWDBSMjFhV1JMc200VkZ5b2ZzYVpvRWozOTQ4ZHl6WEVZakxCWlR1QU9SemcvVTFaOFFxTENHRnJVQzJabUlKaUcwa2UrSzhnOWNacm4vRXA4ajdIL28vbWJ0K3p2akdQNW1uNklpNnRGSzkyUHRESVFGTDloVFBEdjhBeE1QdEgyci9BRW5adDIrZDgrM09jNHo5QlRQRUxHd21pVzFKdGxaU1NJanRCT2UrS0FHNjFNK2xYU1JXakdDTmtERlU2RTVJeitncTdwRnJGcVZtSjdwQk5LV0kzdDF4U2FCR2wvWnZKY3F0eElKQ29hVWJpQmdjWlAxTlordVR5V1YrMFZ2STBFZTBIWkVTb3o5QlFBbXFYaytuMzB0dmJ5TkRDbU5xTDBHUUNmMU5hK242ZmIzbG5GUFBFc2tyakxPM1VtalI3YUs3MDZHV2VKSnBXemw1RkRNZVNPU2F3OVN1NTdhL25paW1raWpWc0tpTVFBUFlDZ0NyQlBLWjR3WkhJTERnc2ZXdXZ2NEkwc2JsbGpWV0ViRUVLTWc0TlNYRnhFMEVnRWlFbFRnQmg2Vng5aERJbDliTXlNcWlSU1NSd0JrVUFTYVZLOG1vMjZ1N01wYmtNY2cxME91UkpEcGM3eG9xT051R1VZSStZVS9WcG81Tk91RlIxWml2QVU1SnJuOURqZUhWSUhrVW9nM1paaGdENVRRQS93QVB1MDJvcXNqR1JkcDRZNUZhWGlWRmdzWTJpQWpZeUFaUVlPTUdwUEVNaXphY1ZqWVNOdUhDbkpyTjhOS1lMNlJwUVkxTVpHWDRHY2lnRDgyLzJ2N2lTZjQrK0lCSXBBaml0RlZqL0VQczBaeitaSS9DdnBUOWliV2pkL0E0MnFPVmV4MWk2Z0lCNXd5UXlEOE15Tit0ZUdmdDRXUnRmMmdMbWJqYmQ2YmF6cXc3Z0JvLzV4bXZWZjhBZ20vcnFMYWVPOUpra0NCSkxPN1FNM1VzSlVZLytPSitkZlc0bVBQbHNXdWlqL2tmSjRhWEptVWsrcmwvbWJuN2IranZxbndQdGRReVdmVHRhZ2taanpoSGlsangvd0I5TWxmQTlmcUIrMTlwUC9DUWZCRHhWRkV2bStUWkM2TEp6dEVNcVNrL2tocjh2NjJ5ZWZOaDNIc3pITjQ4dUlUN29LS0tLOTA4UUtLS0tBQ2lpaWdBb29vb0Erc2YrQ2Y5Z1gxdngzZmdFRzJzTFdFTU8zbVRNZXZiL1ZWOWI2OTRjbDhkK0dOZjhPZmJEYUhWdE51YkVYREtaQkY1c2JKdjI1R2NiczR5SytaZitDYzhhcGRlTkpqeDg5a3JNZWdHeTV4L092czd4RElzMm5GWTJFamJod3B5YStGektUV01rMTB0K1NQdDh0aW5oSXA5Yi9tenhyd2YreWo0QStFbW4ydDFhNmIvQUd6clNTTG5WTlZ4SzRPQ2NvbU5rZUQwS2pkNnNhOVg4TWszRnhNSlQ1b0NnamZ6M3I1LytJdjdZUGhQNFQzTjVaNmFQK0VvMTlGTVJ0YlI4UVF2a2Y2MmJrY1krNm00NTRPMnZrLzRsZnRXZkVmNG16T3QxcmttamFlU2R0aG94YTJqQVBabUIzdngxM01SN0N0S2VCeFdOZnRLanN1Ny9SRVZNYmhjR3ZaMDFkOWwrclAwUitKWHhHOEsrQ0hnajFYeEhwZWp6Qldab0o3dU9PVWpqR0V6dVA0Q3VDMHo5cjM0UTZlWllyM3hja2ttN0FLNmRkeWo4eEVSWDVyNlpwOCt0NnRhV01CVTNWN2NKQ2hrYkFMdXdVRmo5VHlhKzJMRC9nbjc0YjAvVHJaZFg4UzZ2cUdvc2dNejZaNVVNS3QzQ2hvM0orcEl6NkN1bXRnTUxoVXZiemQzMi9wbk5TeCtLeFRmc0lLeTcvMGozVFMvalY0SStJT29SeGVGL0ZGaGZTdEh4YVJ5K1ZPY0U1SWlmYTU0eHppdThzOUhzUEVmaHk0c2RWczROUnM3a05GTkJkUmlSSkVQOExBOVJYeUJydjhBd1Q3Z2swNTd2d3I0dXVMVFVvVzNRMitzb3VIWVlJUG14aFNuUGZZM1N1di9BR2RmaWI0bTFqVXRhK0gvQUk3OHh2R1hoMVYvZXlzSGx1TGZnWlpnU0hLN2srZitKWkVQSnlUNTlYRDB1UjFjTk82VzZlNjh6dnBZaXJ6cWxpWVdiMmZSK1I4NWZ0Vi9zOXI4RlBGZ3V0SDh5WHdycUVoRnQ1aExOYXk0M0dCbVBKR01sV1BKQUlPU3BKOEtyOVgvQUl3ZkQrMytKbndRMXp3OUtrYlh6MjBrMWtINEtYS0V2RWZVWllBSDJZK3RmaytwREtDT2g1cjZiTGNVOFRTdFA0by8wajV2TXNNc1BWdkQ0WmYweGFLS0s5YzhrS0tLS0FDaWlpZ0FyNjAvWkwvWnR0OWEwZUQ0aCtKN1piaXlNNVRTYkNaY3BLVkpEVHVEMUFaU0ZCN2d0L2RyNWI4UGFKTjRsOFFhWG85c2NYT28zY1ZuRWNaK2VSd2kvcXdyOWIvQWVqMnZobTN0dE90SWZzbW4yZG90dGJ4dHdGUk5xcU1uMkZlRm0ySmxScHFuQjZ5L0k5ektzTkd0VWRTYTBqK1pkOE9TQ1NXNGE0WU1pSnVKa09RUFU4MTQxOFUvMndQaHA0UnVGdGJIVnBOZXU0aXl5eGFGR0pVQjR4KzlKV051L3dCMWlSNlY0djhBdDAvSFMrMVR4Y2ZoMXBONkxQU0xKSXpxY3lNUjU4c2loaEd4SFdOVVpTUjNZbkkrVVY3MThJUDJZL2h4NEswOGVib0ZqcnQ0RVEvMmxyRVMzRFNudTZLK1VRY0RHMERqdWVwOEZZZWxRcHhxNGk3NXRrdjFaN2p4Rld2VWxTdzlseTd0L29qeWF3LzRLRitIN1R6RlBnL1VicFNjaHBicU1NQjlNSEg1MFhuL0FBVUQ4T1hsd3Jqd3JxOXJHRndWaW1pYkp5ZWNaRmZRZnhCK0h2Z3ErMDl2N1I4T2FISnBzTUR2TTh0bEZzaVFETE51Mi9MZ0RPUVJqRmZsUnJiMkxheHFENmFyeDZZYmlRMnFTRWxsaDNIWUdKNmtMak5lbGc2R0V4bk5hbTFielBPeGxmRjRPMTZpZC9KSDY3L0N6eExhZVBmQWVrK0liZTNsamcxR0VYRWFYU2p6RlZoa0E0Skg1R3ZqNy9nb3hkRC9BSVNId1phQmNDS084a0dPZzNDMkhIL2ZOZlMzZ0RSWDBmNGMrRHJCWXptMTBTeWhiYU0vTXNDQnZ4em12a245dm0rVi9HL2hHdzZTMitrTk13UFVCN2lRRC8wV2E0c3VpdnJxNWRsZjlUdHpDVCtwUG0zZHZ6Ujh1MFVVVjlzZkZoWHRuN0hYaDQ2NzhlZEZtS2xvdE1pbXZwQmpJd0Y4dFQrRHlvZndyeE92dFgvZ25aNFZWTFR4dDRubUNqZUl0THRuSndjZ0dTVWYrUFFmbFhuNCtwN1BEVGZsYjc5RHZ3RlAybUpndk8vM2FuMmpxTVVFT24zTWhWSXdrVE1Yd0J0d0R6WDQzZUxOZWJ4VjRxMXJXM3lHMUs5bnZTRDFIbVNNK1A4QXg2djBnK1BuaU9Yd1Y4SFBGZXFBTkhLTEpyYUppQ01TVEVRb1I5RElEK0ZmbVR3QjZBVjVPUzAvZG5VK1I2dWMxUGVoVCtaK2d2N0RIaHM2UjhBOVYxZGx4TnFtcXlTUnlZd2ZMakVjUUFQKytzdjUxOUJlSDNhYlVWV1JqSXUwOE1jaXVGL1oyOE1QNE8rRy9ndlQ1WWpBMFduSkxNR0dBc3NpR1NRWi93QjkycjFEeERJczJuRlkyRWpiaHdweWErZnhWVDJ0ZWMrN1Bmd3NQWjBJUThpUHhLaXdXTWJSQVJzWkFNb01IR0RWVHd5VGNUekNYOTRBb3dINXh6VFBEU21DK2thVUdOVEdSbCtCbklxMzRtSXVJSUJFUklReHlFNXh4WEtkUkg0by93QkgremVWKzd6dXpzNHowcVR3eUJjUVRtVUNRaGhndnpqaW8vQy8rai9hZk4vZDUyNDM4WjYxSDRtQnVKNFRGKzhBVTVLYzQ1b0FaNGxZd1gwYXhFeHFZd2NKd001TmFYaDZOWnRPRFNLSkczSGxoazFINGFkWUxHUlpTSTJNaE9IT0RqQXJOOFFJMDJvczBhbVJkbzVVWkZBRE5ja2VIVkowallvZzI0VlRnRDVSWFFhVERISnAxdXpvck1WNUxESk5NME9WSWRMZ1NSMVJ4dXlySEJIekd1ZTFXSjVOUnVHUkdaUzNCVVpCb0FqaHNMcEprWnJhVlZEQWtsRGdDdXB2YjIzbXM1NDQ1NG5rZU5sVlZjRWtrY0FDa20xYXpraWRGdUVabVVnQWR6WFBXbW0zVnRkUXl5d01rY2Jxek1lZ0FPU2FBRFRiU2UydjRKWllaSW8xYkxPNmtBRDNKcmMxaTVpdTlPbWlnbFNhVnNZU05nekhrSGdDalVOUXQ3eXpsZ2dsV1NWeGhVWHFUV1JwZG5QcDk5RmNYRWJRd3BuYzdkQmtFRDlUUUF1aHdTV1Yrc3R4RzBFZTBqZktDb3o5VFdocjhpWDlta2RzeTNFZ2tERllqdUlHRHpnZlVVdXIzVVdwV1pndFhFMHBZSFl2WEZVdEZoZlNycDVidFRCR3lGUXo5Q2NnNC9RMEFmRC9BTzMxNGVsc3ZFUGcvVnBJSGpOemFYRm9XWkNQOVU2dVAvUnpmbFhOZnNPNncxbjhYYnpUZm1ZYWxwY3NhUnJ5V2tSMGtISHNpeVY5QS84QUJRTFM0ZGUrRU9tYXBiT0pKTksxU05wR0g4TWNpTkdmemN4MThlZnM2K0ovK0VQK09YZ25Veko1VVkxT08ya2NuQVdPYk1Mayt3V1FuOEsrd3czNy9MbkRxazErcVBrTVQrNHpGVDd0UDlHZnB6ZmFGSHJuZzN4Qm9WNlZ0MTFTem10Q3M1MjVXU05rUHZqNXEvSUVvOFoyeUtWa0hES2V4N2l2MlAxdEcxV2FKN01HZFVYREZPeHI4cXZqcjRaZndmOEFHUHhocFR4bUVSNmpMTWtaR05zY3A4MUIvd0I4eUxYTGtzL2VuVDlHZFdkUTBoUDFSd3RGRkZmVkh5NFVVVVVBRkZGRkFCUlJSUUI5amY4QUJQV1l5V2Z4SnRBZDBqcnBycEdPUzJHdWM0SGZqRmU4L0hhSFVySDRMZU41N1kzRmxNbWxUTjVxNVE3UU11QWZkUXcvR3ZuWC9nbmZjaTM4YStMTjUyeGZZNEhkaWVGdzBpajlYcjZ6K1B0M2I2aDhFL0hjVUxyTXcwTytjcU9jQVc4blA0VjhWanRNZmZ6aitTUHM4RnJnTGVVdjFQeVhBd01EZ1VVVVY5cWZHRG81SGlkWGpkbzVGSVpYUTRaU09oQkhRMStpbjdPUDdYSGhQeFo0ZmlzZkZlc1duaDd4Tkdxck1iOXhEYjNSQXg1aVNIQ2d0MUtFZ2drNHlPYS9PbWl1SEZZU25pNHFNOTFzenR3dUxxWVNUbERaN28vVWY0bS90QmZEdnd6Rjl1bThXNlhmS2tQeTIrbTNTWFUwaHlTRlZFSlBQSEp3T2VTSytRdmhGOGFKL0VYN1lPaytMWjQxc3JmV0x6K3p6YjUrN0M4WGtSS3g3a0VSRW5vU0QwSFQ1MXE1bzJxeWFEckZocWNXUkxaWEVkMGhIWmtZTVAxRmN0SExhZENFMG5keVRSMDFzeHFWNXdiVmxGcG42ODZ2YnpYV3B5elc4VHpSbmJ0a2pVc3B3QjBJOTYvS1g0c2VIVDRTK0ozaXJSOWhpUzAxTzRTTkdHQ0k5NU1mL2poV3YxdTBiVTdTRFRJRmFkVnlONHozVWtsVCtJSU5mbTcrMnpvbzByOW9QV0xwVjJ4YXJiVzk5R2V6RFo1UkkrclF0WGo1Tk8xYVVPNi9JOWpPSVhveG4yZjVuaEZGRkZmWUh5SVVVVVVBRkZGRkFIcEg3TjhNVS94NDhDQ2JIbHJxc01tU2NBRlR1Qi9NQ3YxUTErUkwrelNPMlpiaVFTQmlzUjNFREI1d1BxSy9KYjRQNmtOSStMSGcyN1p0aVI2eGFiMnpqQ21aUTM2RTErcnVpd3ZwVjA4dDJwZ2paQ29aK2hPUWNmb2ErUnpwUDJzSDVIMW1UTmV6bXZNL0tUNHkza3Q5OFhmRzBzeGJmL2JWNG1INEtxc3pxby9BQUQ4SzdmNGNmdForT3ZoM29sdG9vbHRkZDBpMVhaYlcrcG96TmJyL0FIVWRXVTdlT0EyNEFjREFybi8ya05JL3NUNDhlT3JjY2lUVkpic0gxRStKd2Z5a0ZlYjE5RkdsVHIwWXFhdXJMOGo1MlZTcFFyU2NIWjNmNW5yWHhNL2FnOGMvRS9TcHRJdkx1RFN0RW5JODdUOU1qTWFUWTZlWXpNek1QYklVK25Bcnk3VGRPZldOU3ROUGkvMXQzTWx1bis4N0JSK3BxdFhjZkF5elcvOEFqUjRFaWNaai90eXlrY0hwdFdaR1A2QTFvb1F3OU4relZrdFNIT2VJcUwyanUyZnJEb0xRYVpweTI3c2x0c0pDeHlIYVF2YmcxK2NQN2NPdExxLzdSR3N4bzRrV3h0TFMxREtjakhsQ1grY3ByOUR0WHRwZFN2RFBhb1pvaUFONjlNMStXZng3MUY5VStOWGphWi92UjZ0UGJkZTBUR0lmb2dyNWJKbzNyeWwyWDZvK296aVZxRVk5Mytod1ZGRkZmWW55QVYray93Q3kxNEd1dkNId1g4TUxMYXlwTmZJZFRtYlljSHptM29UOUkvTEIrbGZuejhQZkI4L3hBOGM2RjRjdGczbWFuZVIyNUtkVVFuNTMvd0NBb0diOEsvWDZPODA2MnNGdExWNG80bzR4RkZFZ3dGQUdGVUQ4aFh6V2RWYlJqU1hYVStqeWFsZVVxcjZhSHloL3dVUjhkeFErRGZESGhlMW5WMzFDOGUrbjh0d2NSd3J0Vlc5aTBvSS82NTE4Yy9DbndvUEhQeEw4TWFDNERRWCtvUXhUNTdRN2daVCtDQnorRmQ3KzF6NHUvd0NFbytObXEyNk51dDlHalRURXdjL01tV2w0N0VTUEl2OEF3RVYxdjdDWGd3YTk4VHRWMXVSQTZhTnA3Q0hqa1hFNUtMai9BTFppZXV1ai9zbUE1dXRyL043Zm9jdGIvYThmeTlMMitTMy9BRlAwSzFpNGh1dE5saGdsU2FWc2JZNDJETWNFSGdDc25RNEpMSy9XVzRqYUNQYVJ2bEJVWitwcE5MczU5UHZvcmk0amFHRk03bmJvTWdnZnFhMHRYdW90U3N6QmF1SnBTd094ZXVLK0pQdEJOZmtTL3MwanRtVzRrRWdZckVkeEF3ZWNENmlxdmg1VFlUU3RkQTJ5c29BTW8yZ25QYk5OMFdGOUt1bmx1MU1FYklWRFAwSnlEajlEVmpXM1hWb29rdEQ5b1pDU3dUc0tBR2VJditKaDluK3kvd0NrN04yN3lmbjI1eGpPUG9hZjRlWVdFTXkzUkZzek1DQktkcEk5czB6US93RGlVK2Y5cy8wZnpOdXpmM3huUDh4VE5iUnRXbGplMEJ1RlJjTVU3R2dCbXZ4dmYzaVNXeXRjUmlNS1dpRzRBNVBHUjlSV2hvYzhkbFlDSzRrV0NUY1RzbElVNCtocUxSWmswcTFlSzdZUVNNNVlLL1VqQUdmME5VdFh0cGRTdkRQYW9ab2lBTjY5TTBBUjZ4YlMzZW96U3dSUE5FMk1QR3BaVHdCd1JXNXBsM0JiV0VNVXMwY1VpcmhrZGdDRDdnMUZwZDdCcDlqRmIzRWdobVRPNUc2akpKSDZHc2Uvc0xpOHZKWjRZbWtpZHNxNjlDS0FFajBPOWhrV1I0TUlwREU3MTRBL0d0dTUxaXp1N2VXQ0tiZkxLaFJGMmtaSkdBT1JUWlBFTnBNalJxWDNPQ295dmMxbHdhSGRXVTBkeEtxaU9KaEkyR3ljQTVOQUNXZWwzV24zVWR4Y1JlWERHZHpOdUJ3UG9EV25xR29XK3EyY2xyYXllYlBKamFtMGpPQ0NlVHgwQnBMclY3ZlVyZDdXRXNaWlJ0VU1NRE5VYlBUWjlIdVV1N2dBUXg1M0ZUazhqQS9VMEFHbTJjMmozUXVMdFBKaEFLN3NodVQ3RE5XOVZ1STlidDFnc204NlZYRGxjYmVNRVo1eDZpaSt2b3RiZyt5MnVUS1NHd3d3TUNxK24yejZCTTF4ZGdDTmw4c2JEazVKQi9vYUFQT2ZqdjRRbDFuNEkrT05PdUlzU3phYTg5dW5EYjVZU0prVVl6eVdqQXI4dVlwWklKRWxpY3h5b1F5T09xa2NnMSt4K3FlVjRuaEZ2Q25tb00rWWtnd0NwR0NLL0lMeFRvRTNoUHhQckdoM0grdjB5OW1zcE05MmprWkNmL0hhK3F5V2Q0enB2MVBsczVoYVVLbnlQMXArSGZpZTMxVHdqcFd0U3NJb3RYdElMNklENXZsa2pEZHZUT0srR2YyK3REaXRQakhaYTFhak50cStteHM4bTNHNmFKbVJoMDdKNVA1MTlGZnNoNnpONDUrQW1nUlJzSko5R2ViVEpzbkdOcjc0eCtFY2tkY1YrM3I0UTNmRFBRZFRkQWIzVE5TS2tqa0xCT21HT2Y4QWZpaUg0MXdZUC9ac2Q3UHphL3kvUTdzWi90R0I1L0pQL00rRTZLS0srMVBqUW9vb29BS0tLS0FDaWlpZ0Q2bi9BR0FBMC9qYnhiYlIvTkxMcFNiRTZaeE9oUDZWOVhmRjNUN2pUZmhCNCtsdUkvTFErSGRSUUhjRHliYVRBNHI1Yi80SjVvSWZHL2l1L1lEeTdhd2lWejNBZVE0eCtLaXZxejlvUFhyZTQrQi9qc1FzZHcwUzgrOE1EQmhkZjYxOFhqOWNmOTM2SDJXQTB3Ti9YOVQ4b3FLS0srMFBqUW9vb29BS0NNaWlpZ0Q5V1BoVUx6eFQ4TGZCdXF4cjUzMm5SYkpuZmVPWEZ1Z2ZxZjd3SXI1WC93Q0NnMmtyYStLL0JkL3R4UExwMDFuSngwTVVvY0RQZi9YbXZwYjlsVHhMYmY4QURQZmd0WldjdWxxOGZBSis3Tkl2L3N0ZUMvOEFCUkNBT25nYTh3TnMwbCtZMjc3Y1crZjVDdmlzRjdtWWNxN3lYNW4yV005L0wrWjlvdjhBSStNNktLSysxUGpRb29vb0FLS0tLQUhSVFMyMHFUUXY1YzBiQjBjZndzT1FmenI5ZnRJOFQyL3hGOEhhTHFlbWZ2UHQ5dERmQ1BPTnF2R0d4azhjYmdLL0grdjBML1lXK0lFT3IvQ3RyQzVsemM2RE0xa3lqbGpGSXhsaVkrMytzUWY5YzYrZnptbHpVbzFGMGY1bnY1UFY1YXNxYjZyOGp3Nzl1L3dGZGVIdmlGbyt2dkFZN2ZWN0x5bllIT1pvVGc1STZmSThRSCs2YStaYS9UTDlyM3dXdnhVK0MrcUhUb1RQcU9oLzhUV0VGZm1Lb0Q1aWp1Y3hsOEFkU0ZyOHphNmNycmUxdzZYV09uK1J6Wm5SOWxpRytrdGY4d3IwejltbTFhOStQSGd5QmZ2dGVsbCtxeHV3L2xYbWRlaS9zNmFvbWovSGJ3TGRTRXFvMVdHTElQOEF6MFBsL3dEczllaGlGZWpOTHMveVBQb2FWb1g3cjh6OVV0TXZJZEh0UmIzYitUTUNXMjRMY0gzR2EvSTc0bjd2K0ZtK01keEROL2JWOWtnWUJQMmg2L1dhK3NaZGJ1RGRXb0JpSUM1WTRPUlg1VmZISFQyMHY0eStPTGQxMnNOYXZIeDdOTXpEK2RmTTVLLzNrMTVIMHVjcjNJUHpPSW9vb0p3TW5nVjlhZktIMVA4QXNBZURZYno0aDZyNHV2dmt0ZEd0dnM5c3hVbk54TmtFakEvaGpEZy85ZEZyNi84QUcxL0w0QThJYXg0a3ZZQjltMHUxa3UyVXlMODVSU1FnNTZzY0tQYzF4djdOUHdndmZBUHdlMFMybGdXSy92MC90SzdETmhoSktBUXBIWXFnalVqMVUxdzM3ZmZ4VGlzL2h4cG5oU3hrWVQ2M2RlYmNBakgrandsV3grTWhqeC91Tlh4RlovWHNkeXJhOXZrdC93QldmYVVWOVJ3WE05N1grYjIvUStETlIxQzQxYlVMcSt2SkROZDNVcnp6U0hxOGpNV1p2eEpKcjlCUDJJdmgvTjRUK0UxcjRndVlQTGJXcnA3MTVEamNJVlBseGpIVWo1V2NlMGxmQTNobnc5ZCtMZkVXbWFMWXFXdTlRdVk3YUxqT0M3QVpQc001UHNEWDY3YVBEcG1sZUdiRHc3cEtOSGJXbHJIWjJ5TU1ZUkZDcUNmb0s5WE9LdkpUalJYWDhsL1g0SG1aUFM1cWtxcjZmbS82L0UwZFExQzMxV3prdGJXVHpaNU1iVTJrWndRVHllT2dOVU5OczV0SHVoY1hhZVRDQVYzWkRjbjJHYUxQVFo5SHVVdTdnQVF4NTNGVGs4akEvVTFidnI2TFc0UHN0cmt5a2hzTU1EQXI1RStzRFZiaVBXN2RZTEp2T2xWdzVYRzNqQkdlY2VvcURTWTIwT1NTUzlIa0pJTnFuNzJUK0dhVFQ3WjlBbWE0dXdCR3krV05oeWNrZy8wTlM2aEt2aUJFanRNczBaM052NDRvQWJxLy9FOThyN0QrL3dES3p2OEE0Y1p4anJqME5PMG1SZERqa2p2VDVEeUhjbys5a2ZobW02ZC94VDNtZmJQbDg3R3paODNUT2Y1aW02aEczaUIwa3RQbVdNYlczOGMwQU4xVzNrMXU0V2V5WHpvbFFJV3p0NXlUam5IcUt0YVplUTZQYWkzdTM4bVlFdHR3VzRQdU0welQ3bE5BaGEzdThpUm04d2JCa1lJQS9vYXIzMWpMcmR3YnExQU1SQVhMSEJ5S0FHYWhwOXhxdDVKZFdzZm13U1kydnVBemdBSGc4OVFhMDdMVkxYVDdXTzN1SmZMbWpHMWwyazRQMUFxS3oxT0RSN1pMUzRMQ2FQTzRLTWprNUg2R3FOenBGeHFVNzNVQVV4U25jcFk0T0tBRlh3MWRRTUpXa2lLb2R4QUp6Z2ZoVjZUWDdlL2phMmpTVVNUQXhxV0F3Q2VCbm4zcGg4VFJYQU1RZ2NGL2x5U09NMUF2aDZTd1lYVFNxNnduekNvQnlRT2NmcFFBMkhSWjlLbFc3bGVObzRqdVlJU1NSN1pGV3JqVll0YmhheWdWMGxsNkdRQUx4enpnbjBwcjYybXJJYk5JbWphYjVRekhnVkZIcEw2RzR2WkpGbFNMcWlqQk9lUDYwQUpiYWZKb0VvdTdobGVNRGJpSWtuSit1S2x1N3BQRWNZdHJZTWtpSHpDWmVCZ2Nkcytvb2wxQmZFQy9aSTBNVEg1dHpISTRwa1ZvM2hwamRTc0psY2VYdFRnNVBPZjBvQUxTSStHbWFXNklrV1ViUUl1VG4zeml2emEvYkgwRk5HK1B1dTNNRVppdGRXamgxR0pTTWZlVFk1L0dTT1Evalg2VHpURHhNQkZFUEpNWHpFdnptdmpuL2dvTjRCZlRiVHdoNGtCRC92SnRObWNBOXdKSWgvNDdOK2RleGxWVGt4S1hkVy9VOGZOYWZQaG0renYrZ24vQlBIeDVGcGorTWZEbHh1WU9JZFJnUk1aNHpIS2VUN3cxOUVmdEIrRW0rSnZ3ZzhYUVdxYml1blBKSEUvRHRORCsrUURIcXlxT3RmQlA3S1BpVC9oSFBqcjRjUjVQTGcxTjIwdVErdm1qRVkvNytpTDhxL1RTTzVYdzdHMXBNbjJqelAzbVY2WVBHT2ZwV3VaeGRERnFxdXRuOTMvREdlV3lWZkNPaytsMTkvOEF3NStOd09Sa1VWMDN4TjhLandQOFEvRWVnb3JKQllYMHNVQWJyNU80bUluNm9WUDQxek5mWXhrcHhVbHN6NCtVWEZ1TDNRVVVVVlFnb29vb0FLS0tLQVBzci9nbmxZK2ZiL0VEQXhMY213aGpjOUJ0KzBPMlQrVmU2L3RKNmJOb253SDhiWEUwc1lSOVBhRDVTZXJzcWdjanZuSDQxNWovQU1FL2RMK3dmRExYOWVia2YyeTBKVEdDd1dDTEIvT1UvbFhYL3RyZU1VLzRaOTFpMFJHaWUrdXJTM1VrOWNUTElSK1VacjRyRWZ2TXl0L2VYNkgyVkQ5M2wxL0ovcWZtL1JSUlgycDhhRkZGRkFCUlJSUUIrbDM3SnVnM0YvOEFzOWVENW8zakNtTzRHR0p6L3dBZlUzdFhqWC9CUkM0MlIvRHV5NTN3RFVRLzkwbi9BRWJHUDFyNkkvWjF1RjhLZkF6d1JwOGtERnpwY04wY2NZTXc4N0gvQUpFcjVqLzRLRjNIbmVKL0JtRzRlMHVwd25kUXp4ai9BTmtQNVY4WmhQZXpGdGQ1ZnFmWTR2M2N1U2ZhUDZIeVZSUlJYMlo4Y0ZGRkZBQlJSUlFBVjdaK3lMOFFENEwrTHRscDg4Nnc2WnIrM1Rwako5MVpTZjNEZlhlZG4wa2F2RTZWWGFObFpHWkhVNURLY0VIMUJyR3RTVmFuS25MWm10S282TlNOU082UDJPdDdjZUh3N1hnV2FPWmRtMlA1cyt1UWNjVitWbnh5K0hxL0RENG9hM29VQ091bkxMOW9zQy9VMnovTkdQZmJ5aFBxaHI5RWZnTjhTLzhBaGUzd3MwYlVta1ZkVnRVK3phbG4vbjVRQU1jZHR3S3VQWndLOGsvYmwrRGJhbDRJc3ZGZHFCTHFPakZsbjhzY3ZhTVJ1ejY3R0lZZWdhUTE4amwxVjRYRXVsUHJwOCtuOWVaOWJtRkpZckRLckRwcjh1djllUjhHMXMrQ3RTR2krTS9EK29zd1JiUFViYTVMTjBBU1ZXeWZ5ckdwc3VmTGZIWEJ4WDJiWE1yTStPVDVYZEg3TFcyb1I2QkY5a3VGWjVBZDJZZ0NNSDY0cjh5UDJ0TFZMYjlvZnhpMGFzc1U4MEZ3dTRZenZ0NG1QL2p4TmZwUHBrTCtMOUxzdFZTUlVXNGdqYkRBbk9WQnordGZuNyszTG83YVA4ZEdWc0UzR2xXMHhZZnhjdW44b3dQd3I0M0ozeTRscnlmNW8rdnpkYzJIVDgxK1RQbjJ2VFAyY3Zoako4V2ZpN29taStVSmJDRnpmWCsvN290NGlDd2JIT0dZcEh4L3owRmVaMTk1L3NIZURZdkJ2Z2ZVUEZsN2JNMS9yMG5sMjVQQlMxaUpBUFA5NTk1OXdxR3ZvOGZYK3IwSlNXNzBSODlnYUgxaXZHTDJXcjlENm1YeExiUWdSTkhNWFg1VGhSeVIrTmZsMSswMTQ3SGo3NHhhMWNRU2lYVDlPYit6TFJsT1ZaSWlRekE5dzBoa1lIMFlWOTEvdEkrTEgrRlB3azFuWDQ3bEUxQzVBdExCY0hkNTh1UUNQZEYzdi93Q3Z5L0pDakpQQTdtdkd5YWhyS3UvUmZxZXhuRmY0YUs5WCtoOU1mc0tlQUU4UWZFaSs4UjNVWmEzMGUyTUZzU09QdFU2c2luNktubVo5Q3ltdnZXSFJaOUtsVzdsZU5vNGp1WUlTU1I3WkZlWi9zMmZDR1g0WGZDUFFrdVFzV29USi9hdC9HUVEzbXVBMncrNm9FVDZwWHFqNjJtckliTkltamFiNVF6SGdWNUdQci9XTVJLUzJXaStSNjJBb2V3b1JpOTNxL21PdU5WaTF1RnJLQlhTV1hvWkFBdkhQT0NmU3E5dHA4bWdTaTd1R1Y0d051SWlTY242NHBZOUpmUTNGN0pJc3FSZFVVWUp6eC9XcEpkUVh4QXYyU05ERXgrYmN4eU9LODg5QUx1NlR4SEdMYTJESkloOHdtWGdZSEhiUHFLWmFSSHcwelMzUkVpeWphQkZ5YysrY1VSV2plR21OMUt3bVZ4NWUxT0RrODUvU25UVER4TUJGRVBKTVh6RXZ6bWdCTHYvQUlxYlo5bC9kK1JuZDUzR2M5TVl6NkdsdEpSNGFWb3JvR1JwVHVCaTVHUGZPS1NIL2ltTStiKy84L3BzNHh0Ly9YUkxFZkV4RXNSRUlpK1VoK2MwQU51N1YvRWNndWJZcWthRHl5SmVEa2M5cytvcVcyMUNQUUl2c2x3clBJRHV6RUFSZy9YRk5pdXg0YVUyc3FtWm5QbWJrNEdEeGo5S1pKcDdlSUgrMlJ1SWxQeTdXNVBGQURialNwZGJtYTlnWkVpbDZDUWtOeHh6Z0gwcXpCclVHbFJMYVNwSTBrUTJzVUFJSjlzbW1SNnNtaG9MS1NNeXZGMWRUZ0hQUDlhaWZSSk5XWTNhU0xHczN6QldISW9BZi93aS93Qm4vZS9hZDJ6NXNlWGpPT2ZXai9oSXY3US8wWDdQNWZuL0FMcmZ2enR6eG5HUGVveDRtbHVENVJoUUIvbEpCUEdhbmJ3OUhZS2JwWm1kb1I1Z1VqZ2tjNC9TZ0JuOWgvMlQvcG5uK2I1UHpiTm0zUDQ1by90ZiszZjlCOHJ5UE4vNWFidDJNYzlNRDBwaWEzSnF6QzBlTlkxbStVc3A1RlN5YVNtaG9iMk9ReXZGMFJoZ0hQSDlhQUcvMmQvd2p2OEFwbm1mYU1mTHMyN2V2dnpSOXIvNFNiL1JkbjJiWis5MzUzNXh4akhIclRZOVFieEEvd0Jqa1FSS2ZtM0x5ZUtmTGFEdzBvdW9tTXpPZkwydndNSG5QNlVBSjVQL0FBaS83M1AybnpmbHhqWmpIUHZYbFA3VW5obi9BSVdoOEMvRkNwRjVkem85di9hY0lIemttTDUyeDA1TWF5TC9BTUNyMWFLVStKaVlwUUlSRjh3S2M1cUxVTFdMUnJXVzJlTmJ5QzlSbzVZNVJ3VnhnajhReHJXbE4wcHhtdWp1WlZZS3JDVUgxVmo4ZTlPMUM0MG5VTFcrdEg4dTd0WlVuaGYrNjZzR1UvZ1FLL1hqdzFxTUh4TjhPYVY0aXRuK3oyOTdheFRScGpmOHJvSEhQSDkvSDRWK1RQalh3eko0TThZYTFvVXVTMm5Ya3RxR0orOHF1UXJmaUFEK05mZTM3RS94S2sxTDRLd2FZMkpyalI3dVcwYmVmbTJIRWtmNEFQdEgrNVgxR2NVMVVvd3JSNmZrejVqS0p1bldsU2wxL05IZ2Y3ZVBnUDhBNFJiNHNXT3J4NWVEV3JGUzhtTWJwNGNJMzVSbUQ5YSthNi9RNzl0M3dVZkdud1ZmeE5IR1RlNkhkeHo3VUdmM0xIeXBCOVBtUmovdVYrZU5kMldWZmE0YVBkYWYxOGppektsN0xFeTdQWCt2bUZGRkZlcWVXRkZGRkFCUlJSUUIraC83RFJXZjRGUjZlRjJHNjFPNWRwYzV3UnM3ZlJSM3JKL2IrMGR0SytEMmlNSnpJc212d3F3QzdmOEFsMnVUNisxTCt3UHFrYmZDSFdDRzNYT21heEorNlBRcEpGRmc1K3UvOHEydjIyRW04Vi9BbStrRUtnNlZlMjk5aFNja2JqQ2Z5RXhQNFY4VjhHWmEvd0EzNW4yWHg1YnAvTCtSK2RkRkZGZmFueG9VVVVVQUZXOUkwbTQxL1ZySFM3UWJydStuanRZUjZ1N0JWL1VpcWxmUWY3RW53d2Z4L3dER0JOVG1ValRQRDBKdkpYeGtHZHNwQXYxenZjZjljcXdyMVZScFNxUG9qYWhTZGFyR211clAwRjB2d3RBK21XaTJzbjJlMmhoUzNpaTI3dHFScUVYbkk3S08xZm4vQVB0MCtJRjFQNDJKcE1jbTlORDAyQ3pmSFR6R0x6RS85OHlvUHdyNy93QlY4VFErRExHN055eUpZMkVUenpYRW1ma2pDbDJZZ2VneitWZmt2NCs4WDNIai93QWJhNzRrdWxLVGFwZVMzUmpKejVhc3hLcG4wVmNMK0ZmTDVQVGNxMHFyNkw4V2ZUNXhVVWFVYVM2djhFWUZGRkZmWG55UVVVVVVBRkZGRkFCUlJSUUI5RC9zVS9HTS9EWDRsdG8xNCtkSThSQmJZaG13c2QwRCs1YjIzRW1NK3BkU2VGcjlCYnl6ZzhkV2R4YVhVU0xhbU5vWllaQjVpeXBJQ0dVampnZ0Vmalg0Nkk3UnVyb3pJNmtGV1U0SVBZZzErb0g3T3Z4Z2orSVB3dTAzV2d5VGF2elo2cEVUalpjUmdaYkE3T0dEajAzWTdWOHBuR0g1WkxFUjY2UDlENm5LTVJ6UmVIbDAxWDZuNStmSFA0VjNQd2IrSm1yZUdwdDcya2JlZll6djFtdG5KTWJaN2tZS24vYVJxNEUxK2gvN1kvd3FiNHEvRFdieFJZMm8vdDN3MHJUYll4bHByVHJLdnVWQTNqL2RZRGxxL1BBa0FaN1Y3ZUJ4UDFtaXBQZGFNOFhIWWI2dFdjVnM5VWZyWjhNdkVQMlA0YmVFaVlUTVo5SXM3amNXMi9mZ1E0eGcxOFovOEZBUXR6OFVQRDJvQWJIdWRHVUZPdUFzOHdIUGZxYSt6dmhkNGQrMGZEVHduSFBJMGMxdHBGcGJNcWp1a0tLZjFGZkZQN2ZzM2xmR0hTTk9WOThkbm9jUFBmTHp6c2YweFh6ZVcvNzVwNW4wZVkvN21yK1I0UDhBRC93YmQvRUx4cG8vaDJ5eXMyb1hDeEdRRFBsSjFraytpb0diOEsvV1RRL0FkbnBlaTZmWjZld3RMQzN0NDRyZTNDWkVjYXFBcTV6emdBRE5mSzM3QlB3VU11a2FsNCsxRldpYTdMV0dtZ3IxaVZoNTBnK3JnSVA5eC9Xdm96NG5mRm1MNFVlQjlhMW00aGpsVFRJU2tLT3hIblMvY2lUL0FJRXhVSDBHVDJxczByUEVWMVJocmJUNXYrckVaWlJWQ2c2MDlMNi9KZjFjK052MjdQaXdmRjNqcXc4STJqa1dIaDFEOW9DdGtTWFRnRS85OHB0SHNYY1Y1Myt5NThNRytLWHhnMHEwbWk4elN0TnpxZC9rY0dPSWdxaDlkN2xGSTlDeDdWNWhxMnEzZXU2cmU2bGZ6RzR2cnlkN2llWnVyeU94Wm0vRWttdnZ2OWlqd0lmQUh3MmZWN20yQTFUeE95VHN6ZmVqdFJrUXIrSVpwUHBJb1BTdll4RWxnTUh5UjMyK2IzWjVHSGk4ZmpPZVcyL3lXeVBvdi9oSXY3US8wWDdQNWZuL0FMcmZ2enR6eG5HUGVqK3cvd0N5ZjlNOC93QTN5Zm0yYk51Znh6VDI4UFIyQ202V1puYUVlWUZJNEpIT1AwcUZOYmsxWmhhUEdzYXpmS1dVOGl2aVQ3VWYvYS85dS82RDVYa2ViL3kwM2JzWTU2WUhwUi9aMy9DTy93Q21lWjlveDh1emJ0NisvTk9rMGxORFEzc2NobGVMb2pEQU9lUDYxSEhxRGVJSCt4eUlJbFB6Ymw1UEZBRHZ0ZjhBd2szK2k3UHMyejk3dnp2empqR09QV2p5ZitFWC9lNSswK2I4dU1iTVk1OTZXVzBIaHBSZFJNWm1jK1h0ZmdZUE9mMHBJcFQ0bUppbEFoRVh6QXB6bWdBLzVHbi9BS2RmSS80SHUzZmxqcFI1My9DTC91c2ZhZk4rYk9kbU1jZTlFMy9GTVk4cjkvNS9YZnhqYi84QXJwWVlSNG1CbGxQa21MNVFFNXpRQW4yVC9oSnY5SzMvQUdiWis2MlkzNXh6blBIclIvYVAvQ08vNkg1ZjJqSHpiOTIzcjdjMGt0MjNocGhheEtKbGNlWnVmZzVQR1AwcDhXbnI0Z1g3WEk1aVkvTHRVWkhGQURmN0kvdDMvVHZOOGp6ZitXZTNkakhIWEk5S1A3Yy9zbi9RL0k4M3lmbDM3OXVmd3hUWk5XZlEzTmxIR3NxUmRIWTRKenovQUZxVk5FVFZrRjQ4clJ0Tjh4VlJ3S0FKSDhOV3NDbVZaSlN5RGNBU01aSDRWU2oxKzR2NUZ0cEVpRWN4RWJGUWNnSGc0NTk2aVR4QmVUT3NiTW0xenRPRjdHdFdmUTdXeWhrdUlnd2tpVXlMbHNqSUdSUUJGUG9zR2xSTmR4UEkwa1EzS0hJSUo5OENxMXZxc3V0ekxaVHFpUlM5VEdDRzQ1NHlUNlZIYmF2Y2FsT2xyT1ZNVXAyc0ZHRGlyMTVwa0dqMnozZHVHRTBlTnBZNUhKd2YwTkFETG5UNDlBaSsxMjdNOGdPM0VwQkdEOU1WRmEzVCtJNURiWElWSTBIbUF4Y0hJNDc1OVRUTEcrbDF1NEZyZEVHSWd0aFJnNUZXTlF0azBDRmJpMHlKR2J5enZPUmdnbitnb0FiZHhEdzBxeTJwTWpTbmFSTHlNZTJNVWxwL3hVMi83Vis3OGpHM3llTTU2NXpuMEZOMCtSdkVEdkhkL01zWTNMczQ1cDJvL3dERlBlWDlqK1h6czc5L3pkTVkvbWFBUHovL0FHNy9BSWZMNFErTDl2cTF1cmZaTmVza20zTmovWFJZaWNjZjdJaVAxWTFaL1lLOFVSV2Z4U3YvQUF4ZHlzbHZydG1XaUNrWk54QmwxSFAvQUV6YWJQMEZlMy90cmVEWmZIZndZZnhBRUVsLzRidWtuQlVZUDJlVENTajh6RzU5bzYrRXZBM2l5NThDZU10RThSV21UY2FYZVJYUVZUamVGWUZrK2pES24ySnI3UERmN1pnUFo5VXJmZHQraDhkaWY5angzdEZ0ZS8zNy9xZnE3NHowcTMxUHc5cTNoYTRSWmROMUcwa3RwaTR5NFdSU3JFZEJrWnlQZXZ5UzFyU0xydzlyTi9wVjZteTlzYmlTMW5VZHBFWXF3L01HdjJDMEUyWGpIU2JYVjFsKzB3M2NheXd6Um5Ddkd3QlJoOVFRYS9QUDl0L3dDbmd6NDEzRjlheGxMSFc3ZU83VTloTXFoSlI5ZUVjKzhsZWRrOVhrcVNwUHIrYVBRemlselU0MVYwL0ovd0JmaWZQdEZGRmZYSHlZVVVVVUFGRkZGQUgxUit3QjR1anRQSDJ1K0VybVVSd2E3YUxOSGtqSmx0eXpiVjl5anVUN0pYMm40OThDNmZyWGczV2RKbloyZzFPMWtzcEMrRHRXUlN1NFlBNUdjajNGZmxENEY4WTMzdys4WTZQNGswMC82YnBseWx3aWs0RWdCK1pDZlJsTEtmWmpYNnUrRFBGOXQ4U2RHMDdVTGFaYmpTOVF0MXVZWFVZT0NNNFBvUWNnanNRUjJyNUROcUxwMWxYajEvTkgxdVUxVlVvdWpMcCtUUHlTMXZScnp3NXJGOXBXb1FtQytzcG50NTR6L0M2a2cvaGtkZTlVcSt6djI3UDJmMnNaWS9pTG9VRFNRTUZnMWlGUmtvUU5zZHg5TUFJM3BoRC9BSGpYeGpYMG1GeEVjVFNWUmZQMVBuTVRRbGhxcnB2NWVnVVVVVjFuS0ZmcEIreVg0TW4rRlB3ajA5NUxkRjFQWFF1cVhKbFU3bFYxSGxKMTR4SHRPT3pNMWZESHdTOEEvd0RDeXZpZm9XaHlSK1paUE41OTU2Zlo0L21rQjlOd0cwZTdDdjFiMDdUb05YdFZublhEajVBSS9sVUFkQUJYek9jMTdLTkJkZFgraDlKazlDN2xXZlRSZnFmT3Y3YmZqOVBEZndpaXM0cHZMMWp4UE1iWFlwd0Z0bzhHWmdPdUNQTFEvd0RYVTErZXRlM2Z0Zy9FQlBHL3huMUt6czVUSnBPZ0QreXJZWnlDNk1UTTMxTXBkYzl3aTE0alhwNWRROWhoNHA3dlYvUC9BSUI1dVlWL2I0aVRXeTBYOWVvVVVVVjZaNW9VVVVVQUZGRkZBQlJSUlFBVjdiK3lWOFZZdmh6OFRyZXgxT1l4ZUg5ZFpMSzdiY0FJWk0vdVpzbm9BekZTZWdWMlBZVjRsUVJrWU5ZMXFVYTFOMDViTTFwVlpVWnFwSGRIN0gzekR3K1BJZ1ZabzVsSmNUamRudGpqSEZmbS93REVQOW42YlRQMmlkUDhGMkVMeDZScjk3RkpZc2c0anRwSC9lQWY5Y2dKQjNPRUJQV3ZzcjlsTDRqcDhhUGhWWnk2cE8wK3RhTnQwNjhPNzVuS3FOa2g5ZDY0SlA4QWVEZWxkNTRoOE1hWGJlTE5GMWo3SEhKcVdsUnpHenVaQmxvdk9BU1RIMVZBUHo5YStKb1Y1NWZWbkIrYStmUi8xMFB0SzlDR1lVb1RYay9sMVg5ZFRZdUw1L0QwbjJPMVJEQ29CRzhjalBiakhGZm4vd0RHL1NOUStQdjdYRjE0ZDBzcjVyeXdhY1psR1VnamppRFR1ZlpDWmVPNUdPcHI3cDhZK0pkTjhMK0E5WjhYYTBTWWROdDNtWlZPM3pDbytSQjdzeENqM0lyNSsvWSs4QlgvQUllMHpVZmlIclNCL0V2aWhtblI1Rnl5V3p0NWhiMk1ySGYvQUxvajk2ckJWUHEwSjRqcmF5OVgva0xHMC9yRTRZZnB1L1JmNW4wUG9rY1BnTFI3THc3cEZ2RkZwbW1RcGEyNk1DVzJLQUJrZ2pKN2s5emsxOFMvdHovRk9QeEQ0dnMvQituVEZyVFN3dDNxQlZ2bGU4a1hJVWUwYU4rY2pBL2RyNjQrTlh4QTAzNFZmQzNVZkY5NG9tMUFvSXJPM1pzQ2U2ZklqWEhvTUZtLzJWYXZ5c3Y3KzUxUyt1TDI4bmU1dTdpUnBwcDVEbHBIWTVaaWZVa2sxMjVUaDNVcVBFVDZiZXB4WnRpRlRnc1BEcnY2SGMvQXI0WnY4VnZpVHBtak9qTnBzYmZhdFFkY2piYm9RV0dSMExFaEFleGNIdFg2cmp3dFoyVUlNSmtSWVYrUkYyaFFBT0FBQndPSzhKL1kxK0JVUGdiNFhSYTFxc0RKcnZpRUxkeUE4TkZiNC9jeCszQkxudmw4SDdvcjJWUEVGNU02eHN5YlhPMDRYc2E0OHp4UHQ2M0xIYU9uK1oyWmJodllVZWFXOHRmOGlXUFg3aS9rVzJrU0lSekVSc1ZCeUFlRGpuM3EzUG9zR2xSTmR4UEkwa1EzS0hJSUo5OENwWjlEdGJLR1M0aURDU0pUSXVXeU1nWkZadHRxOXhxVTZXczVVeFNuYXdVWU9LOGc5WWt0OVZsMXVaYktkVVNLWHFZd1EzSFBHU2ZTcDduVDQ5QWkrMTI3TThnTzNFcEJHRDlNVSs4MHlEUjdaN3UzRENhUEcwc2NqazRQNkdxbGpmUzYzY0MxdWlERVFXd293Y2lnQjlyZFA0amtOdGNoVWpRZVlERndjamp2bjFOUHU0aDRhVlpiVW1ScFR0SWw1R1BiR0tkcUZzbWdRcmNXbVJJemVXZDV5TUVFL3dCQlVXbnlONGdkNDd2NWxqRzVkbkhOQURyVC9pcHQvd0JxL2QrUmpiNVBHYzljNXo2Q2t1NVQ0YVpZclVDUlpSdUpsNU9mYkdLWFVmOEFpbnZMK3gvTDUyZCsvd0NicGpIOHpUdFBpWHhBanlYZVdhTTdWMmNjVUFGcmFwNGpqTnpjbGtrUStXQkZ3TURudm4xTlJYT29TYUJLYlMzVlhqQTNabEJKeWZwaWpVTGw5QW1XM3RDQkd5K1lkNHlja2tmMEZXTEd4aTF1RDdWZFpNcEpYS25Bd0tBQzMwcUxXNFZ2WjJkSlplb2pJQzhjY1pCOUtxemExUHBVcldrU1J0SEVkcWx3U1NQZkJwTHpVcDlIdVh0TGNnUXg0MmhoazhqSi9VMWV0ZEl0OVN0MHVwZ3hsbEc1aXB3TTBBVHk2SFpReHZJa0dIVUZnZDdjRWZqV0piYXhlWGR4RkJMTnZpbGNJNjdRTWduQkhBcUdMVmJ1U1ZFYTRkbFlnRUU5UlhSWGVtV3R0YXpTeFFxa2thTXlzT29JR1FhQUlyM1M3WFQ3V1M0dDR2TG1qRzVXM0U0UDBKck0wL1VMalZieU8xdXBQTmdrenVUYUJuQUpISTU2Z1ZGWVg5eGVYa1VFMHJTUk8yR1J1aEZiR3FXVUduMk10eGJ4aUdaTWJYWHFNa0Evb2FBSXRUczRkSHRUY1dpZVRNQ0YzWkxjSDJPYXE2VmNTYTNjTkJldDUwU29YQzQyODVBenhqMU5SNlJjeTZsZUNDNmN6UkVFN0c2WnE3clVLYVZhcExhS0lKR2NLV1RxUmduSDZDZ0JtclJyb2NjY2xrUEllUWxXUDNzajhjMDNTUDhBaWUrYjl1L2YrVmpaL0RqT2M5TWVncG1pTzJyU3lKZGszQ291VkQ5alQ5Yy80bFBrZlkvOUg4emR2MmQ4WXgvTTBBWnZqZlJiUyswVyswS1JNYWJxbHJKYlhVWTVMbzZsRzVQSTRKNlYrU1hpVFFMdndwNGgxUFJiNWR0NXA5ekpheThZQlpHS2tqMk9NajJJcjlndEVSZFdpbGU3SDJoa0lDbCt3cjRIL2I1K0hTZUZmaXJaZUlMT0R5N0xYclFOSVIwRnhGaEcrbVU4bys1M1Y5Qms5YmtxdWsvdGZtditBZUJuRkhtcEtxdW41UDhBNEo3Zit4cDhUN3J4QjhITGJTdnRHTHZRWm1zblVxQ1RFZm5pYjZiU1VIL1hJMWUvYkwrSERlUGZnWEw0Z2hpODNWOUNtL3RCbkE1ZUFaU1lZNkFCZHJuL0FLNVY4MmZzUGVQSWZDM3hqajBTK0svMmQ0aWkreUVQMFc0WExRdDlTZDZEM2tGZmZYaUVCbXZOTVpRK255eG1LUzJZWlIwWmZtVWowT1QrZFk0dFBCNDMya2RyMy96L0FGTmNJMWpNSDdPVyszK1g2SDQvMFYxSHhPOERYSHcyOGU2MTRjbjNNTEtjckRJM1dTRmdHaWY2bEdVbjBPUjJybDYrMGpKVGlwUjJaOGRLTGhKeGx1Z29vb3FpUW9vb29BSytudjJOL3dCb0ZmQW1wTjRPMWlkWU5OMUNYZnA5N0szeTJzN2NHTnM4QkpNREhvMys4U1BtR2dnRUhQU3VmRVVJWWltNmMrcHZRcnl3OVJWSWREOWlyRS84SkkwOWpxYXBlV2p4TnZoa1FiV0IrVWdqdUNDUVFlRG12aUQ5cG45alMrOEVYay9pSHdMYlM2ajRmbEplWFNreTl4WmR6c0hXU1A4QU5sNzVHU1BvSDltRi9ITnY4RjlPdlBGK0k1NUpBdW15eUFpN2V6SzVVekVublA4QUR4bmFBVGttdlk5RWR0Vm1rUzdKblZGeW9mc2ErSXBWNm1Bck5RZDdiOW1mYTFLRlBIMFU1cTE5dTZQeHdvcjlQdmpUK3pOOFB2aUJNbDNkNk1OTjFTY3NaTlIwdGhCTTU0NWZncTU1NnNwUHZYZ3R6L3dUeXVkUjgyWFJQR2tRalZzQ0hVTEVnZ1kvdm81ei93QjhpdnBhV2JZZW92ZmZLLzY3SHpkWEtzUkIrNHVaZjEzTnIvZ25sOE5JSnRKOFQrTXIyRU9aNVYwcTB5U0NGVUxKS2ZjTVdpSDFqTmU5L0hQNGp2OEFCN3dCcjJzV2tnaWEydDhXc1RBTnV1SkRzajY4a2JtQlBzRFI4TmZBc3Z3WitIM2gvd0FLUTNTeVMyZHNXdVpvQVFzczd1enlNTTg0M01RTTlnSzhXL2JTMG54ajQ4OFArR2REOE8rSGRWMXlIejVMMit1TEswZVZReWpaQ2haUjZOS1NQOTAxOCs1UnhtTnZKKzYzK0MvelBmVVpZUEJXaXZlUy9GLzVId2k4anl1enlPMGtqRXN6dWNzeFBVazl6VGEwL0VIaGpXZkNkNzlqMXpTYjdScnZ0QmYyendPZmNCd0NSeVB6ck1yN2xOTlhSOFEwMDdNS0tLS1lCUlJSUUFVVVVVQUZGRkZBQlJSUlFCNnYremQ4YTduNEovRUNPK2FWeG9tb0tMWFVvMEc3NU01V1VEdVVZNTlTQzRIV3YwNjBFMjNpZlRrdjVYUzlXVEJpbmpmNVhqS2hsSUs4RUhka0gzcjhicSt5L3dCaUg0dWVJNTdLNThIWEZ2ZlhXaldvYVd6MUtPSm1pdFQxYUNSOFlBUFZjbkl3UjBJeDg1bTJFVTQvV0k3cmMraHlyRnVFdllTMmV4N3I4ZWZBR28vRUcrOE5lR0VlT0h3VXQ3OXUxcVB6RDVrd2pVTkRDQjNWM1B6YzhiUVJ6aXZWOUswcTB2ZFBnbGxnVXVWMi9KbEFBRGdBQVlBQUFBNHAya1dzV3BXWW51a0UwcFlqZTNYRmZQSDdZM3h0bStGZmhXYnc3bzEyOXZyT3NvWVlSQytEYXdZSG15OGNnbmR0WHB5V0lQeVY4NVNqUEV5aFFqL1hkLzEyUG9xa29ZZU02OHY2N0wrdTU4MC90Zy9HWWZFejRoTm91bDNQbWVHUEQ3dmJXb1JzcE5ObkVzdnVNamFwNTRVa2ZlTllmN0xId2QvNFhKOFZyS3l1NGZNMEhUY1gycDdoOHJ4cWZsaS83YU5nWS91aHlPbGVQZ1lHQndLNlR3cjhTZkZQZ2EwdTdidzdyOS9vY1YyeXRQOEFZSnpDMGhVRUxsbHdlTW5IUGMrdGZkZXdkUEQreG91enRhLzZudy90MVVyKzJySzZ2ZTM2SDZ2dnJkOUM3cEhOdGpRa0FCRndBT25hczd4QjhRdmh4NFZMcnFYaXZRZE91VUdWaXVOVWpXVFBiNVMrVCtWZmxMclhqTHhCNGxWbDFqWHRVMVpXT1NMKzlsbkIvd0MrMk5Zdnl4cjJWZnlyeElaSXZ0eis1SHRUenAvWWg5N1AwOS80YXIrSGh1RWd1dkhHbnRDN2JaTmlNeWxjNFB6S21QeHpYZCtIUEhIZ254aFp6M1BoVFh0TTFhNGdUekN0bmVDV1NQM1pNNUg0aXZ5VFRTcjJXMk53bG5jUGJnYmpLc1RGQVBYT01kcVpwK29YT2wzc0Y3WTNNdHBkd052aHVMZVFwSkczcXJEa0gzRmFTeWFrMTdrM2NpT2MxRS9mZ3JIN0JhZnFGeHF0NUhhM1VubXdTWjNKdEF6Z0Vqa2M5UUt2YW5adzZQYW00dEU4bVlFTHV5VzRQc2MxOHY4QTdLUDdURC9FT3duOEwrSXpHdml5emg4MnoxRkYybStpQkFjTU9ubUtEazQrOHVUajVTVDlKYVJjeTZsZUNDNmN6UkVFN0c2WnI1cXZRbmg2anB6M1BwS0ZlR0lncWtOaVRTcmlUVzdob0wxdk9pVkM0WEczbklHZU1lcHFiVm8xME9PT1N5SGtQSVNySDcyUitPYWZyVUthVmFwTGFLSUpHY0tXVHFSZ25INkNxK2lPMnJTeUpkazNDb3VWRDlqWE9iajlJLzRudm0vYnYzL2xZMmZ3NHpuUFRIb0ticTBqYUhKSEhaSHlFa0c1aDk3Si9ITk8xei9pVStSOWovMGZ6TjIvWjN4akg4elQ5RVJkV2lsZTdIMmhrSUNsK3dvQWRwVnZIcmR1MDk2dm5TcTVRTm5ieGdISEdQVTFVMUs4bTBlNk52YVA1TUlBYmJnTnlmYzVwZGFtZlNycElyUmpCR3lCaXFkQ2NrWi9RVmQwaTFpMUt6RTkwZ21sTEViMjY0b0FYVDlQdDlWczQ3cTZqODJlVE81OXhHY0VnY0Rqb0JXWmVhcGRhZmRTVzl2TDVjTVoycXUwSEErcEZHcVhrK24zMHR2YnlORENtTnFMMEdRQ2YxTmErbjZmYjNsbkZQUEVza3JqTE8zVW1nQ3pQWVdxUXlNdHRFckJTUVFneURpdVhzcjI0bXZJSTVKNVhqZVJWWldja0VFOGdpb0lKNVRQR0RJNUJZY0ZqNjExOS9CR2xqY3NzYXF3allnaFJrSEJvQWgxTzBndHJDYVdLR09LUlZ5cm9vQkI5aUt3OUh1WmJ2VVlZcDVYbWliT1VrWXNwNEo1QnFIU3BYazFHM1YzWmxMY2hqa0d1aDF5SklkTG5lTkZSeHR3eWpCSHpDZ0NMWElJN0t3TXR2R3NFbTREZkVBcHg5Uldmb0VqMzk0OGR5elhFWWpMQlpUdUFPUnpnL1UxRjRmZHB0UlZaR01pN1R3eHlLMHZFcUxCWXh0RUJHeGtBeWd3Y1lOQUVmaUZSWVF3dGFnV3pNeEJNUTJrajN4VFBEdi9BQk1QdEgyci9TZG0zYjUzejdjNXpqUDBGUitHU2JpZVlTL3ZBRkdBL09PYWs4VWY2UDhBWnZLL2Q1M1oyY1o2VUFNOFFzYkNhSmJVbTJWbEpJaU8wRTU3NHJ5UDlwajRiUDhBRlA0RDYyWWtOeHJPa1NmMm5ac2ZtZHZLWEx4ZzlUdWphUUFmM2l0ZXgrR1FMaUNjeWdTRU1NRitjY1ZVOFNzWUw2TllpWTFNWU9GNEdjbXRhVlIwcHFwSGRHVldtcXNIVGxzejhmTlAxQzUwdSt0cjZ5bmEydkxhVko0SjR6aG81RklaV0h1Q0Fmd3I5Y1BnNTR3c2ZpbjhOTkI4VHJGRkpMZndicHd3REdPWldLeUprOC9Ld0lIc0JYNXBmdERmRFEvQzc0b2FucDBNUGxhVGRuN2JwMkI4dmt1VDhnLzNHREo2NFVIdlhydjdEL3hUZlN0WnYvQTkzY01sdnFHNjlzTXRnQ2RWL2VJUDk1RkRmOXN6M2F2ck15cHJGWVpWNmZUWDVkVDVYTHFqd3VKZENwMTArZlE2ajl2cjRiQ2RySHhwWlFnRzBZYWRmYkIwaUpKaGMrd1lzdjhBMjBVZHErTUsvWXpXZkNPbStPL0F0N29lclFDZXkxSzFlM200RzdEREc0SHN3T0NEMklCcjhsZmlKNEcxRDRhK050WThOYW92K2w2ZE8wWG1BWVdWT3FTTDdNcERENjQ2aWpLTVQ3U243R1c4ZnkvNEFadGgvWjFQYlIybCtmOEF3VG5hS0tLOTg4RUtLS0tBQ3ZxUDlsWDltS1R4VkJENDg4VldwWFFvWkFkTnNKazR2bi81NnNEL0FNc2xQUWZ4a2MvS01Oelg3TVg3TmsveFh1SmZFdXVRdkQ0UDArUUFxY3FkUWxCR1lsUFVJUDQySCs2T2NsZjBGOEx4cEhkUTJ5SXFXMGNleElWQUNJb0dBQXZRQURnQVY4NW1XUDhBWnAwS1QxNnZ0NWVwOURsdUE5cGF0VlduUmQvUDBKTkl2VWFTNGsxR2RUYVF3dEs3WFQvdTR3TVpZbHVCZ1o1OU0xOFpmRjM5dWpWb1BIY2tQdytoc0kvRGxreGlNOXhia25VR0I1ZktzcFZQN29CQlBVOWRvcmZ0aS90UHgrTUxxNThEK0VMaFYwS0J5bW82amJ0eGZPT0RFaEhXSUhxZjR5UDdvK2I1T3FjdnkyUEw3U3VyMzJSZVB6R1hON09nN1czWjk2ZkRyOXZYd2RxYWVWNHkwdlVOSnVTRkhuS3YyMjNYMUlJdzR6eHdFUFRxYTlTUDdTUHd6MWQ3Zit4L0crbFd5eUQ3a3MzMlFrazhaV1FLYzErWE5mWS83RUg3TjQxVzloK0lmaWEwL3dCRXRpSDBleW5UL1d2MUZ5d1A4SS9nOVQ4M1pTVmpNdnd0Q0RxWGE4ditIREI0L0ZWcHFuWlB6LzRZKzBkQWlTK3Mza3VVRnhJSkNvYVViaUJnY1pQMU5aK3VUeVdWKzBWdkkwRWUwSFpFU296OUJVUGpiVTdiUVJMZVhOeWxoWTIxc1o1NW5iWWthTHVMTXg3QUFmcFg1K2ZHbjlyYnhUNDExOXJmd3RxMTc0ZjhPMmpGYmMya2hodUxybi9XeU9NTUFleVp3QjF5YThQQzRPcGk1TlEwUzZudDRyRjA4SkZPZXJmUS9ReTg4STZMNDY4TE5wL2lIUzdYV0xTNURDV083akQ1NUlCQlBJSTdNQ0NNREJGZm5aKzFGK3pnM3dZMTF0UjBReTNQaEs2bU1jUmtPNlN6a3hrUk8zOFNrQTdXNjhFSGtBdDdYK3l4KzBycWZ4RW5rOEsrS0xyenRjaGlNdHBmakNHN2pYN3lPb0FHOVJ6a2ZlQUpJeXBMZlR2akR3SFlmRXY0YWFuNGQxQ05HaTFLMGFIeldHVEcvVkpCN3F3Vmg3clhWU3FWc3RyOGs5dXZhM2RITFZwMHN5b2M4TituZS9abjQvMFZMZFdzMWpkVFcxd25send1MGNpZjNXQndSK1lxS3Z1RDRvS0tLS0FDaWlpZ0Fvb29vQUtLS1JtMktXOUJtZ0Q2TS9aYy9ad2crSTZ0NHA4VFF5TjRiaGxNVnJhQWxQdDBpbjVpU09mTFU4Y2ZlYkl6OHBCL1FMd1hvdW4yV2h4Mmx2WTIxdmEyN2VYREJGQ3FwRWdBK1ZWQXdCeWVCNjFpZkJUd3BCNFArSG1qYUVzYTQwKzBoaGJJNnliY3lOOVdjc3g5elh6eCsyNThmOWE4QTY5WStEL0N0MjJsWGMxbXQxZlgxdWNTb3JPd1NORC9BQU1kcEpicmdyZ2ptdmhxa3F1Wllqa2k5T25aTHVmYlU0MHN1dy9QSmE5ZTdaOVBhNUxMWlh4UzNkNEl0b0lXSWxWejlCVlBYUGhyNFgrSjNoMkMzOFU2SFo2MnZ6YlpMbE15cHlSbEpCaDFPQUJsU0svS1BSdmlKNG84UDY4dXRhZjRoMUszMVVNSE4zOXBkbmtJN1B1SkRqMmJJUGNWOUQrRmYyK1BFTnJFc2ZpWFFMYlZuQUMvYWRQbk5veHdPckp0ZFNUMzI3UjdWMFZNcHhGSnFWR1YzOXpNS2VhMEt0NDFsWmZlajEzeEgreFY4TTVkUnVFdGJiVk5NakRmS2xyZmxnUHhsRG10UFNmMkEvaGtzTVU4MCt2WFhtSXJHT1c5UUFaR2VOc2FuOWF3OUIvNEtEK0F6YkpIcWZodlhyZVZSOStLS0NZTWZxWkZQNlZuNnArM240SUUwcjJtbGVKSlF6RXFwaGdSUUQyLzEzOUtubHpOYWU4VnpaYTlmZCs0Nit3L1pVK0Z1alR0NWZoYU81WlNSdXU3dWVZSG51ck9WL1N2YXRKK0ZYZ3Z3ckUwbWplRXRFMHVWRnlzdHBwOFViNUE0TzRMblB2bXZsYlVmK0NqT213UmdXSHcva3VjREcrODFKWXZ4SVdKL3dDZGQ3OEl2aUY4VHZpWmNXZXFhaG9XbmVFdkRUdXJxTHp6cDd5NlhQOEF5elhjZ1ZTUDQyWDNDc0RrYzlhaGpJeDU2N2FYbS8wdWIwYTJEbExsb1JUZmt2MXNleldOOWN5M3R1ajNFcm8waXF5czVJSXp5Q0srWlAyOWZnbm9GaDRXdGZIbWtXTUdtNm1sNGxyZnJib0kwdVVjTmgyVWNHUU1BTjNVaGpuTzBZK3c3K0NOTEc1WlkxVmhHeEJDaklPRFh3WisyMThYN2JVMXRQQWVuM1AybVMydUJkNm02dGtSdXFrUncvWDVpemVtRkhYSUN5MVZIaVkreitmb1ZtVHByRFM1L2w2bnpyOEt2RWN2aEg0bWVGdFlpSUJ0TlNnZHczUm95NFdSVDdNaFpUN0d2MXgxeUNPeXNETGJ4ckJKdUEzeEFLY2ZVVitTSHdtOE1UK01maVo0WjBpQkM1dUwrSXlZR2RzU3R2bGI4RVZqK0ZmcTNvRWpYR3BCWldNaWxTY01jaXZRenEzdElkN1ArdnpPREpyOGsrMS82L1FrMENSNys4ZU81WnJpTVJsZ3NwM0FISTV3ZnFhcytJVkZoREMxcUJiTXpFRXhEYVNQZkZTZUpVV0N4amFJQ05qSUJsQmc0d2FxZUdTYmllWVMvdkFGR0EvT09hK2JQb2lUdzcveE1QdEgyci9TZG0zYjUzejdjNXpqUDBGTThRc2JDYUpiVW0yVmxKSWlPMEU1NzRwL2lqL1IvczNsZnU4N3M3T005S2s4TWdYRUU1bEFrSVlZTDg0NG9BZm9FYVg5bThseXEzRWdrS2hwUnVJR0J4ay9VMW42NVBKWlg3Ulc4alFSN1Fka1JLalAwRk84U3NZTDZOWWlZMU1ZT0U0R2NtdEx3OUdzMm5CcEZFamJqeXd5YUFIYVBiUlhlblF5enhKTksyY3ZJb1pqeVJ5VFdIcVYzUGJYODhVVTBrVWF0aFVSaUFCN0FVdXVTUERxazZSc1VRYmNLcHdCOG9yb05KaGprMDYzWjBWbUs4bGhrbWdDeGNYRVRRU0FTSVNWT0FHSHBYSDJFTWlYMXN6SXlxSkZKSkhBR1JSRFlYU1RJelcwcXFHQkpLSEFGZFRlM3R2Tlp6eHh6eFBJOGJLcXE0SkpJNEFGQUNhdE5ISnAxd3FPck1WNENuSk5jL29jYnc2cEE4aWxFRzdMTU1BZkthVFRiU2UydjRKWllaSW8xYkxPNmtBRDNKcmMxaTVpdTlPbWlnbFNhVnNZU05nekhrSGdDZ0J2aUdSWnRPS3hzSkczRGhUazFtK0dsTUY5STBvTWFtTWpMOERPUlRkRGdrc3I5WmJpTm9JOXBHK1VGUm42bXREWDVFdjdOSTdabHVKQklHS3hIY1FNSG5BK29vQVo0bUl1SUlCRVJJUXh5RTV4eFVmaGYvUi90UG0vdTg3Y2IrTTlhWjRlVTJFMHJYUU5zcktBREtOb0p6MnpUL0VYL0V3K3ovWmY5SjJidDNrL1B0empHY2ZRMEFSK0pnYmllRXhmdkFGT1NuT09hdCtHbldDeGtXVWlOaklUaHpnNHdLajhQTUxDR1pib2kyWm1CQWxPMGtlMmFyYS9HOS9lSkpiSzF4R0l3cGFJYmdEazhaSDFGQUhoWDdhdndwYjRqK0NaZFcwNjNhNDFmUVZOMUQ1UzdqTENRUE9qNDY4S0hIZk1lQjk2dnoxMGJXTHp3L3E5anFtblR0Ylg5bE9semJ6cjFTUkdESzM0RUN2Mk8wU2FPenNCRmN1a0VtNGtwS1FweDlEWDVvL3RYL0JiL2hVbnhJdUo5TWdJOExhdzdYT25TUmo5M0UzQmtnQkhIeU1lQi9kS2prZzE5UmxHSlRUdzgvbCtxL1g3ejVqTnNNMDFpSWZQOUgvWGtmYmZ3cytKVnY4QUdMd1ZZK0pyU01KTk91eTh0NDhuN1BjS0I1aWZUUEl6MVZsUGV2UHYyMFBnVVBIM2dpejhYNkxBc25pUFJMWUxjd0o5KzV0QUNXQUhkb3lTd0hVZ3VPVHRGZk0zN0tueDlmNEllTzltb1NNZkN1ckZZZFJRQXQ1SkdkazZnYzVVazdnT3FrOEVoYS9RNlNPVFVKV3ZMTld1YldkakxEUEFDeVNJM0tzckRnZ2dnZ2l1REVVNTViaVZPRzNUL0k3NkZTR1k0WndudjEvelB5RUJ5S0srd1Ayb3YyUldzN201OFhlQUlJN20ybC9lMytnVzJQTmhmK0o0RUgzbEo2eGprSDdvSTRYNUFJS3NWSUlZRWdnOVFmU3Zyc1BpS2VKaHp3Zi9BQUQ1UEVZZXBocDhrMS93Uks5WC9aNytBdW8vRzN4SklENWxwNGNzTVBxRjhvd1QzRU1lZXNqZitPams5ZzJkOEZ2Z1o0ZytOZXZDMTAyTTJtbFF0L3BtcVNyKzZoSFhhdlRmSWV5RG5rRTRITmZvL3dERGp3RFlmRGJTTk0wZlNyQnJIVGJNQUYzVEJkdjRwSkd3TXN4NUova0FCWG5aaGoxaDQrenB2MzMrQjZHWDRGNGlYdEtpOTFmaWFQZ3JRclB3d05PMCt3czAwN1RiT1B5b1lZMTJwR29VZ0QvNjU1Sk9Ua212bTM5dEw5cUpOUGp1L2g5NFR2UDlNT1UxZlVvSC93QlFPOXVqRCtNL3huK0VmTDFKMjlmKzJIKzA3QjhOOURmd3A0YXUxbDhWWDBZYWE0aFlNTk9oUEliUC9QUnY0UjJIekgrSGMvOEFadC9aazBmNGNXZGhyZmlmVEV2L0FCVFBHTGlhNTFLUGN0bkl3ejVjWWJJRExuQmY3eE9jRURpdkFvUWhRaXNWaUZlK3k3K2I4ajNhODUxNVBDNGQydHUrM2t2TStKZkIvd0FCL2lCNDhFYjZMNFQxR2Uzays3ZFR4aTNnSTlSSktWVS9nYTloMEQ5Z1h4bmNyRkxybXRhVHBFVG5tTzFMM2s2K3VWQVZQeWMxOTk2L0lsL1pwSGJNdHhJSkF4V0k3aUJnODRIMUZjMmZHbWdlQW1sbDhTNjNwK2dJeWZJZFN1VWczLzdvY2pKOWhXODgyeEZSMnBwTDhYL1h5TUlaVGg2YXZVYmY0TCt2bWVSZkNmOEFZdStIdmhTOVcrMWlHNThSM3NESzhZMVZnTGZkeno1S2dCaDA0Y3NLOTA4U3FyU1FlVUFZMFFqNVB1cVA2VjRUOFVQMjJQaHRwUWpqMG03dlBFMTFGdUJTd3QyU01FNHhtU1RhTWNkVjNWOHAvRnI5cTN4ZjhUN0M1MGVCbDhPK0hMaklsc0xOeXp6ci9kbGxJQllmN0toVk9lUWFpT0R4bU5rcFZicGQzK2lOSll2QjRPTGpTczMyWDZzNnI5cW45cEJ2SFRTZUN2RGQzdThNV3MvbVhkM0MzeTM4d3hnQWpyRXBISFptRzdvRkorYktLNno0YWZERFgvaXg0a2owYlFMVVN5OE5QY3pOc2d0a0orL0kvWWRjRHFjWUFKcjZ1bFRwNFNseXJSTHIrcDhyVnFWTVhWNW5xMy9WajBiOWk3dzVxT3QvdEJlSDcyekJTMjBrVFhkNVBuQ3h4bUY0d0NmVm1jTGowSlBZMStodXF4UEpxTnd5SXpLVzRLaklOY1A4Sy9ncHB2d2Q4TXBvMml4eVg3UHRsdTlURWZ6WGN1MFpiak9GSElWUWVCNmtrbjFyVEx1QzJzSVlwWm80cEZYREk3QUVIM0JyNHJINGxZcXR6UjJXaVBzOEJobmhhUExMZDZzL0g3NGlGRytJZmlveExzaU9yM214ZlFlZStCK1ZjL1cxNDJPZkduaUQvc0kzUC9vMXF4YSs4aHBGSHdzL2lZVVVVVlpJVVVVVUFGRkZGQUJVOWhhTnFGOWJXcUx1ZWVWWWxVZHl4QUEvV29LNno0U2FhZFgrS3ZnMnpDbHhOck5tckJSa2xmUFRQNlpxSnk1WXVYWXFFZWFTajNQMWg4VER6NTRURVBNQVVnN09jYzErZjM3V3Z3ejhhYWg4V2RZMTJIdzFxZDVvYnhXNndYbHBiTk1nVllFRGJ0Z0pURDcvQUwyUDFyOUNQRHpDd2htVzZJdG1aZ1FKVHRKSHRtcTJ2eHZmM2lTV3l0Y1JpTUtXaUc0QTVQR1I5Ulg1L2hNUzhKVTlwRlgwc2ZmNHZETEZVK1J1MnR6OGQ1NEpMVnlrOGJRdUNRVmtVcWNqcjFxYTIweTh2SENXOXBQTzU2TEZHekUvZ0JYN0phSmNKYVdJanVaVmhsM0U3SlcydGo2R3NyVjRyaTYxQ2FTQkpKb1d4aG93V1U4QUhrY2V0ZTEvYmIvNTkvai9BTUE4WCt4ZitubjRmOEUvS3pRL2d0NCs4UmxmN084R2E1T2pmZGxhd2tqalAvQTNBWDlhOWg4RmZzRitQdkVKaWwxdTkwcnd2Yk45OVo1eGMzQ2oyU1A1VDlESUsvUTNUTHVDM3NJWTVwbzRwVlhESTdnRUgzQnJpL0ZXczZmNGMrMFgrclgxdHBkaXpzd3ViMlpZWXlNOVF6RUExenp6aXZQU25GTDhmNis0NklaUlFoclVrMytDL3I1bmszdzEvWlA4SGZEYTRqdTJzcGZFT3J4TmxiN1VrREtoOVk0aDhxK29KM01PelY5SzNkM0FscE96VHhxcXhzU3pPQUFBT1NhK2QvSDM3ZGZ3OThHMm5rYUsxeDR1MUpVQUVka3BpdHcyT2pUT09udWl2WHhoOFZ2Mmp2R0h4WFdTMHU3cGRMMFJ1UDdMc0NWamNmOEFUUnZ2U2R1Q2R2R1Fvck9HQ3hlTWx6MWJwZDMraS80WXVlTnd1RGp5VXRYMlg2di9BSWM5NCtQbjdYdHZwY1UrZytBTHRiblVEbEo5ZGk1amc3RVFIK0ovOXY3by9oeWVWK041Skhta2VTUjJra2Rpek81SlppVGtrazlTVFZqUzlMdmRiMUczMC9UclNlL3ZybHhIRGJXMFpra2tZOUFxamttdnQvOEFacS9aQi80UXJVOU84VWVPYlVUNnRFeXpXK25PdTZDeVljaDVHNlBJRGpHUGxVOC9NY0ZmZWJ3K1YwckxkL2V6dzBzUm1kVzcyL0JGejlpejRCM1BnQm8vR0hpSzFhMjFyVUlTbHRiVEpock8zWVp5MmVrajRYanFxZ0RxekFmVS9pR1JadE9LeHNKRzNEaFRrMDdXTG1LNzA2YUtDVkpwV3hoSTJETWVRZUFLeWREZ2tzcjlaYmlOb0k5cEcrVUZSbjZtdmpxOWVlSXFPcFBkbjE5Q2pIRDAxVGhzaDNocFRCZlNOS0RHcGpJeS9BemtWYjhURVhFRUFpSWtJWTVDYzQ0cCt2eUpmMmFSMnpMY1NDUU1WaU80Z1lQT0I5UlZYdzhwc0pwV3VnYlpXVUFHVWJRVG50bXVjNkIvaGY4QTBmN1Q1djd2TzNHL2pQV28vRXdOeFBDWXYzZ0NuSlRuSE5TZUl2OEFpWWZaL3N2K2s3TjI3eWZuMjV4ak9Qb2FmNGVZV0VNeTNSRnN6TUNCS2RwSTlzMEFTZUduV0N4a1dVaU5qSVRoemc0d0t6ZkVDTk5xTE5HcGtYYU9WR1JVdXZ4dmYzaVNXeXRjUmlNS1dpRzRBNVBHUjlSV2hvYzhkbFlDSzRrV0NUY1RzbElVNCtob0FsME9WSWRMZ1NSMVJ4dXlySEJIekd1ZTFXSjVOUnVHUkdaUzNCVVpCcWJXTGFXNzFHYVdDSjVvbXhoNDFMS2VBT0NLM05NdTRMYXdoaWxtamlrVmNNanNBUWZjR2dCMDJyV2NrVG90d2pNeWtBRHVhNTYwMDI2dHJxR1dXQmtqamRXWmowQUJ5VFN4Nkhld3lMSThHRVVoaWQ2OEFmalczYzZ4WjNkdkxCRk52bGxRb2k3U01rakFISW9BTlExQzN2TE9XQ0NWWkpYR0ZSZXBOWkdsMmMrbjMwVnhjUnREQ21kenQwR1FRUDFORm5wZDFwOTFIY1hFWGx3eG5jemJnY0Q2QTFwNmhxRnZxdG5KYTJzbm16eVkycHRJemdnbms4ZEFhQUUxZTZpMUt6TUZxNG1sTEE3RjY0cWxvc0w2VmRQTGRxWUkyUXFHZm9Ua0hINkdrMDJ6bTBlNkZ4ZHA1TUlCWGRrTnlmWVpxM3F0eEhyZHVzRmszblNxNGNyamJ4Z2pQT1BVVUFOMXQxMWFLSkxRL2FHUWtzRTdDbWFIL3dBU256L3RuK2orWnQyYisrTTUvbUticE1iYUhKSkplanlFa0cxVDk3Si9ETk8xZi9pZStWOWgvZjhBbFozL0FNT000eDF4NkdnQm10bzJyU3h2YUEzQ291R0tkalZqUlprMHExZUs3WVFTTTVZSy9VakFHZjBOTTBtUmREamtqdlQ1RHlIY28rOWtmaG1vZFZ0NU5idUZuc2w4NkpVQ0ZzN2VjazQ1eDZpZ0NQVjdhWFVyd3oycUdhSWdEZXZUTmMxOFVQaHBvbnhXK0dsMTRVMXgxdFp5RExiWEJYTDJrNEpLU0Q4OEVkMVpoM3JzOU12SWRIdFJiM2IrVE1DVzI0TGNIM0dhbzZocDl4cXQ1SmRXc2Ztd1NZMnZ1QXpnQUhnODlRYXVFcFFrcFJkbWlaeGpPTGpKWFRQeVQ4YitDdFYrSG5paSswRFdvUEl2N1I5cmJUbEpGUEt5SWU2c09RZnp3Y2l2b245bEQ5cmh2aHFMZndqNHdta204TE0yMnp2K1hmVGlUOTFoMWFMNmNyMnlPQjlML0gzNEVlSHZqVjRVZ3RMdWROSzhWYWNoV3kxRVJsdHZPVEZKZ2ZOR2Z6VThqdUQrY1BqandIcnZ3NDhRVGFMNGhzSk5Qdm94dlVOeWtxSHBKRzNSbFBZajZIQkJGZlowYTFITTZQczZueGR2MVI4YldvMXN0cSswcC9EMy9SbjZzV2tSMXEyanY5UEtYdGxjanpZYmkzY1BISXA1REt3T0NLaDhVZkM3NGIrTXI1Ny9BRmZ3dG9XcDZrMlQ5cG5zbzJsYzl0ell5MzQ1cjgwUGhmOEFIM3h6OEgzMmVHOWJraHNDeFo5TnVsRTFxNVBVK1czM1NlNVFxVDYxN0RwMzdldXYyOGNadS9DZW0zTTZrRXZCZFNRb2YrQWtPZjFyeUo1VmlhVXIwWGY1Mlo2ME0wdzFXTnF5dDhybysxdEU4T0RRRXM0TFhUNDlQMCsyWmRzTUVTeHh4S0RrNFZlQVBwWG5IN1RYN1VtaWZDWFFaOUowcWFIVmZGOTNIaUcwVTdrdFFla3MzcGpxRTZ0eDBHVFh5eDhRUDI2dmlONHlzNXJMVFRaZUZyU1ZTck5wMFphNElQVWVhNU9QcW9VKzlmTzl4Y1MzVThzOXhLODAwakY1SlpXTE03RTVMTVR5U2ZVMTBZWEtKYzNQaUg4djh6bnhPYlI1ZVREcjUvNUZ1LzF5L3dCVTFtYlY3MjRlKzFLYWI3UkxQY0hjWkpNNXkzNDErdC9oL3dBZGFWOFVmQTJtYTFvVTYzVUYvRXN5eHFjdEdmNDBiMFpXeXBIcURYNU1hejRTMXJ3N1k2WmU2cHBkMXA5cnFjUm1zcGJpSW9zNkE4c3VmcUQ5R1U5Q0NldytEWHg2OFZmQkRXRGRhSGNKY1dFclp1ZEx1OHRiemNBRTRCeWo0QStaY0hnWnlCaXZSeCtEK3VVMDZiMWp0MjlEenNEaS9xbFJxb3RIdjM5VDlDL2lIOEpwZmlEcFAyU2Z4THIzaEJsVmdsMXBGNDBLeUU0K1NWQWNTTHdlT0Q3MThuZUt2MkNQR2NGNU5Ob092NlQ0bVZtTE0wcGt0cmh2Y3FReS9tOWU1K0dmMjMvQUhqM1RJTGZWWG44SjZwdkJhRytVeVFFNE9kc3lqR09lcmhLOWg4RCtOUEQrcUI3alQ5ZDB6VTRaQUZWckM4anVPZXVENVpPT1BXdm5ZVnNaZ1BkdFplYTArLzhBNEo5RE9qaE1kNzE3dnlldjNmOEFBUHp4dmYyTy9pN1l5Ylg4SmdxVGhYR3AyWURmVE1vUDZWZTBUOWlyNHI2eStHMGF6MDlRY0dTNjFDSjFYNitVWFA2VitqK3NLMnQrVDlpQm04ck8vSTI0empIWEhvYU5MbVRRSUpSZnNMZmNkd0o1R0IxT1JtdDNuT0lhMlgzUC9NeC9zZkRyVzcrOWY1SHlEOFBQMkFOUHRKVW44ZmVKV1pnMmY3TjBsREdyRDNtY1pJUFRBUlR4d2ErbU5DK0h1amVEdE9pMHp3bHBFR242UkdCaExWZnZOamxuWS9NN2VyTVNUNjF6M3hKK1BQdys4TXpHYSs4VzZadWlRSzF2YnpDZTRCeWVQS1RMOXh6akZmTlB4Ti9iejFTNDArWFNQQUZrMmt3a3NHMWkrUld1Q0QvenpqNVZQcTI0NDdLYXo1TWJtRDk2OXZ1UnB6NExBTDNiWCs5bjJVUGlGNGQ4TDZubzNoclU5V3Q3Ylg5UloxdDlPenVtWUJYa0xGUmtxdTFUOHh3TThaenhVbC9ZWEY1ZVN6d3hOSkU3WlYxNkVWK2JuN05OL2Y4QWlMOXBUd3RlWDExUHFHbzNkeGN2TGNYTXBlU1Z6YXpjc3pISlAxcjlPN0xWTFhUN1dPM3VKZkxtakcxbDJrNFAxQXJteHVGV0VuR0Y3M1Yvek9qQllwNHVFcHRXczdmZ2o4ZS9HWXg0eDE4SHIvYUZ4LzZOYXNldHJ4dVZQalh4RHRPNWY3U3VjSEdNL3ZXckZyNzJId28rRWw4VENpaWlySkNpaWlnQW9vb29BSzlaL1pSc1V2OEE5b2Z3U2twQWpqdXBMaG1QUWVYQkpJUDFRVjVOWHY4QSt4RG9FMnVmRzhTUXhpUjdEUzdpNjU0eGtwRjM3L3ZhNU1YTGx3OVIrVE9yQ1I1c1JCZWEvTS9SRFcwYlZwb21zeDU2b3VHS2RqWDVzYXIrMDk4Uy9EZmpYeEMraStMNzYzc24xTzVlSzJtMlhNVWFHVnRxcXNxc0FvR0FBTVlBNHI5SUgxU1B3Wm9tcFhlb1loRUVMM09EeUNxS1NlUm5IU3Z4Mk1qdXBra0phUS9NeFBVbnZYenVUMFlWUGFPYVRXbS96UG9jM3F6cDhpZzJ0OXZrZTN5L3RsL0ZXNGJmTnJkck5Kakc5dE9nQlA1SlRKUDJ5L2k4WVBKaDhWcmF4ODRFT20ydkhPZUNZaWE3Ny9oMy93Q0k0RVJidnhicEZyY0VBdENZWm4yLzhDQTVxMWEvOEU4ZkVsemh4NHIwNW9EOTJXSzFkcyt2RE1wOWZ5cjBmYlphdWtmdS93Q0FlZjdITW4xbDkvOEF3VHdmV2ZqeDhSZGZkMnZmR3V0c1hPV0VGNDhDbi9nTVpVZnBYRlh0OWM2bmNtNXZMaVc3dUNNR2FkeTdrZjd4NXI3TjBqL2duem85dExqWFBIOXk3RGg0TExTeEV5bi9BSDJrY0g4cTlFOFAvc1EvRDdSV1dRNlJlYStvNWptMU8rUHpEc1NzWmpYcDJLMFBNc0hTL2hyN2xiL0lGbHVNcS94UHhkLzh6ODdiTzBuMUM3aXRiV0NXNnVwVHRqZ2dRdkk1OUZVY2svU3ZldmhaK3hwNHk4ZFN4WEd1dEg0UTBvOGxyNWQxM0lQUllBUVZQYjk0Vnh3Y0d2MEQ4SmVIdkJ2Z08xK3o2RG8rbTZIbFFzb3NMSllpNUF4OHhWY3NmY2swc2VoM3NNaXlQQmhGSVluZXZBSDQxNTFmT1p5VnFNYmViMS9yOFQwS09Ud2k3MVpYOGxwL1g0SENmQ2I0QytIL0FJT3BDZEgwa3JjZ2o3UnFsMEE5eklvSUp5K1BsWGdIYW9DOFp4bm12VnRRMUMzdkxPV0NDVlpKWEdGUmVwTkZ6ckZuZDI4c0VVMitXVkNpTHRJeVNNQWNpc2l6MHU2MCs2anVMaUx5NFl6dVp0d09COUFhK2ZuT1ZTWE5OM1o3OElScHg1WUt5RFM3T2ZUNzZLNHVJMmhoVE81MjZESUlINm10TFY3cUxVck13V3JpYVVzRHNYcmlsMURVTGZWYk9TMXRaUE5ua3h0VGFSbkJCUEo0NkExUTAyem0wZTZGeGRwNU1JQlhka055ZllacUN4ZEZoZlNycDVidFRCR3lGUXo5Q2NnNC9RMVkxdDExYUtKTFEvYUdRa3NFN0NuYXJjUjYzYnJCWk41MHF1SEs0MjhZSXp6ajFGUWFURzJoeVNTWG84aEpCdFUvZXlmd3pRQTdRLzhBaVUrZjlzLzBmek51emYzeG5QOEFNVXpXMGJWcFkzdEFiaFVYREZPeHArci9BUEU5OHI3RCsvOEFLenYvQUljWnhqcmowTk8wbVJkRGpranZUNUR5SGNvKzlrZmhtZ0IraXpKcFZxOFYyd2drWnl3VitwR0FNL29hcGF2YlM2bGVHZTFRelJFQWIxNlpxVFZiZVRXN2haN0pmT2lWQWhiTzNuSk9PY2VvcTFwbDVEbzlxTGU3ZnlaZ1MyM0JiZys0elFCTHBkN0JwOWpGYjNFZ2htVE81RzZqSkpINkdzZS9zTGk4dkpaNFlta2lkc3E2OUNLbDFEVDdqVmJ5UzZ0WS9OZ2t4dGZjQm5BQVBCNTZnMXAyV3FXdW4yc2R2Y1MrWE5HTnJMdEp3ZnFCUUFTZUliU1pHalV2dWNGUmxlNXJMZzBPNnNwbzdpVlZFY1RDUnNOazRCeWFjdmhxNmdZU3RKRVZRN2lBVG5BL0NyMG12MjkvRzF0R2tva21CalVzQmdFOERQUHZRQXQxcTl2cVZ1OXJDV01zbzJxR0dCbXFObnBzK2ozS1hkd0FJWTg3aXB5ZVJnZnFhV0hSWjlLbFc3bGVObzRqdVlJU1NSN1pGV3JqVll0YmhheWdWMGxsNkdRQUx4enpnbjBvQUw2K2kxdUQ3TGE1TXBJYkREQXdLcjZmYlBvRXpYRjJBSTJYeXhzT1Rra0graG90dFBrMENVWGR3eXZHQnR4RVNUay9YRlMzZDBuaU9NVzFzR1NSRDVoTXZBd09PMmZVVUFHb1NyNGdSSTdUTE5HZHpiK09LYnAzL0ZQZVo5cytYenNiTm56ZE01L21LUzBpUGhwbWx1aUpGbEcwQ0xrNTk4NHBidjhBNHFiWjlsL2QrUm5kNTNHYzlNWXo2R2dCdW9SdDRnZEpMVDVsakcxdC9ITlM2ZmNwb0VMVzkza1NNM21EWU1qQkFIOURUYlNVZUdsYUs2QmthVTdnWXVSajN6aW1YZHEvaU9RWE5zVlNOQjVaRXZCeU9lMmZVVUFNdnJHWFc3ZzNWcUFZaUF1V09Ea1ZiczlUZzBlMlMwdUN3bWp6dUNqSTVPUitocGx0cUVlZ1JmWkxoV2VRSGRtSUFqQit1S2d1TktsMXVacjJCa1NLWG9KQ1EzSEhPQWZTZ0NPNTBpNDFLZDdxQUtZcFR1VXNjSEZaSGozd1o0UCtKSGgxTkM4V2FWSHFVVUkycXhVaVNCd01GbzVCaGxQSFVIbm9jaml1a2cxcURTb2x0SlVrYVNJYldLQUVFKzJUVlNUUUxpL2thNWplSVJ6RXlLR0p5QWVSbmozcW95Y0h6UmRtVEtLa3VXU3VqNDE4Yy84QUJQTFdFbGx1ZkJ1dTI5emJOOHlXZXNIeTVBT3dFcUtReCtxcjlhOGd1djJSZmlyQmNlVkY0Ymp1eG5Ba2gxRzFDbjZicEZQNWl2MDJUeExhd0tJbWpsTElOcElBeGtmalZGZkRWMUF3bGFTSXFoM0VBbk9CK0ZldlR6YkV3Vm5aK3EveXNlUlBLY05OM1YxNlAvTzU4QmFCK3daOFRkU1lQcWk2WG9Gc28zU1BjM1lta1ZlNUN4QmdUN2JoOWEraGZoTCt4LzREOEJTUjNkN0pMNHQ4UWdmdXBiK0VKYXhQL2VTSGtaOTNMWTZqQnI2R2sxKzN2NDJ0bzBsRWt3TWFsZ01BbmdaNTk2cHc2TFBwVXEzY3J4dEhFZHpCQ1NTUGJJckd0bVdJckxsYnN2TCtybTFITHNQUmZNbGQrWnpYamI0VTZSNDYwR2JUUEZsaEhlNlV4M0VodjNrVDRJV1NOaHlyQW5xT3hJT1FTRDhUZkZMOWlyeFA0YXZKcm53WTcrTHRKNWRZUUJIZlJMNk1uQWt4eHluSi91Q3YwSXVOVmkxdUZyS0JYU1dYb1pBQXZIUE9DZlNxOXRwOG1nU2k3dUdWNHdOdUlpU2NuNjRyTERZMnRoWDdqMDdQWTF4T0RwWXBlK3RlL1UvSHZWTkt2ZER2NUxIVXJPNDA2OWorL2JYY1RSU3A5VllBajhxcU1pc2NsUVQ3aXYyQzhUYUhvbnhLdEYwKy93QklzdFRTTStZRTFTMWptUURvY0JnM1BJL0t2THRhL1pEK0ZVbVpOUzhMUndtVGhHMHk3bmgybi9kRGhmMHIzNmVkVTMvRWcxNmEvd0NSNE5USnFpK0NTZnJwL21mbTFEcTkvYngrWEZlM01jZjl4SldBL0xOVjdtZVM4SU54STg1SFF5c1cvblg2RHkvc0tmRFRYSFk2YSt1V1NvUnZVM3k0NXpqRzZOejY5ZmFyRVA3RVB3czBSZ3VwMnVyWHpOOHk0MUJnTWVoMmhLMy9BTFh3eTFzL3VNUDdKeEwwMCs4L08wQUFlZ3JiMDN3VDRnMWZSTDNXYlBSYjY0MGV5VHpMalVFZ2I3UEV1Y2N5WTI1OXM1cjlMUERuN00zdzMwcDF1ZEI4SDZiR0kvbDNha0d1NUF3NXlES1h4MUhJSXFUOW9meTdEOW4vQU1jYVhLRDVxNlZNNm1QN2d3TndIL2p2cFdQOXNSbk9NS2NOMnR6Yit5SlFoS2RTV3k2SHdWK3l0ZEN5L2FHOEVUTWNLdDNKayt4Z2xCL25YNlozT2tYR3BUdmRRQlRGS2R5bGpnNHI4d1AyYklUY2ZIYndYRXBBWjc4S0MzVDdqVitwa0d0UWFWRXRwS2tqU1JEYXhRQWduMnlhNGM2L2pSOVAxWjNaTi9CbDYvb2o4aVBpQ3V6NGdlS1Z4akdyWFl3UCt1NzFnVjBmeEtVTDhTZkZ3QUtnYXplZ0J1by9mdlhPVjliVCtCZWg4cFA0bUZGRkZXUUZGRkZBQlJSUlFBVjljZjhBQk82S0cxOFcrTXRVbXlCQlkyOXNDQm4vQUZrak4vN1JyNUhyN2gvNEovZUY1YjN3TjRxMUdMWWhsMUtPM0xPU01pT0lNTWY5L1RYbDVuTGx3c3ZPMzVucDViSG14VWZLL3dDUjduKzBUckNyOEd2R21wVzdiVWgwZTVnM053UThpRkZ4K0xDdnkyMGlFWEdyV1VSQkllZEZJSGZMQ3YwWS9iRXZHOE0vczdlSkxHUmxNK296V2tVYkllTUM0alpoejMybzFmbjc4T3JCdFYrSWZoV3hUNzkxcTFwQU0rclRJdjhBV3VIS0Z5NGVjL1A4a2R1YlBteEVJZVg1cy9XeS9zSmRadVd1YllBeGZkK1k0T1IxcTFaNm5CbzlzbHBjRmhOSG5jRkdSeWNqOURUYmJVSTlCait5WEFaNVFkeE1RQkhQMXhWZTQwcVhXNW12WUdSSXBlZ2tKRGNjYzRCOUsrUlByU081MGk0MUtkN3FBS1lwVHVVc2NIRmFVR3VXdGxESGJ5bGhKRW9qYkM1R1FNR29vTmFnMHFKYlNWSkdraUcxaWdCQlB0azFVazBDNHY1R3VZM2lFY3hNaWhpY2dIa1o0OTZBSW44UDNrenRJcXB0YzdobHV4cldrOFEya3lOR3BmYzRLaks5elVhZUpiV0JSRTBjcFpCdEpBR01qOGFvcjRhdW9HRXJTUkZVTzRnRTV3UHdvQWJCb2QxWlRSM0VxcUk0bUVqWWJKd0RrMW8zV3IyK3BXNzJzSll5eWphb1lZR2FTVFg3ZS9qYTJqU1VTVEF4cVdBd0NlQm5uM3FuRG9zK2xTcmR5dkcwY1IzTUVKSkk5c2lnQkxQVFo5SHVVdTdnQVF4NTNGVGs4akEvVTFidnI2TFc0UHN0cmt5a2hzTU1EQW91TlZpMXVGcktCWFNXWG9aQUF2SFBPQ2ZTcTl0cDhtZ1NpN3VHVjR3TnVJaVNjbjY0b0FOUHRuMENacmk3QUViTDVZMkhKeVNEL1ExTHFFcStJRVNPMHl6Um5jMi9qaWk3dWs4UnhpMnRneVNJZk1KbDRHQngyejZpbVdrUjhOTTB0MFJJc28yZ1JjblB2bkZBQzZkL3hUM21mYlBsODdHelo4M1RPZjVpbTZoRzNpQjBrdFBtV01iVzM4YzA2Ny80cWJaOWwvZCtSbmQ1M0djOU1ZejZHbHRKUjRhVm9yb0dScFR1Qmk1R1BmT0tBSGFmY3BvRUxXOTNrU00zbURZTWpCQUg5RFZlK3NaZGJ1RGRXb0JpSUM1WTRPUlQ3dTFmeEhJTG0yS3BHZzhzaVhnNUhQYlBxS2x0dFFqMENMN0pjS3p5QTdzeEFFWVAxeFFBK3oxT0RSN1pMUzRMQ2FQTzRLTWprNUg2R3FOenBGeHFVNzNVQVV4U25jcFk0T0trdU5LbDF1WnIyQmtTS1hvSkNRM0hIT0FmU3JNR3RRYVZFdHBLa2pTUkRheFFBZ24yeWFBRVBpYUs0QmlFRGd2OHVTUnhtb0Y4UFNXREM2YVZYV0UrWVZBT1NCemo5S2YvQU1JdjluL2UvYWQyejVzZVhqT09mV2ovQUlTTCswUDlGK3orWDUvN3Jmdnp0enhuR1BlZ0I3NjJtckliTkltamFiNVF6SGdWRkhwTDZHNHZaSkZsU0xxaWpCT2VQNjA3K3cvN0ovMHp6L044bjV0bXpibjhjMGYydi9iditnK1Y1SG0vOHROMjdHT2VtQjZVQU9sMUJmRUMvWkkwTVRINXR6SEk0cGtWbzNocGpkU3NKbGNlWHRUZzVQT2YwcGY3Ty80UjMvVFBNKzBZK1hadDI5ZmZtajdYL3dBSk4vb3V6N05zL2U3ODc4NDR4amoxb0FXYVllSmdJb2g1SmkrWWwrYzBrUDhBeFRHZk4vZitmMDJjWTIvL0FLNlBKLzRSZjk3bjdUNXZ5NHhzeGpuM28vNUduL3AxOGovZ2U3ZCtXT2xBQkxFZkV4RXNSRUlpK1VoK2Mwc1YyUERTbTFsVXpNNTh6Y25Bd2VNZnBTZWQvd0FJdis2eDlwODM1czUyWXh4NzBmWlArRW0vMHJmOW0yZnV0bU4rY2M1eng2MEFOazA5dkVEL0FHeU54RXArWGEzSjRxU1BWazBOQlpTUm1WNHVycWNBNTUvclRmN1Ivd0NFZC8wUHkvdEdQbTM3dHZYMjVvL3NqKzNmOU84M3lQTi81WjdkMk1jZGNqMG9BWStpU2FzeHUwa1dOWnZtQ3NPUlV5K0lZN0JSYXRDenRDUExMQThFampQNlV6KzNQN0ovMFB5UE44bjVkKy9ibjhNVWY4STcvYUgrbGZhUEw4Lzk3czJaMjU1eG5QdlFCR2ZETXR3Zk5FeUFQOHdCQjR6VmcrSm9yZ0dJUU9DL3k1SkhHYWovQU9Fbyt6L3V2czI3Wjh1Zk14bkhIcFIvd2kvMmY5NzlwM2JQbXg1ZU00NTlhQUdMNGVrc0dGMDBxdXNKOHdxQWNrRG5INlZNK3RwcXlHelNKbzJtK1VNeDRGTS80U0wrMFA4QVJmcy9sK2YrNjM3ODdjOFp4ajNvL3NQK3lmOEFUUFA4M3lmbTJiTnVmeHpRQTJQU1gwTnhleVNMS2tYVkZHQ2M4ZjFxU1hVRjhRTDlralF4TWZtM01jamltLzJ2L2J2K2crVjVIbS84dE4yN0dPZW1CNlVmMmQvd2p2OEFwbm1mYU1mTHMyN2V2dnpRQWtWbzNocGpkU3NKbGNlWHRUZzVQT2YwcDAwdzhUQVJSRHlURjh4TDg1cFB0ZjhBd2szK2k3UHMyejk3dnp2empqR09QV2p5ZitFWC9lNSswK2I4dU1iTVk1OTZBQ0gvQUlwalBtL3YvUDZiT01iZi93QmRFc1I4VEVTeEVRaUw1U0g1elIveU5QOEEwNitSL3dBRDNidnl4MG84Ny9oRi93QjFqN1Q1dnpaenN4amozb0FXSzdIaHBUYXlxWm1jK1p1VGdZUEdQMHJoUGp4Wk5yZndZOGUzOFpFYUxvVjc4amNuNVlISnJ1dnNuL0NUZjZWdit6YlAzV3pHL09PYzU0OWE1VDR0azJmd3A4YTZNSS90Qm4wUytRT0R0eVd0M0dNZi9YcldrN1ZJdnpSbFZWNmNsNU0vTnI5bnU5L3M3NDQrQnAvVFY3ZGYrK25DL3dCYS9VMTlFazFaamRwSXNhemZNRlljaXZ5aStERW5sL0dEd0tkMndIWHJCUzJNNEJ1RUIvUTErc0g5dWYyVC9vZmtlYjVQeTc5KzNQNFlyM2M2WDcyRDhqdzhtZjd1YTh6OGx2aW9oaitLWGpOVDFYWEw0SC93SWtybDY3YjQzd0dENHplT2dWS2I5Y3ZaUXA3QnAzWWZvYTRtdnFhVHZUaS9KSHk5VlduSmViQ2lpaXRUTUtLS0tBQ2lpaWdBcjlIUDJKSUI0WCtBT21Ycng3aHE5NWRYR0Y0STJTbUxKK29qRmZuSFg2bmZzNzZBSlBnYjRIc1FSYkdEU29aMklHN2MwNithZU9NY3NmenJ3TTVsYWhHUGRudTVQRzllVXV5L1ZIa1gvQlFMeEt0MThOUEQ5cEdHaWE0MVlNVkorOGtjTW1mMWtTdmxEOW5xMVc3K09YZ1pXVXNJOVdndU1MMS9kdDVuL3NsZThmOEFCUXh2c091K0NkSkV2bWVUYlhWMDNHUDlZMFNqalA4QTB5UDUxNWgreHZvTGEvOEF0Q2VIRUhDVzBkMWNPY1p3QmJ5S0QvMzA2MDhJdlo1YzVlVW4rWXNXL2FaZ28rY1YrUitra21udDRnZjdaRzRpVS9MdGJrOFZKSHF5YUdnc3BJeks4WFYxT0FjOC93QmFiL2FQL0NPLzZINWYyakh6YjkyM3I3YzBmMlIvYnY4QXAzbStSNXYvQUN6MjdzWTQ2NUhwWHhwOWlNZlJKTldZM2FTTEdzM3pCV0hJcVpmRU1kZ290V2haMmhIbGxnZUNSeG45S1ovYm45ay82SDVIbStUOHUvZnR6K0dLUCtFZC90RC9BRXI3UjVmbi92ZG16TzNQT001OTZBSXo0Wmx1RDVvbVFCL21BSVBHYXNIeE5GY0F4Q0J3WCtYSkk0elVmL0NVZlovM1gyYmRzK1hQbVl6amowby80UmY3UCs5KzA3dG56WTh2R2NjK3RBREY4UFNXREM2YVZYV0UrWVZBT1NCemo5S21mVzAxWkRacEUwYlRmS0dZOENtZjhKRi9hSCtpL1ovTDgvOEFkYjkrZHVlTTR4NzBmMkgvQUdUL0FLWjUvbStUODJ6WnR6K09hQUd4NlMraHVMMlNSWlVpNm9vd1Ruait0U1M2Z3ZpQmZza2FHSmo4MjVqa2NVMysxLzdkL3dCQjhyeVBOLzVhYnQyTWM5TUQwby9zNy9oSGY5TTh6N1JqNWRtM2IxOSthQUVpdEc4Tk1icVZoTXJqeTlxY0hKNXorbE9tbUhpWUNLSWVTWXZtSmZuTko5ci9BT0VtL3dCRjJmWnRuNzNmbmZuSEdNY2V0SGsvOEl2Kzl6OXA4MzVjWTJZeHo3MEFFUDhBeFRHZk4vZitmMDJjWTIvL0FLNkpZajRtSWxpSWhFWHlrUHptai9rYWYrblh5UDhBZ2U3ZCtXT2xIbmY4SXY4QXVzZmFmTitiT2RtTWNlOUFDeFhZOE5LYldWVE16bnpOeWNEQjR4K2xNazA5dkVEL0FHeU54RXArWGEzSjRwMzJUL2hKdjlLMy9adG43clpqZm5IT2M4ZXRIOW8vOEk3L0FLSDVmMmpIemI5MjNyN2MwQU9qMVpORFFXVWtabGVMcTZuQU9lZjYxRStpU2FzeHUwa1dOWnZtQ3NPUlQvN0kvdDMvQUU3emZJODMvbG50M1l4eDF5UFNqKzNQN0ovMFB5UE44bjVkKy9ibjhNVUFSanhOTGNIeWpDZ0QvS1NDZU0xTzNoNk93VTNTek03UWp6QXBIQkk1eCtsU1A0YXRZRk1xeVNsa0c0QWtZeVB3cWxIcjl4ZnlMYlNKRUk1aUkyS2c1QVBCeHo3MEFQVFc1TldZV2p4ckdzM3lsbFBJcVdUU1UwTkRleHlHVjR1aU1NQTU0L3JUNTlGZzBxSnJ1SjVHa2lHNVE1QkJQdmdWV3Q5VmwxdVpiS2RVU0tYcVl3UTNIUEdTZlNnQjBlb040Z2Y3SElnaVUvTnVYazhVK1cwSGhwUmRSTVptYytYdGZnWVBPZjBwMXpwOGVnUmZhN2RtZVFIYmlVZ2pCK21LaXRicC9FY2h0cmtLa2FEekFZdURrY2Q4K3BvQWRGS2ZFeE1Vb0VJaStZRk9jMFRmOFV4anl2My9BSi9YZnhqYi93RHJwYnVJZUdsV1cxSmthVTdTSmVSajJ4aWt0UDhBaXB0LzJyOTM1R052azhaejF6blBvS0FGaGhIaVlHV1UrU1l2bEFUbk5ObHUyOE5NTFdKUk1yanpOejhISjR4K2xGM0tmRFRMRmFnU0xLTnhNdkp6N1l4VDdXMVR4SEdibTVMSkloOHNDTGdZSFBmUHFhQUNMVDE4UUw5cmtjeE1mbDJxTWppbzVOV2ZRM05sSEdzcVJkSFk0Snp6L1drdWRRazBDVTJsdXF2R0J1ektDVGsvVEZXTGZTb3RiaFc5blowbGw2aU1nTHh4eGtIMG9BYW1pSnF5QzhlVm8ybStZcW80RlF0NGhrc0dOcXNTdXNKOHNNU2NrRGpQNlUyYldwOUtsYTBpU05vNGp0VXVDU1I3NE5YSTlBdDcrTmJtUjVSSk1CSXdVakFKNU9PUGVnQmc4TXhYQUVwbmNGL213QU9NMVhIaWFXNFBsR0ZBSCtVa0U4WnBqZUpicUJqRXNjUlZEdEJJT2NEOGF2UDRhdFlGTXF5U2xrRzRBa1l5UHdvQWpidzlIWUticFptZG9SNWdVamdrYzQvU29VMXVUVm1GbzhheHJOOHBaVHlLWkhyOXhmeUxiU0pFSTVpSTJLZzVBUEJ4ejcxYm4wV0RTb211NG5rYVNJYmxEa0VFKytCUUF5VFNVME5EZXh5R1Y0dWlNTUE1NC9yVWNlb040Z2Y3SElnaVUvTnVYazhVMjMxV1hXNWxzcDFSSXBlcGpCRGNjOFpKOUtudWRQajBDTDdYYnN6eUE3Y1NrRVlQMHhRQTJXMEhocFJkUk1abWMrWHRmZ1lQT2YwcElwVDRtSmlsQWhFWHpBcHptbTJ0MC9pT1EyMXlGU05CNWdNWEJ5T08rZlUwKzdpSGhwVmx0U1pHbE8waVhrWTlzWW9BU2IvaW1NZVYrLzhBUDY3K01iZi9BTmRMRENQRXdNc3A4a3hmS0FuT2FTMC80cWJmOXEvZCtSamI1UEdjOWM1ejZDa3U1VDRhWllyVUNSWlJ1Smw1T2ZiR0tBQ1c3Yncwd3RZbEV5dVBNM1B3Y25qSDZWRGU2SEg0dzB5Nk03bUw3UkU4REtuVEJCSDlhczJ0cW5pT00zTnlXU1JENVlFWEF3T2UrZlUxRmM2aEpvRXB0TGRWZU1EZG1VRW5KK21LTmczUHlLOEQzVGFUNHk4UFhUNVZyVFViYVp2VUZKVlkvd0FxL1h4ZENUVkI5cWVWa2VYNWlxaklGZmtSNC9zbTBIeDc0bXM0eDViV1dxWFVLQmVNYkptVVkvS3YxbXRQRlVqV2tEMnFSdGJTUnJKR1hCSjJzQXd6eVBXdnBjNTk1VTVycmY4QVErYXliM2ZhUWZTMzZuNW9mdFVhZi9aZjdRZmpXMkhSYnFOd2ZYZEJHMmZ4M1pyeXF2ZXYyM05NTmo4ZTcyNllFSFU5UHRMMzI1ajhzNDlzeG12QmEraHdrdWJEMDM1TDhqd01VdVd2TmViL0FEQ2lpaXVvNWdvb29vQUtLS0tBSFJ3eVhNaXd4S1dsa0lSRkhjbmdDdjJGMCt3WHdGcFZqWTIySm8wZ1NBYmhnQVJxRkdNZld2eXMrQ3VodDRqK0x2ZzZ3RWZtcStxMjhzaUh2SEc0a2svOGNScS9WMjAvNHFiZjlxL2QrUmpiNVBHYzljNXo2Q3ZsYzduNzBJZXJQcU1saDdzNStpUHowL2JvOFRQNGkrTjZ4TmhScDJsVzlxVVU4QWt2TG42a1NyK1FyWi9ZQ3RqYi9FenhCckFqRW90TkorempkMFZwWlVJUDF4RXcvRTE1TCswWHJDYTU4Yy9HMXpHNWVPUFVwTFJXSnprUVloQi84aDE5WS84QUJQNzRlb1BodnIzaUc1OHlOdFYxQVFSYlRqZEZBcEFQL2Zja28vNERYWmlIN0RMbEhxMGw5Ky82bkhoMTdmTUhMcGR2N3R2MFBwMkxUMThRTDlya2N4TWZsMnFNamlvNU5XZlEzTmxIR3NxUmRIWTRKenovQUZwTG5VSk5BbE5wYnFyeGdic3lnazVQMHhWaTMwcUxXNFZ2WjJkSlplb2pJQzhjY1pCOUsrTlBzUnFhSW1ySUx4NVdqYWI1aXFqZ1ZDM2lHU3dZMnF4SzZ3bnl3eEp5UU9NL3BUWnRhbjBxVnJTSkkyamlPMVM0SkpIdmcxY2owQzN2NDF1WkhsRWt3RWpCU01Bbms0NDk2QUdEd3pGY0FTbWR3WCtiQUE0elZjZUpwYmcrVVlVQWY1U1FUeG1tTjRsdW9HTVN4eEZVTzBFZzV3UHhxOC9ocTFnVXlySktXUWJnQ1JqSS9DZ0NOdkQwZGdwdWxtWjJoSG1CU09DUnpqOUtoVFc1TldZV2p4ckdzM3lsbFBJcGtldjNGL0l0dElrUWptSWpZcURrQThISFB2VnVmUllOS2lhN2llUnBJaHVVT1FRVDc0RkFESk5KVFEwTjdISVpYaTZJd3dEbmordFJ4NmczaUIvc2NpQ0pUODI1ZVR4VGJmVlpkYm1XeW5WRWlsNm1NRU54enhrbjBxZTUwK1BRSXZ0ZHV6UElEdHhLUVJnL1RGQURaYlFlR2xGMUV4bVp6NWUxK0JnODUvU2tpbFBpWW1LVUNFUmZNQ25PYWJhM1QrSTVEYlhJVkkwSG1BeGNISTQ3NTlUVDd1SWVHbFdXMUprYVU3U0plUmoyeGlnQkp2OEFpbU1lVisvOC9ydjR4dC8vQUYwc01JOFRBeXlueVRGOG9DYzVwTFQvQUlxYmY5cS9kK1JqYjVQR2M5YzV6NkNrdTVUNGFaWXJVQ1JaUnVKbDVPZmJHS0FDVzdidzB3dFlsRXl1UE0zUHdjbmpINlUrTFQxOFFMOXJrY3hNZmwycU1qaWkxdFU4UnhtNXVTeVNJZkxBaTRHQnozejZtb3JuVUpOQWxOcGJxcnhnYnN5Z2s1UDB4UUFzbXJQb2JteWpqV1ZJdWpzY0U1NS9yVXFhSW1ySUx4NVdqYWI1aXFqZ1U2MzBxTFc0VnZaMmRKWmVvaklDOGNjWkI5S3F6YTFQcFVyV2tTUnRIRWRxbHdTU1BmQm9BaFR4QmVUT3NiTW0xenRPRjdHdFdmUTdXeWhrdUlnd2tpVXlMbHNqSUdSVXN1aDJVTWJ5SkJoMUJZSGUzQkg0MWlXMnNYbDNjUlFTemI0cFhDT3UwRElKd1J3S0FKTGJWN2pVcDB0WnlwaWxPMWdvd2NWZXZOTWcwZTJlN3R3d21qeHRMSEk1T0QraHFXOTB1MTArMWt1TGVMeTVveHVWdHhPRDlDYXpOUDFDNDFXOGp0YnFUellKTTdrMmdad0NSeU9lb0ZBRDdHK2wxdTRGcmRFR0lndGhSZzVGV05RdGswQ0ZiaTB5SkdieXp2T1JnZ24rZ3ArcDJjT2oycHVMUlBKbUJDN3NsdUQ3SE5WZEt1Sk5idUdndlc4NkpVTGhjYmVjZ1o0eDZtZ0IybnlONGdkNDd2NWxqRzVkbkhOTzFIL2ludkwreC9MNTJkKy81dW1NZnpOTzFhTmREamprc2g1RHlFcXgrOWtmam1tNlIveFBmTiszZnY4QXlzYlA0Y1p6bnBqMEZBRHRQaVh4QWp5WGVXYU03VjJjY1ZGcUZ5K2dUTGIyaEFqWmZNTzhaT1NTUDZDbDFhUnREa2pqc2o1Q1NEY3crOWsvam1wOUt0NDlidDJudlY4NlZYS0JzN2VNQTQ0eDZtZ0FzYkdMVzRQdFYxa3lrbGNxY0RBcXBlYWxQbzl5OXBia0NHUEcwTU1ua1pQNm1qVXJ5YlI3bzI5by9rd2dCdHVBM0o5em1yK242ZmI2clp4M1YxSDVzOG1kejdpTTRKQTRISFFDZ0JMWFNMZlVyZExxWU1aWlJ1WXFjRE5aMCt1WFZsTkpieE1vamlZeHJsY25BT0JTWG1xWFduM1VsdmJ5K1hER2RxcnRCd1BxUld2YmFQWjNkdkZQTER2bGxRTzdiaU1rakpQQm9BYkg0ZXRKa1dSZys1d0dPRzdtc2xQRUY1TTZ4c3liWE8wNFhzYVpKcmw3REkwYVQ0UlNWQTJMd0IrRmJzdWgyVU1ieUpCaDFCWUhlM0JINDBBUlQ2SGEyVU1seEVHRWtTbVJjdGtaQXlLemJiVjdqVXAwdFp5cGlsTzFnb3djVkhiYXhlWGR4RkJMTnZpbGNJNjdRTWduQkhBclh2ZEx0ZFB0WkxpM2k4dWFNYmxiY1RnL1FtZ0NLODB5RFI3Wjd1M0RDYVBHMHNjams0UDZHcWxqZlM2M2NDMXVpREVRV3dvd2NpbWFmcUZ4cXQ1SGEzVW5td1NaM0p0QXpnRWprYzlRS3Zhblp3NlBhbTR0RThtWUVMdXlXNFBzYzBBTTFDMlRRSVZ1TFRJa1p2TE84NUdDQ2Y2Q290UGtieEE3eDNmekxHTnk3T09hYnBWeEpyZHcwRjYzblJLaGNMamJ6a0RQR1BVMU5xMGE2SEhISlpEeUhrSlZqOTdJL0hOQURkUi80cDd5L3NmeStkbmZ2K2Jwakg4elR0UGlYeEFqeVhlV2FNN1YyY2NVM1NQK0o3NXYyNzkvNVdObjhPTTV6MHg2Q202dEkyaHlSeDJSOGhKQnVZZmV5Znh6UUFtb1hMNkJNdHZhRUNObDh3N3hrNUpJL29Lc1dOakZyY0gycTZ5WlNTdVZPQmdVYVZieDYzYnRQZXI1MHF1VURaMjhZQnh4ajFOVk5Tdkp0SHVqYjJqK1RDQUcyNERjbjNPYUFQelIvYXo4TWY4QUNLL3RCZUxyWkVLUVhFOGQ3RVNQdkNXSlhZKy96bHgrQnI5QmZnT2xwNHIrQy9nblU1Q3p6UzZSYkpLd2JHWkVqQ1AvQU9QS2ErVy8rQ2dIZ3h6UDRROGJLaFpyeUtUUzd1WEdCdVJpOFA0bFdsLzc0RmR0K3c1OFNyblVQaFpkZUhCY2hadEN1MjJSN1ZKRUV4TWlua2YzL09INEN2cE1WKy93Rk9xdnM3L2tmT1lYOXhqNmxOOWR2ei9JODQvNEtDNk04WGpYd3hxdXo5MUpaUzZjckFkQkJMdUFKK2svNkd2bEt2MDkvYWkrRHY4QXd0YjRNWG4yQzNNM2lDeEM2cGFCTWxwcEZVK1pHQjZ1ak9BUDcyMzByOHdnY2pJcjFNcXJLcGgxSHJIVC9JOHpOS1RwNGh5NlMxL3pDaWlpdllQSUNpaWlnQW9vcVcwdEo3KzdndGJXR1M1dVo1RmlpaGhVczhqc2NLcWdja2trQUFkYzBBZlRIN0Fudy9IaWY0cDZqcnR4R3hzdEVzV0N1TWpFODN5S00vOEFYTVRmcFgzSjR6MXkyK0cvaCsvMWpPeTF0YmFhNnVOM0pLeEx1d1BmR2E4KytBWHdsbCtCSHdyMDJ4a0twcjkrNXU5VWtYREFTc0JpTWRSaEZDcmtkU0dQZXZOdjIzUGltMmtmREdMdzJaZytwNjdNRkcwN1dqdG95SGxQSDk1aEV2UFVGL1ExOFJYbDlmeHZMSGE5dmt0LzFaOXJRajlSd1RsTGZmNXZiOUVmQjE3ZTNHcDN0eGVYQk10MWN5Tk5LUU9XZGlTeC9FazErckh3djhNVC9DTDRiZUdQREVXMVpiV3dSN25qSU53NUxURWV4Y3RYNTUvc3orQkg4ZWZHTFE0V2ozMldteURWTG9rWkd5SmdWQjlRMGhqVWowWTErb21sVzhldDI3VDNxK2RLcmxBMmR2R0FjY1k5VFhibk5iV05GZE5mOGppeWVscEtzK3VuK1lXTmpGcmNIMnE2eVpTU3VWT0JnVlV2TlNuMGU1ZTB0eUJESGphR0dUeU1uOVRScVY1Tm85MGJlMGZ5WVFBMjNBYmsrNXpWL1Q5UHQ5VnM0N3E2ajgyZVRPNTl4R2NFZ2NEam9CWHpKOUtKYTZSYjZsYnBkVEJqTEtOekZUZ1pyT24xeTZzcHBMZUpsRWNUR05jcms0QndLUzgxUzYwKzZrdDdlWHk0WXp0VmRvT0I5U0sxN2JSN083dDRwNVlkOHNxQjNiY1Jra1pKNE5BRFkvRDFwTWl5TUgzT0F4dzNjMWtwNGd2Sm5XTm1UYTUybkM5alRKTmN2WVpHalNmQ0tTb0d4ZUFQd3JkbDBPeWhqZVJJTU9vTEE3MjRJL0dnQ0tmUTdXeWhrdUlnd2tpVXlMbHNqSUdSV2JiYXZjYWxPbHJPVk1VcDJzRkdEaW83YldMeTd1SW9KWnQ4VXJoSFhhQmtFNEk0RmE5N3BkcnA5ckpjVzhYbHpSamNyYmljSDZFMEFSWG1tUWFQYlBkMjRZVFI0Mmxqa2NuQi9RMVVzYjZYVzdnV3QwUVlpQzJGR0RrVXpUOVF1TlZ2STdXNms4MkNUTzVOb0djQWtjam5xQlY3VTdPSFI3VTNGb25rekFoZDJTM0I5am1nQm1vV3lhQkN0eGFaRWpONVozbkl3UVQvQUVGUmFmSTNpQjNqdS9tV01ibDJjYzAzU3JpVFc3aG9MMXZPaVZDNFhHM25JR2VNZXBxYlZvMTBPT09TeUhrUElTckg3MlIrT2FBRzZqL3hUM2wvWS9sODdPL2Y4M1RHUDVtbmFmRXZpQkhrdThzMFoycnM0NHB1a2Y4QUU5ODM3ZCsvOHJHeitIR2M1Nlk5QlRkV2tiUTVJNDdJK1FrZzNNUHZaUDQ1b0FUVUxsOUFtVzN0Q0JHeStZZDR5Y2trZjBGV0xHeGkxdUQ3VmRaTXBKWEtuQXdLTkt0NDlidDJudlY4NlZYS0JzN2VNQTQ0eDZtcW1wWGsyajNSdDdSL0poQURiY0J1VDduTkFCZWFsUG85eTlwYmtDR1BHME1NbmtaUDZtcjFycEZ2cVZ1bDFNR01zbzNNVk9CbWwwL1Q3ZlZiT082dW8vTm5renVmY1JuQklIQTQ2QVZtWG1xWFduM1VsdmJ5K1hER2RxcnRCd1BxUlFCWGkxVzdrbFJHdUhaV0lCQlBVVjBWM3BscmJXczBzVUtwSkdqTXJEcUNCa0dwcDdDMVNHUmx0b2xZS1NDRUdRY1Z5OWxlM0UxNUJISlBLOGJ5S3JLemtnZ25rRVVBUzJGL2NYbDVGQk5LMGtUdGhrYm9SV3hxbGxCcDlqTGNXOFlobVRHMTE2akpBUDZHcGRUdElMYXdtbGloamlrVmNxNktBUWZZaXNQUjdtVzcxR0dLZVY1b216bEpHTEtlQ2VRYUFKTkl1WmRTdkJCZE9ab2lDZGpkTTFkMXFGTkt0VWx0RkVFak9GTEoxSXdUajlCVXV1UVIyVmdaYmVOWUpOd0crSUJUajZpcy9RSkh2N3g0N2xtdUl4R1dDeW5jQWNqbkIrcG9BZm9qdHEwc2lYWk53cUxsUS9ZMC9YUCtKVDVIMlA4QTBmek4yL1ozeGpIOHpUL0VLaXdoaGExQXRtWmlDWWh0Skh2aW1lSGYrSmg5bysxZjZUczI3Zk8rZmJuT2NaK2dvQWZvaUxxMFVyM1krME1oQVV2MkZWOWFtZlNycElyUmpCR3lCaXFkQ2NrWi9RVTd4Q3hzSm9sdFNiWldVa2lJN1FUbnZpcldnUnBmMmJ5WEtyY1NDUXFHbEc0Z1lIR1Q5VFFBdWtXc1dwV1ludWtFMHBZamUzWEZadXFYaytuMzB0dmJ5TkRDbU5xTDBHUUNmMU5Mcms4bGxmdEZieU5CSHRCMlJFcU0vUVZyYVBiUlhlblF5enhKTksyY3ZJb1pqeVJ5VFFBYWZwOXZlV2NVODhTeVN1TXM3ZFNhdzd2VXJxMnVwb29wMlNPTjJWVkhRQUhBRkdwWGM5dGZ6eFJUU1JScTJGUkdJQUhzQlhSV1ZsYnpXY0Vra0VUeVBHck16SUNTU09TVFFBa09rMmNrU08xdWpNeWdrbnVhNXVMVmJ1U1ZFYTRkbFlnRUU5UlVjMS9kSk02cmN5cW9ZZ0FPY0FWMWs5aGFwREl5MjBTc0ZKQkNESU9LQUlidlRMVzJ0WnBZb1ZTU05HWldIVUVESU5ZVmhmM0Y1ZVJRVFN0SkU3WVpHNkVWRlpYdHhOZVFSeVR5dkc4aXF5czVJSUo1QkZkRnFkcEJiV0Uwc1VNY1VpcmxYUlFDRDdFVUFSYXBaUWFmWXkzRnZHSVpreHRkZW95UUQraHJNMGk1bDFLOEVGMDVtaUlKMk4welVlajNNdDNxTU1VOHJ6Uk5uS1NNV1U4RThnMXJhNUJIWldCbHQ0MWdrM0FiNGdGT1BxS0FJdGFoVFNyVkpiUlJCSXpoU3lkU01FNC9RVlgwUjIxYVdSTHNtNFZGeW9mc2Fab0VqMzk0OGR5elhFWWpMQlpUdUFPUnpnL1UxWjhRcUxDR0ZyVUMyWm1JSmlHMGtlK0tBR2E1L3dBU255UHNmK2orWnUzN08rTVkvbWFmb2lMcTBVcjNZKzBNaEFVdjJGTThPLzhBRXcrMGZhdjlKMmJkdm5mUHR6bk9NL1FVenhDeHNKb2x0U2JaV1VraUk3UVRudmlnQnV0VFBwVjBrVm94Z2paQXhWT2hPU00vb0t1NlJheGFsWmllNlFUU2xpTjdkY1VtZ1JwZjJieVhLcmNTQ1FxR2xHNGdZSEdUOVRXZnJrOGxsZnRGYnlOQkh0QjJSRXFNL1FVQWVhZnRQZUJuOGY4QXd4OFJhRGFwdW50NDF2YkdJRFA3Nk1iOXErN2plbi9BNitFdjJiL2l4SDhJdmlocDJyWHVYMEs2QnM5U2pBeis1WWo1d1BWR0N0NjREQWRhL1U3UnJlSzYwNkdhYUpKcG16bVNSUXpIREVEazErWS83Vi93bGI0Vi9GblVoYXc3TkMxYVI3MndaUjhxWmJNa1B0c1k4RCs2eWV0ZlI1VlVqVWpQQzFObi9UUG5jMHB5cHloaXFlNi9wSDZNUHJVck96V2wzdnRDY3d0RXdLRlA0U3BIVVl4ZzE4US90Zy9zMDNuZ2JXcm54djRlczJuOEw2aTNuWHNVSy84QUlQbmJsaVFPa1RFNUI2S1NWT0J0ejAvN0duN1MrbmFYRGJlQVBHY3NFVnVEczBqVkxyRzFNbmkya1k5Qm43akhnZmQvdTE5Wlhsek5JWjRIbGQ0VzNJMFRNU3BYb1FSMHhqdFhHbld5dkVkMSthT3hxbG1sRHMveVorUTFGZm92OFVQMkRmQTNpMlc0MUR3OWNYSGcrOVlGekRhb0pyTW4xRUpJSy9SR1ZSNlY0UEord1Y0bmt1MGl0UEUranpJN0JRODhjc1RjbkErVUt3L1d2cEtlYVlhYXU1VzlUNXlwbG1KZzdLTi9RK1lLSyt5Tk8vNEp6MzF2QTl4clhqYTNqU01BbUd3c0djdDYvTzdyai92azE2ZDhPZjJQL2hwb0dwMnYydlNadkVNd3lUSnE4NWtVa0tUL0FLdE5xRWV6S2FpcG11R2g4THY2TC9PeGRQSzhUUGRXOVgvbGMrQ3ZCSHcrOFIvRWpWMTB6d3pvOTFyRjRTQXkyNi9KSG51N25Db1BkaUJYM1g4Q3YyU0xUNE1XMXI0bDErZUxWUEdCWUNJUkROdllaVTU4dkl5eitya0RIUlFPU2ZvVzYwWFQvRE9ocGI2UFlXMmt3Uk1GamlzWVZoVkI2QUtBQlhCK05QalI0WCtGVmpKZStMdFZHMHhGcmV3ejUxeGNObmp5NDgvVWJqaFIzSXJ3OFJtTmJGL3VxU3NuMjNaN2VIeStqaFAzdFYzYTc2SkhSYW40dzB2dzFvT3FhMzRudlVoMG5UNGZPa2xtN2M0QUE3c1RnQURra2dDdnkrK012eFF1dmk3OFFOUzhSM0VSdExhUStWWjJlY2kydDF6c1Q2OGxtUGRtWTEwbngrL2FJMWo0NDZ3cXRicm8vaHkxY3RaNlZDUmpQVHpKU0FONzQvQlFTQjFKUHFuN0YvN05UZU5OWnQvSEhpYTFJMEd4Y1M2Zlp6THhleWduRWpBOVlsSU9QN3pBZGdRZlN3MUNHVzBuWHIvRi9XbnFlZGlhODh4cXFoUitIK3RmUTkxL1l5K0NjZnc5K0hjMS9yRm1GOFFhd3lUM0N5RDU0SXNmdW9UM0JBSlpoMlppUDRhOXAxcVo5S3VraXRHTUViSUdLcDBKeVJuOUJUdkVMTllUeExiRTI2c3BMQ0k3UVRudmlyV2dScGYyYnlYS3JjU0NRcUdsRzRnWUhHVDlUWHk5YXJLdlVkU1c3UHBxTktOR21xY2RrTHBGckZxVm1KN3BCTktXSTN0MXhXYnFsNVBwOTlMYjI4alF3cGphaTlCa0FuOVRTNjVQSlpYN1JXOGpRUjdRZGtSS2pQMEZhMmoyMFYzcDBNczhTVFN0bkx5S0dZOGtjazFpYkJwK24yOTVaeFR6eExKSzR5enQxSnJEdTlTdXJhNm1paW5aSTQzWlZVZEFBY0FVYWxkejIxL1BGRk5KRkdyWVZFWWdBZXdGZEZaV1Z2Tlp3U1NRUlBJOGFzek1nSkpJNUpOQUNRNlRaeVJJN1c2TXpLQ1NlNXJtNHRWdTVKVVJyaDJWaUFRVDFGUnpYOTBrenF0ektxaGlBQTV3QlhXVDJGcWtNakxiUkt3VWtFSU1nNG9BaHU5TXRiYTFtbGloVkpJMFpsWWRRUU1nMWhXRi9jWGw1RkJOSzBrVHRoa2JvUlVWbGUzRTE1QkhKUEs4YnlLckt6a2dnbmtFVjBXcDJrRnRZVFN4UXh4U0t1VmRGQUlQc1JRQkZxbGxCcDlqTGNXOFlobVRHMTE2akpBUDZHc3pTTG1YVXJ3UVhUbWFJZ25ZM1ROUjZQY3kzZW93eFR5dk5FMmNwSXhaVHdUeURXdHJrRWRsWUdXM2pXQ1RjQnZpQVU0K29vQWkxcUZOS3RVbHRGRUVqT0ZMSjFJd1RqOUJWZlJIYlZwWkV1eWJoVVhLaCt4cG1nU1BmM2p4M0xOY1JpTXNGbE80QTVIT0Q5VFZueENvc0lZV3RRTFptWWdtSWJTUjc0b0Facm4vQUJLZkkreC82UDVtN2ZzNzR4aitacCtpSXVyUlN2ZGo3UXlFQlMvWVV6dzcvd0FURDdSOXEvMG5adDIrZDgrM09jNHo5QlRQRUxHd21pVzFKdGxaU1NJanRCT2UrS0FHNjFNK2xYU1JXakdDTmtERlU2RTVJeitncTdwRnJGcVZtSjdwQk5LV0kzdDF4U2FCR2wvWnZKY3F0eElKQ29hVWJpQmdjWlAxTlordVR5V1YrMFZ2STBFZTBIWkVTb3o5QlFBbXFYaytuMzB0dmJ5TkRDbU5xTDBHUUNmMU5hK242ZmIzbG5GUFBFc2tyakxPM1VtalI3YUs3MDZHV2VKSnBXemw1RkRNZVNPU2F3OVN1NTdhL25paW1raWpWc0tpTVFBUFlDZ0NyQlBLWjR3WkhJTERnc2ZXdXZ2NEkwc2JsbGpWV0ViRUVLTWc0TlNYRnhFMEVnRWlFbFRnQmg2Vng5aERJbDliTXlNcWlSU1NSd0JrVUFTYVZLOG1vMjZ1N01wYmtNY2cxME91UkpEcGM3eG9xT051R1VZSStZVS9WcG81Tk91RlIxWml2QVU1SnJuOURqZUhWSUhrVW9nM1paaGdENVRRQS93KzdUYWlxeU1aRjJuaGprVnBlSlVXQ3hqYUlDTmpJQmxCZzR3YWs4UXlMTnB4V05oSTI0Y0tjbXMzdzBwZ3ZwR2xCalV4a1pmZ1p5S0FIK0dTYmllWVMvdkFGR0EvT09hazhVZjZQOW04cjkzbmRuWnhucFVuaVlpNGdnRVJFaERISVRuSEZSK0Yvd0RSL3RQbS91ODdjYitNOWFBSlBESUZ4Qk9aUUpDR0dDL09PS3FlSldNRjlHc1JNYW1NSENjRE9UVC9BQk1EY1R3bUw5NEFweVU1eHpWdncwNndXTWl5a1JzWkNjT2NIR0JRQko0ZWpXYlRnMGlpUnR4NVlaTlkydVNQRHFrNlJzVVFiY0twd0I4b3AvaUJHbTFGbWpVeUx0SEtqSXJhME9WSWRMZ1NSMVJ4dXlySEJIekdnQitrd3h5YWRiczZLekZlU3d5VFhMMzgwaVgxeXF1eXFKR0FBUEFHVFVtcXhQSnFOd3lJektXNEtqSU5kUllUeHBZMnl0SXFzSTFCQllaQndLQUpMZTNpYUNNbU5DU295U285SzR5Q2VVenhneU9RV0hCWSt0RThFcG5rSWpjZ3NlUXA5YTdPNHVJbWdrQWtRa3FjQU1QU2dDTy9nalN4dVdXTlZZUnNRUW95RGcxeStsU3ZKcU51cnV6S1c1REhJTlIyRU1pWDFzekl5cUpGSkpIQUdSWFVhdE5ISnAxd3FPck1WNENuSk5BRE5jaVNIUzUzalJVY2JjTW93Ujh3ckY4UHUwMm9xc2pHUmRwNFk1Rk0wT040ZFVnZVJTaURkbG1HQVBsTmJQaUdSWnRPS3hzSkczRGhUazBBUitKVVdDeGphSUNOaklCbEJnNHdhcWVHU2JpZVlTL3ZBRkdBL09PYVo0YVV3WDBqU2d4cVl5TXZ3TTVGVy9FeEZ4QkFJaUpDR09Rbk9PS0FJL0ZIK2ovWnZLL2Q1M1oyY1o2Vko0WkF1SUp6S0JJUXd3WDV4eFVmaGY4QTBmN1Q1djd2TzNHL2pQV28vRXdOeFBDWXYzZ0NuSlRuSE5BRFBFckdDK2pXSW1OVEdEaE9CbkpyUzhQUnJOcHdhUlJJMjQ4c01tby9EVHJCWXlMS1JHeGtKdzV3Y1lGWnZpQkdtMUZtalV5THRIS2pJb0FacmtqdzZwT2tiRkVHM0NxY0FmS0t4ZmlsOEh0SStOdncwZlFkVXhCT3dFMXBmcWdhUzJuR2RyajFIVUVaNUJJNDRJN2ZRNVVoMHVCSkhWSEc3S3NjRWZNYTU3VlluazFHNFpFWmxMY0ZSa0dyaE9WT1NsRjJhSW5DTlNMakpYVFB5bCtJbnc2MXo0WCtLTHZRUEVGcDltdklTZHJyODBVNlpJRWtiZnhLY2ZVY2dnRUVEMkQ0S2Z0bStLUGhkYXdhVHJOc25pM1FJZ0VqanVYMlhWdW82QkpjSEtqKzY0UFFBRlJYM2o4UXZoWDRVK0wzaENEUnZGRm5IY0lrWU1Od2pCTGkxZkF5MGI5VlBBeU9RY1lJSTRyNFkrSkg3RVBqRHczZFR6ZUZuWHhScG9ZbEl6aUM3VWU2c2RqZlZXeWY3b3I2dWxqc05qWWV6eEtTZm50OG4wUGxhdUN4R0RuN1RETnRlVy96WFUrZy9DZjdZUHc0OFErVWJqWExqUkppUVd0OVV0M1hIcjg2YmsvOGVyMXAvam44TWJ6VHBaTGZ4NTRXRE5HMndIVmJkSHpqamdzQ0RYNVhlSVBCSGlMd25JWTliMEhVdEpZZjgvdHBKRUNQVUZnQVI3aXNIem8vNzYvblRlVDBKNndrN2ZKaVdiMTRhVGlyL05INmdTL3RFZkRuUkxtT1MrOGNhVExDcHk0dGJvWFJ4L3V4YmlmeXJpZkhmN2UzdzgwNjFtdC9EMm42cHIxeWNiSjQ0QmFRbkIvdlNmT1ArK0RYd2JvWGhQWFBGTWdqMFhSZFIxZHovRFlXa2s1LzhjQnIxSHdwK3lGOFVmRmM4YW53K3VpUVAveThheE9zQ3I5VUc2UWY5OFZIOW00T2hyVm45N1MvNEpmOW80eXRwU2g5eWIvNEJ1ZU52MjJ2SDNpUlpZTkdOdDRZdEhCWE5zUFB1TUhzWkhHQjlWUlNQV3ZEbmsxYnhocnU1MnZkYjFtOWt4bGk5eGNUdityTWErdy9ESC9CUGUwc0lWdWZGUGl0Nzk4ak5qb3NRUWZqSys0a2ZSRlB2WDBaOEl2aFg0VytHRXNrZWhhSGJhVnVoS3Rjc3BhYVRrSERTdmxqOUNjZWdvZVlZVENybHc4YnY3dnhlb0xBWXZGUG14RXJMK3VteDgwZnM0L3NUL2I3K0hXL2lLZ0VVUUVzWGg5R0Riem5qN1F3NHgzOHRUei9BQkhxcCt4ZkVNTWVudzJVTnJHdHRFaWxGamhBUlFvQ2dBQWRnT2dxZnhNUmNRUUNJaVFoamtKemppby9DLzhBby8ybnpmM2VkdU4vR2V0Zk80akUxTVRMbXFQL0FDUjlEaDhOVHcwZVdtdjgyU2VHUUxpQ2N5Z1NFTU1GK2NjVlU4U3NZTDZOWWlZMU1ZT0U0R2NtbitKZ2JpZUV4ZnZBRk9Tbk9PYXQrR25XQ3hrV1VpTmpJVGh6ZzR3SzVUcUpQRDBhemFjR2tVU051UExESnJHMXlSNGRVblNOaWlEYmhWT0FQbEZQOFFJMDJvczBhbVJkbzVVWkZiV2h5cERwY0NTT3FPTjJWWTRJK1kwQVAwbUdPVFRyZG5SV1lyeVdHU2E1ZS9ta1MrdVZWMlZSSXdBQjRBeWFrMVdKNU5SdUdSR1pTM0JVWkJycUxDZU5MRzJWcEZWaEdvSUxESU9CUUJKYjI4VFFSa3hvU1ZHU1ZIcFhHUVR5bWVNR1J5Q3c0TEgxb25nbE04aEVia0ZqeUZQclhaM0Z4RTBFZ0VpRWxUZ0JoNlVBUjM4RWFXTnl5eHFyQ05pQ0ZHUWNHdVgwcVY1TlJ0MWQyWlMzSVk1QnFPd2hrUyt0bVpHVlJJcEpJNEF5SzZqVnBvNU5PdUZSMVppdkFVNUpvQVpya1NRNlhPOGFLampiaGxHQ1BtRll2aDkybTFGVmtZeUx0UERISXBtaHh2RHFrRHlLVVFic3N3d0I4cHJaOFF5TE5weFdOaEkyNGNLY21nQ1B4S2l3V01iUkFSc1pBTW9NSEdEVlR3eVRjVHpDWDk0QW93SDV4elRQRFNtQytrYVVHTlRHUmwrQm5JcTM0bUl1SUlCRVJJUXh5RTV4eFFCSDRvLzBmN041WDd2TzdPempQU3BQRElGeEJPWlFKQ0dHQy9PT0tqOEwvd0NqL2FmTi9kNTI0MzhaNjFING1CdUo0VEYrOEFVNUtjNDVvQVo0bFl3WDBheEV4cVl3Y0p3TTVOYVhoNk5adE9EU0tKRzNIbGhrMUg0YWRZTEdSWlNJMk1oT0hPRGpBck44UUkwMm9zMGFtUmRvNVVaRkFETmNrZUhWSjBqWW9nMjRWVGdENVJYUWFUREhKcDF1em9yTVY1TERKTk0wT1ZJZExnU1IxUnh1eXJIQkh6R3VlMVdKNU5SdUdSR1pTM0JVWkJvQWpoc0xwSmtacmFWVkRBa2xEZ0N2bEw5cVQ5cXp4OTRGK0t1dWVGZkR1b1dWanBWdEZBSTVVdEVsbGJ6SUVkaVdmY3A1Y2pwMkZmYXMycldja1RvdHdqTXlrQUR1YS9NTDlzQ0o0UDJnZkVhU0tWZFk3VElQYi9SWXE5bktxY0t0ZHFhdXJkZlZIajVyVW5Tb0p3ZG5mcDZNeTUvMnFQaW0wd2tQak9lRndjZ3gydHRIajhveFRrL2F2K0s2NFUrT3J5UWYzSllZSkFlZlJvem12c1A5aXF5MDQvczkyRHJiVy84QWFjMTFkZ1NDTmZOYjk4UVBteG5vTWZoWHN5ZUg0YmlWQnErbnczRmlOd2RMdUpaSStRUnlEa2R4WGJXeDJIbzFKVS9ZSjJkdW4rUncwc0RpSzFPTlQyN1YxZnIvQUpud3I4UC9BTnV2eHI0WHZvbjEzVDlQOFRXNEdIT3o3Sk9mb3lEWi93Q1E2K3lmQVh4cjhOZkhid29MM3cxTksxMUJLdjJ2VFoxQXViWWtIRzVRVGxUMllFZyt1UVFQSlAyaVAyUS9DZmk3UWIzV1BBTmhEcEhpYTNScHY3UHNGMjI5Nm9HU2dqKzZqLzNTdUFUd1J6a2ZHUHdmK0oyb2ZDSDRnNlQ0bXNIY0xieUJidUJUeGNXeEk4eU1qdmtjalBSZ3A3VlR3Mkd4OUp6dzY1WkxvU3NUaWNCVlVNUSthTDZuNnQrSGxOaE5LMTBEYkt5Z0F5amFDYzlzMC94Ri93QVREN1A5bC8wblp1M2VUOCszT01aeDlEU2FuZHcrSUxLMWswNlJieU5nSlZhTGtGU01nL1EwdWgvOFNuei9BTFovby9tYmRtL3ZqT2Y1aXZsejZnZjRlWVdFTXkzUkZzek1DQktkcEk5czFXMStONys4U1MyVnJpTVJoUzBRM0FISjR5UHFLZnJhTnEwc2IyZ053cUxoaW5ZMVkwV1pOS3RYaXUyRUVqT1dDdjFJd0JuOURRQkxvYzhkbFlDSzRrV0NUY1RzbElVNCtockoxaTJsdTlSbWxnaWVhSnNZZU5TeW5nRGdpcE5YdHBkU3ZEUGFvWm9pQU42OU0xcDZYZXdhZll4Vzl4SUlaa3p1UnVveVNSK2hvQWwweTdndHJDR0tXYU9LUlZ3eU93QkI5d2E1MjlzcmlhOG5ramdsZU41R1pXVkNRUVR3UWFsdjdDNHZMeVdlR0pwSW5iS3V2UWl0MjAxTzF0cldHS1daVWtqUlZaVDFCQXdSUUJOQmYycVF4cTF6RXJCUUNDNHlEaXVUaHNMcEprWnJhVlZEQWtsRGdDcEpkS3U1SlhkYmQyVmlTQ0IxRmRKTnExbkpFNkxjSXpNcEFBN21nQmIyOXQ1ck9lT09lSjVIalpWVlhCSkpIQUFybmROdEo3YS9nbGxoa2lqVnNzN3FRQVBjbWkwMDI2dHJxR1dXQmtqamRXWmowQUJ5VFc1cUdvVzk1Wnl3UVNySks0d3FMMUpvQVRXYnFHNjB5ZU9HVkpaQ0FRcU1HUEJCUEFybVBCdXZhWnFlcDNCczlSdExzV2g4dTRNRTZPSVhJeUZmQk8wa2Rqelh4djhBdDdYT3BhZjRrOE02ZTF4Y3dXVTFqSkk5cUpXRVR0NW1OeFRPQ2NjWklyci9BTmdCRFA0QzhaVzhZM1N0cU1CVkIxSUVScjFYZ3VYQ2ZXWEw1Zk94NWF4dk5pdnF5ajgvbGMrdTlma1MvczBqdG1XNGtFZ1lyRWR4QXdlY0Q2aXF2aDVUWVRTdGRBMnlzb0FNbzJnblBiTk4wV0Y5S3VubHUxTUViSVZEUDBKeURqOURWalczWFZvb2t0RDlvWkNTd1RzSzhvOVFaNGkvNG1IMmY3TC9BS1RzM2J2SitmYm5HTTQraHAvaDVoWVF6TGRFV3pNd0lFcDJrajJ6VE5EL0FPSlQ1LzJ6L1IvTTI3Ti9mR2MvekZNMXRHMWFXTjdRRzRWRnd4VHNhQUdhL0c5L2VKSmJLMXhHSXdwYUliZ0RrOFpIMUZhR2h6eDJWZ0lyaVJZSk54T3lVaFRqNkdvdEZtVFNyVjRydGhCSXpsZ3I5U01BWi9RMVMxZTJsMUs4TTlxaG1pSUEzcjB6UUJIckZ0TGQ2ak5MQkU4MFRZdzhhbGxQQUhCRmJtbVhjRnRZUXhTelJ4U0t1R1IyQUlQdURVV2wzc0duMk1WdmNTQ0daTTdrYnFNa2tmb2F4Nyt3dUx5OGxuaGlhU0oyeXJyMElvQWl2Yks0bXZKNUk0SlhqZVJtVmxRa0VFOEVHdW9ndjdWSVkxYTVpVmdvQkJjWkJ4VU5wcWRyYldzTVVzeXBKR2lxeW5xQ0JnaXVkbDBxN2tsZDF0M1pXSklJSFVVQU10N0s3aW1SakJNaWhnU2RoQXhXOWZXMmt6Mjh4U0t5a3VHUnRtMVVMbGlPM2ZOV1p0V3M1SW5SYmhHWmxJQUhjMXoxcHB0MWJYVU1zc0RKSEc2c3pIb0FEa21nQTAyMXVMZStna21pa2lpUnNsblVoVkgxUFN0eldMbUs3MDZhS0NWSnBXeGhJMkRNZVFlQUtOUTFDM3ZMT1dDQ1ZaSlhHRlJlcE5aR2wyYytuMzBWeGNSdERDbWR6dDBHUVFQMU5BQzZIQkpaWDZ5M0ViUVI3U044b0tqUDFOYUd2eUpmMmFSMnpMY1NDUU1WaU80Z1lQT0I5UlM2dmRSYWxabUMxY1RTbGdkaTljVlMwV0Y5S3VubHUxTUViSVZEUDBKeURqOURRQTd3OHBzSnBXdWdiWldVQUdVYlFUbnRtbitJditKaDluK3kvd0NrN04yN3lmbjI1eGpPUG9hZnJicnEwVVNXaCswTWhKWUoyRllXdGVKby9ocjROOFI2L3FNUkNXRmxKZUxDeHdaZkxSbTJnK3A0SDQwMG5KcElUYWlyczh6K0wvN1QraWZBS3lrMDlyVjlZOFUzQUVrV2xxM2xyRWhIRWt6NE8wZWdBTEgwQStZZkczam45cm40bStOcng1NWZFQTBXQWphdHRwRVF0MVFlejh5ZCs3bXZQWnA5YytLbmp3UE5LZFE4UTYvcUNwdmM0RWs4cmhWSCt5dVdBQTZBQURvSy9URDRKZkF2d2Y4QUJYUllvWTdDM2sxM0FNMnJYY1FhNGxPQmtxVG55MHlEaEZPQmdaeWNrL1V6aGhzc2hIbmp6VGY5ZkkrWGpQRTVsTjhrdVdDL3I1bjUxUi9HL3dDSlduYlpSNDY4VFJJVHVHL1ZKOWhPZlF0aXUwOEpmdGZmRXpSNzZNWFdvUitLRWtaVkZ0cU51ck8zWUJYajJ2azhBWkxkdUsvUnJXYmFYVmJsbnQwTnhic3UzamxUNml1THUvZ0o4TmRTMWJTZFkxRHc1WVdPdmFiZFIzaVQyaWZaMmFSSDNyNWlwaFpCd1B2QThWei9BTnBZZW9yVmFLL0QvSkcvOW5ZaW03MHF6L0ZmcXowZlE3MFE2UFpwZXREYTNnaVh6b1BOQjh0OGNyazR5QWUrQm4wckN2Yks0bXZKNUk0SlhqZVJtVmxRa0VFOEVHcGIrd3VMeThsbmhpYVNKMnlycjBJclZsOFJhYm9XalBjYWhlUldrRmxibVM0a2xPQkVxTGx5ZllBSDhxK2UzZWg5RHN0U3Q0azhkK0gvQUFKNGFtMWpYdFd0dE4wKzFRZWJMSytTRDJVS01sbUo0Q2dFbnNLK0YvaUorM0xxZHhkU1czZ25TNHJDMlU0WFVkVFR6SjIvMmxpQjJKL3dJdm4wSFN2SnZqLzhiTDc0emVNWjdyZkpCNGZ0SkhYVGJKdUFxWi8xcmovbm93Nitnd3ZiSjkzL0FHWi8yUU5LMWJSN2J4VDhRUVpUY3FKYkhRQ1NnMm5sWG54eVNlQ0krQmo3MmM3UjlMVHdkREJVbFd4V3JmVCt0L3lQbTZtTHI0eXE2T0YwWGY4QXJiOHp3UFZQMmlQaXI0cXVITXZqZlhYbGY3eVdGdzFzUHB0aDJnZmxVV21mSC80bmVGNzlYaThaNjBsMUhoZ2w5T2JqSHBsSnR3Nzl4WDZaZUh2QzhmaGhMYUN3MHlIUzlQaFpUNU5yQ3NVYUtNWitWUUIwRmFmakRSdkQzam5SWjlNMVN3c2RhaWtVaGJlN2hXVVpQcHVIQjl4eldmOEFhbEc5dllxM3kveUwvc3l0djdaMytmOEFtZkdYdzgvYi93QlZhRmRMOGU2WkRlMnI0VTZ0cGtmbHpKeUR1ZUxPMS9mWnR3T2lrOFY5Y2VBTmYwN3hIYVdtdWFaZVJYdWtYTVphSzhqUDd0dmJKNkVIZ2c0SUlJSUJGZkV2N1RQN0pjM3c0MCtieFo0WHRwejRkUmg5c3NaR0x2WlpPQTZzY2xvODhISkpYSU9TQ2R2RC9zMi9IZTgrRVhpWVdONWNPL2hQVTVWVyt0MmI1WUg0QXVGSFlyeHV4OTVSM0lYR2xiQlVNWFM5dmhOSDIvVHlaRkhHVnNMVjloaXRWMy9yZEg2YTYvSWwvWnBIYk10eElKQXhXSTdpQmc4NEgxRmNIOFJOYjFUd1I4TGZHdXMyRWphZnFkbHBGeGNXazBrWU8yVkVMS1FyZ2hzWXpnZ2l1dTBGVFlUL0FHbTR4SGJ5UjRTVE9WYkpCR0NPdkFya1AyajdtSy8rQ1hqVTI3aVVSNk5lRjl2WWVTd3I1NmlrNmtVKzZQb0tyYXB5YTdNK0xmaDUrMVY4VS9GM3hJOEk2VHF2aWY3YlkzbXJXdHJORC9aMXFtK09TWkZkY3JFQ01nOVFRYS9Rdnc4d3NJWmx1aUxabVlFQ1U3U1I3WnI4bi9na3dUNDBlQUdZNFVlSU5QSlAvYnpIWDZ0YTJqYXRMRzlvRGNLaTRZcDJOZTFtOUtGS2NGQ0tXblJXUEd5bXBPcENUbkp2WHE3ak5mamUvdkVrdGxhNGpFWVV0RU53QnllTWo2aXREUTU0N0t3RVZ4SXNFbTRuWktRcHg5RFVXaXpKcFZxOFYyd2drWnl3VitwR0FNL29hcGF2YlM2bGVHZTFRelJFQWIxNlpyd0QzaVBXTGFXNzFHYVdDSjVvbXhoNDFMS2VBT0NLM05NdTRMYXdoaWxtamlrVmNNanNBUWZjR290THZZTlBzWXJlNGtFTXlaM0kzVVpKSS9RMWozOWhjWGw1TFBERTBrVHRsWFhvUlFBa2VoM3NNaXlQQmhGSVluZXZBSDQxK2RYN2FFNlhQN1J2aWVXTnR5TkhaNE9NZjh1c1ZmcGRKNGh0SmthTlMrNXdWR1Y3bXZ6TC9iRXQzdGYyaFBFa1VtQTZ4MmdPRC8wNnhWN3VUZjd3L1IvbWp3czQvd0IzWHIralBxNzlpVzJrVDRHNkhlTXVMYUs3dXQ3NUhINzUrM1h2WDBKcUdvVytxMmNscmF5ZWJQSmphbTBqT0NDZVR4MEJyd1A5aXE2amsvWjAweXhHZlBsdTd2YU1jZjY1dS80VjdiWjZiUG85eWwzY0FDR1BPNHFjbmtZSDZtdk94bis4VlBWbm80UC9BSGVuNkw4ZzB5em0waTZGeGRwNVVJQlhka055ZW5Belg1S2ZFT08yaStJUGlsTFBIMk5OV3UxZ3gwOHNUT0Z4K0dLL1IvOEFhUS9hSzBQNFcrRExwTGU2am44VXpwL3hMOVBPQys0OENWMTdJdlhKKzlqQTl2emkrSC9ndSsrSS9qVFN2RDluNWp6Mzg2cEpNQVdNVWVjeVN0N0t1V1AwOTY5M0tLYnB3blducEgvSThQTjVxcE9GR0dzdjh6OVF2Z2NaTksrRnZnMjQxSDkwWnRDc2ZtUHpFdDVDWjZWditNOWQwNjIwbVhWTGk5Z3RkT3NFYVM1dXJseEVrU25HQ1MyUFNyQnRyZTkwNjAwL1NvL0xnczQxalNOdUFxQUJWQXo2QVYrY2Y3VVB4dnUvaVY0dnV0RTArNlllRmRLbmFLR09Odmt1NWxKVnAyeDk0WnlFOUY1NExHdkh3MkdsamF6UzBXN1BYeE9KamdxS2IxZXlQYmZGZjdmMm5lSEpMaXk4SGFDZForYi9BSkNPb3UwRUp4M1dJRGV3L3dCNG9mYXZNdFEvYnorSXVwWFluazB6dzBvQTJoRnM1OFl5ZittK2U5ZEwrelAreDNGNDQwSzM4VitMbzNrc2JnQ1N6MGxaREY1a1orN0pLd3cyRzZxcWtjWUpPRGl2cVMxK0J2d3kwalRqcCtvZUF2RHJsaGtOL1prTHZ0UEgrczI3czVCNXptdlNxVk12dzB2WnFITTF1enphZFBING1QdEhQbFQyUjgrZkRIL2dvVERiUEZZK012RElndDJiNXRRMGVRc0V6Nnd1YzQ5U0hKOUFhK29OSjFpeCtJMWxIci9ocThnMWZTTG9BeFhNRWd3U0FBUVFjRldCNEtrQWp1SytTLzJsL3dCai9UdEU4UDMzalA0ZlFTdzZiWm9aYjdTSGRwTnNZKy9MRVdKWUJlcFVrOFpJSXhnK1Evc3hmSG04K0NYankzYTR1SFBoYlVaRmgxUzJKSlJGSndKMUhaazZuSFZRUjZZcXBnNkdMcE90aE5HdW45ZjhNS25qSytFcXFqaTlVK3Y5ZFB4UDA1c3RVdGRQdFk3ZTRsOHVhTWJXWGFUZy9VQ3VUOFlhamErRnRKMUh4RHE5ekZwK2pRQXp5WGN6Z0tFSjQ0NmtuSUFVREpKQUF6eFd6Y2FUY2FuTzkxQnNhR1U3a0picUsrTHYyLzhBNGgzZHpyM2h6d1JETXlXRmpacmYzVWFuNVpKMlo0MXo2N1ZSc2Y4QVhRMTQyRXcvMW1zcWV5Nm5zWXZFZlZxVHFiOWpaOGQvOEZFN21HNGExOEZlR2JkcmVMNVZ2OWFabU11T01pR01ydEhwbHllUmtEcFhuTmwrM1I0OHQ3cEpKdEo4UFR4aGdTZ3RwME9QUUh6amo4alhWL3NlL3MxYVA4UWZEZHo0eDhRV1VlclJDNmExczdHZGo1STJCUzBqcVB2a2x0b1U4RGFTUWNqSDFIcXZ3WStFdXRXYldqK0F0QmozakN0YTZaSGJ1RDJ3OFlWaCtCcjJhdFRBWWFibyt6dmJkbmowcWVPeE1GVjlwYSt5T1A4QWdGKzFyYS9IZTZ2dEFuOFBYR2o2MUhhTlB2aWxFMXM2NVZQdkVLeXNXZGNBZ2pyODNGTDhmL2pMZmZzODZkb2VxZjJDbXJ0ZlhMd2lPUzc4a0p0WGRuSVZzL3BXNzhLZjJjOUUrQ3VyNnZxV2lSekpEZk5DOGtkeE41dmtKR1dPMk1rYnNIZG41aVRrRG11aStKL3c4OEcvR3F3c3RQOEFFV25TYWw5bGtNdHF2MmlXQUs1R0NTWTJYUEhyWGxTbmhmckNrb3YyZmI1ZXZmelBVakRGZlYzRnlYdE8vd0EvVHQ1SDUzZnREZkg2ZjlvRFhOSjFLZlE0OURPbjI3MjRpanVqUHZEUHV6a291UFN0UDludjlwbTQrQU5ucWR2QjRkajF6N2RNc3hhUzlNR3pDN2NZRWJaK3RhZjdZSHdnMEQ0UCtLUEQ5bDRmMDcrellMeXlrbWxUN1RMUHVZUGdITWpNUng2VjAzN0gzd044Ry9GN3czNGpsOFI2UTJwYWhhM2tjZHV3dTVvQXNaVExBaU4xQjU5YStvbFBEZlVsSnhmcyszWGYxNytaOHpHR0ordU9La3ZhZCttM3AyOGpzZEsvYjd2dkcydjZMb2JlQllMYjdmZndXb2xYVlN4VXlPRUJ3WVJuRzcxR2ZhdnJyU1kyME9TU1M5SGtKSU5xbjcyVCtHYThoMGI5a1g0WWVFOVdzdFdrOE5QRE5hVHh6MjhpYW5kT1VtUmc2SEJsd2NGYzg4VjZuNHU4UVdFT2hYbXB6emkzc2ROaGt1N3FhVVlDUnFwTEgzNEI0cjViRlN3OVNVZnEwV3Y2OVdmVDRXT0lweGYxbVNmOWVpTUw0dmZGRHcxNEQ4UHg2enJPcEphMmtiTkdxN1NaWm5JQkNScDFZOEhwd0J5U0J6WHlicm4vQUFVRjF5em1taThLZUdiQzJ0aTN5emF3enp5T1BVcEd5QlQ3Ym0rcHI1LytMSHhQMVg0d2VOSjlZdmZNRVJZeFdGZ3AzQzNoejhxS0IxWTlXUGNuMHdCOVcvQTc5aUhTbDBTMjFYeG5DZFcxYVZRN2FVWldpZ3RNOGhXS2tHUngzNTI5c0hHVDY2d21Hd05OVHhXc24wUEllS3hPTnFPR0YwaXVwNXRhZnQ4ZU41cjJLWFdkRDBMVUlGRzFsdFVtdHBHR1NlR01qZ2RmN3ByNm8rRFA3VGZoTDRpK0R0UXViS1NTMDFqVG9IdWJuUjduL1dxQU01VmdNT21lTnc2WkdRTWdVYWorelA4QUNtYlRIMDdWZkJtbjI4amdsWnJCREJLb1BBTytNZzV5RDF6WHh6OGN2Z3BxMzdObmlleThRZUc5UXVManc3Zk5MYjJkOUtvODJKbVJnOXZOZ1lKS0ZzRUFiZ0c0QldzNHh3V05mSlRqeVM2ZG1hU2xqY0V1ZW8rZVBYdWoxcndiKzI1ZS9FajRnYUhvdi9DRlEyYjZ2ZXdXbm1ycWhmeWc3QmQyUEpHY0RuR1JuSGF2c2V5MVMxMCsxanQ3aVh5NW94dFpkcE9EOVFLL0tyOW5BSi93dmJ3TVhIeUpxa0w4ZjdKei9TdjFDdWRJdU5TbmU2Z0NtS1U3bExIQnhYTm1sQ2xoNmtZMGxiUTZjc3IxY1JUbEtxNzZuZ1g3U0g3UmQxOEVQRlZoWnA0Y1RXSU5UdDJ2RW5lKzhqQTh4aGpBamJzQWUzWHBYZjhBd3AvYVQwZnhkOEhaUEhQaUtPSHd4WjJza3NVNkdWcDFVSXdVRU1FQkpiSUFVREpKQUdjMTh5LzhGQ1pFZnhmNE5qR2Q4T215d3Y4QVZaQm12Q05LMXJYdkhYaG53MThOZEZ0cHJwMjFPVzVqdG8yLzQrSjVBcXBuc0FpcTV5ZUJ2WW5nWnJ1cFlDbFh3c0pwV2IzZmxyOGppcTQrclF4TTRYdWxzdlBUNW50L2pIOXU3VmpxVHI0UzBDeXQ3SkcrUzQxZ1BMTElPeDJJNmhQcGx2clgxcDhDdmlsZWZGYjRONkxyMnNMYXc2MXFTWENQRFp4dWtXNVo1WWwyaGkyTWhGSnkzVW5wWGhIZ0Q5aFh3Ylo2VEUzaTNXdFMxYldKRitlSFQyRUZyR3gvaEJLbDJ3ZjRpVnovQUhSWDBKOFB2aGRCOEwvRGVtNkxwaXlmMlZwck82ZWZLSkpNTkswcmNnRFBMTmpqMHJneGs4SDdOUXc2MVQzOGp2d2NNWjdSenhEMGEyODlDNXFsOWJlQkxLVFhkZnVZZEwwbXorZWU2bmtVS282RG9ja2s4QURKSk9BSytZdmloL3dVS2dsZTQwL3dYNGNXNnRzZ0RVdFhkbEQ0UFZZVXdjZWhMZytxaXZIdjJ0dmoxZGZHRHg5UHBsaGNQL3dpbWp6TkJaUUlmbHVKUjhyM0JBKzhTY2hmUmVtQ3paOSsvWisvWTMwYndwb3RoNGkrSUdsUmF2cWswYXpOcHQyTjhGbUdIeW8wZlNSK1J1M1pBUEFIRzQ5TU1MUXdsSlZzVXJ0N0wrdnhPYWVLcjR1cTZXRmRrdDMvQUYrQjR4cHY3ZVh4QzA2K0Z3Tkw4TnlMME1adEp3TWQ4SHordjUxN2Q4T2YyNDlCK0pFMXJvbmlYVGg0VzFTYVZWaHV2UEVsbEt4eUFHY2dHSWtrWTNaWDFZY1Y3TnJYd2wrSG5pdlRXMDFQQmVndHVIQUdteFJGUi9zc3FncWZjRUd2aFQ5cW45bkJ2Z2hyRmxxT203MzhOYXE3SkNqc1hhMWxBeVlpeCs4Q01sU2VjS3dPZHVUcFMrbzQxK3lVT1NYUXpxL1hjRXZhdWZOSHFmb3ZwTWJhSEk4bDZQSlNRYlZQM3NuOE0xd2Y3U2RsTDR0K0N2aStMU3dibVNEUzdpVndvSU9GWGZnQTlTUWhHQlhsbjdHWHhWdi9BSW0vRCtYd3JxTTV1ZFg4T0ZSRk5NL3p5MmpaRWVUM0tFRmZwczcxOUlXS0xvU1RKZnFDbHdBQW9HNEVET1FmekZlTFVweXdsZmxsdkZudFFuSEYwT2FPMGtma3Q4TC9BQlJENEorSS9oZlg3bFMxcnB1cFc5MU1GR1NZMWtVdmdldTNPSy9XQzVrVHhZbHRxT2tTUjM5akxDcGp1SW5HeHdmbUJCUFVFTURrY2MxK2R2N1NuN09OOThMTmN2ZGEwSzFtdlBCRnhLWGhualFuN0FXUCtwbC91cUNjS3g0SXdDZDNYTStDZjdVdmpMNEpJdGpaU1I2eDRlMzcyMG0rSjJKazhtSnh6R1QrSzU1MmsxOUxqTU9zeHB4clVIcXY2KzgrYXdlSWVYMUpVYTYwZjlmY2ZwcnBsNURvOXFMZTdmeVpnUzIzQmJnKzR6VkhVTlB1TlZ2SkxxMWo4MkNURzE5d0djQUE4SG5xRFhoWGd6OXIvd0FCZkV5K2pqdTdzK0U5UmtBWHlOWVlKQ3pkOXM0K1RIKy9zSnp3SytndFAxZTIwMnppdDVYM09vM2JvL21VZy9NQ0QzNElyNVdyUnFVWHkxSTJQcWFWYW5XWE5UbGNtc3RVdGRQdFk3ZTRsOHVhTWJXWGFUZy9VQ3Zsdjl1bnhuY2VGL2g3YjZUYnVZcFBFdDB3M0E4dGF4NGQ4ZHhsbWlCOW1ZZDYra2JuU0xqVXAzdW9BcGlsTzVTeHdjVjhLZnQvYTgxNzhVZkQra0JzeGFab3FaWCs3SzhzZ2Y4QVNPT3UzTGFhcVltTittdjNmOEU0c3lxT25ocFc2NmYxOGp6NzlsZjRjMmZ4SStNZWxXMnFSaVRSZE9CMUs5UjFMTElrWkd4Q080YVJrQkhkZDFmcE1taVgwVWl5UERoVk81anZVOGQrOWZJMy9CUHp3cExmYWY0MDFhTkZaMmx0YlJXWTR3RldSMkg0NzAvSVY5cFNlSWJTWkdqVXZ1Y0ZSbGU1cmJOcXJuaVhIcEgvQUljeXlxa29ZZFM2eS80WWRjNnhaM2R2TEJGTnZsbFFvaTdTTWtqQUhJcklzOUx1dFB1bzdpNGk4dUdNN21iY0RnZlFHbGcwTzZzcG83aVZWRWNUQ1JzTms0QnlhMGJyVjdmVXJkN1dFc1paUnRVTU1ETmVNZXdSYTNMWStKTkp1dExDcGVyZFJtSjdlUlBsa1EvZVU1R0NDdWNnMStUbnhnK0g4M3d0K0plditHSlF3U3h1UDNCWTVMUU9BOFJKN25ZeTU5ODErclZucHMrajNLWGR3QUlZODdpcHllUmdmcWErRS84QWdvRloyNy9GalJkV3RzZ1h1a0pHNEl3Uzhjc25QL2ZMb1B3cjNzbnF1TmQwK2pYNUhoWnZTVXFLcWRVL3pQb245ay94M1A4QUVyNEI2Tlp5U0c1MWJSWm0wNmZjZVNrWS9kSEo2L3UzaUdlNUJycHZqZGFTNlo4RC9pRUxsUExNdWhYYXB5RGtpSmoycndIL0FJSjFhNnRtbmpxMW5ZaUdNMmNxS09mbWZ6Z3gvS05meUZmUkg3UkY3RnEzd1M4Y0czSkloMFc4Wjl3eHdZV0ZjMklwcWxqbkZkMStObWRHSHFPcGdWSjluK0YwZm14OEdVTW54aDhDS295emE5WUFEMyswUjErc1dreUxvY2NrZDZmSWVRN2xIM3NqOE0xK1VId1RjUi9HYndDN2ZkWHhCcDVQL2dUSFg2dDZoRzNpQjBrdFBtV01iVzM4YzEzWjEvRWg2SEZrMzhPZnFOMVczazF1NFdleVh6b2xRSVd6dDV5VGpuSHFLdGFaZVE2UGFpM3UzOG1ZRXR0d1c0UHVNMHpUN2xOQWhhM3U4aVJtOHdiQmtZSUEvb2FyMzFqTHJkd2JxMUFNUkFYTEhCeUsrY1BvaG1vYWZjYXJlU1hWckg1c0VtTnI3Z000QUI0UFBVR3RPeTFTMTArMWp0N2lYeTVveHRaZHBPRDlRS2lzOVRnMGUyUzB1Q3dtanp1Q2pJNU9SK2hxamM2UmNhbE85MUFGTVVwM0tXT0RpZ0JWOE5YVURDVnBJaXFIY1FDYzRINFYrY1g3WnR5dDUrMFY0bW1RRUs4ZG9RRzYvd0RIckZYNlVIeE5GY0F4Q0J3WCtYSkk0elg1cWZ0ajJ4cy8yaHZFc0xNR0tSMmd5UDhBcjFpcjNjbS8zaCtqL05IaFp4L3U2OWYwWnhYZy93Q04vamY0ZVdNZGo0ZjhUM1dsMmtiRjB0MUVib3JFNUpDdXJBWkp6eFcxcXY3VVB4VjhSUW0wdWZIV3BNc21GMldoanQzUHBneEtyWitocjdHL1l5RnJxWDdQZWphZGNXc2M3dmQzZXg1VURCTXp0Ni9TdmM3THcxQjRYY1gwY1VDckh3VmhqQ0U1K1VmenJycjVoUnAxWlJkRk5wNzZmNUhMUXkrdFVwUmtxelNhV212K1orWTNoTDluL3dDSlB4UHZXdlk5Q3YwaHVKTjAyc2F6dWhqSlA4WmVUNXBQK0FCalgzRjhBdjJkTkIrRStrVFIyTXJhbjRudWxCdk5WdVl3aStXUCtXVVNna3FtY0gxWWpKUENnZXhTNmd2aUJmc2thR0pqODI1amtjVXlLMGJ3MHh1cFdFeXVQTDJwd2NublA2VjVlS3pHcmlWeWJSN0k5UERaZlN3ejU5NWQyY0w4YTlkdS9oZjhIL0dPc1J5aEx3YWRKRGF5eE56SE0rSTBia2RtY0g4Sy9NejRhK0UvK0U1K0lIaHZ3N2o5M3FXb1FXc21EakViT0E1L0JkeC9DdjBQL2ErdWo0Zy9aMjhYQ0NKbGFCYldWZ1RuS2k3aEovSUFtdmhqOW1uVVl0SitQZmdlNm4vMWE2Z3NlUFZuVmtVZjk5TUs5YksvY3d0U2NkOWZ3UjVXWisvaXFjSmJhZmk5VDlSZFA4cnduQUxXU01CQ0I1YVc0K1ZGQXdCZzR4aWt1N1YvRWNndWJZcWthRHl5SmVEa2M5cytvcDBzUjhURVN4RVFpTDVTSDV6U3hYWThOS2JXVlRNem56TnljREI0eCtsZktuMUlSWGNHajJ6MkY1R1o5d085VlVNaktleHpqTmZrcjhVZkMwWGdyNGplSmRDZ0RDMXNiK2FLM0Q5ZkozRXg1OTloV3YxbmswOXZFRC9iSTNFU241ZHJjbml2ekEvYWRtaW0rUHZqVHltVmtqdkZnSlRwdWppampiL3g1VFgwV1N5ZnRaeDZXL1UrZXptSzluQ1hXLzZIMzUrek44UTExNzREZURMcTdFMGx3bGtiUm53RHU4bVJvY2s1NUo4dk5mT1A3ZlB3dTFGTlgwbjRnVzBKbTBxNGdGbGROR00rUTI5bmlaL1RjSkN1ZWdLQVorWVY3Uit4MzRYbm4vWjM4THpOSXNmbXRkdUZZSE9QdGMyUDhhOWsxSzkwKzgweTQwYlVyQk5RczJqTnRQQk1vZU9WY2JTQ3A2ZzF3cXY5VXhrcHhXaWIrNjUydWo5YndjWVNlclMrK3grZmY3TG43VmNud05TNTBQV2JHWFUvQzkzUDlvLzBZano3U1FnQm1RRWdPcEFYS2tqcGtIcUQ5bi9EbjRoZUZQaWRDTGp3MTRrMC9VcEkxRXNsbUhhTzVqQS92Uk9Bdyt1TWU5ZUYvRXYvQUlKN1E2bkxOcVBnWFdZdE44ekxycE9wNzNoWFBJQ1RBRmxIc3dmNml2a3J4ajRBOFdmQ1RYWUk5WXNidlJiMVdMMnQ1QytGY2orS0tWRGpJeU9oeU1qSUZldk9oaE14ZlBTbGFiL3JiL0k4bUZmRjVjdVNyRzhWL1cvK1ordGttdjI5L0cxdEdrb2ttQmpVc0JnRThEUFB2Vk9IUlo5S2xXN2xlTm80anVZSVNTUjdaRmZKL3dDeVIrMGxlK005YWg4SitMTGtYR3F4eHRQWWFnd3c5MEl3WGFLVEhWd3FraHU0VTU1NWI2NGZXMDFaRFpwRTBiVGZLR1k4Q3ZuY1JoNTRhbzZjOXo2TEQxNFltQ3FRMlBoei9nb1pxVVdwZU4vQ1R4SzZoZE9sQjNnZjg5ZnJYWC84RTg1QlplRnZGMTQrVEVsL0VoQy9leVlqWEYvOEZCTk5iVFBHdmhKR2NPVzA2VThEL3ByWFovOEFCUG1NM3ZnM3hoWktkclNhaEMrNDlCaUkxNzlUL2tWTCt1cDRGUDhBNUdqL0FLNkgxcGQzU2VJNHhiV3daSkVQbUV5OERBNDdaOVJYejUrMnZxZDE0TCtCbDFaaVpGZlhMNjNzQ1l5YzdBV21iMDRQbEFIL0FIc2Q2K2dJclJ2RFRHNmxZVEs0OHZhbkJ5ZWMvcFh6Qi93VUZ2anEvd0FNZkRjOGNiSkhCclFWOG5QTFFUWS85Qk5lTGdVcFltQ2ZjOW5IU2NjTk5yc2ZPMzdJUGdaZkhmeDAwYUtSVmVMVEk1TlVaWDZaaXdJeitFanhuOEsvU3EwbEhocFdpdWdaR2xPNEdMa1k5ODRyOC9mMkNkYWgwWDQyWHhsWGNialE3aUdNRHJ1ODZCLzVJMWZvRExFZkV4RXNSRUlpK1VoK2MxM1p4SnZFV2ZSSTRzb2lsaDIxMVkyN3RYOFJ5QzV0aXFSb1BMSWw0T1J6Mno2aXZJLzJydEt0Ymo5bnJ4VHB0NGdlNXRraXZJWlZHUWpyS2h5RHdja2JsK2pHdlg0cnNlR2xOcktwbVp6NW01T0JnOFkvU3ZMdjJvSS83UitCSGpQVWd3ampGbUUyTjF6NWlEK3RlWmhtMVhnMTNYNW5wNGxKMFpwOW4rUjhEZnMzd200K08vZ2lOU0F6YWlnR2VuUTErcDBHdFFhVkV0cEtralNSRGF4UUFnbjJ5YS9MUDltdVlXL3g1OER5RVpDNmtod1BvYS9VUjlFazFaamRwSXNhemZNRlljaXZZenIrTkgwL1U4Zkp2NE12WDlFZkVIL0JRZTNhUHhsNFNuSkd5NXNyaVZBT29Ca1U4Ky9OSi93VDYwS3hQalh4TDRsdklUTExwbHJGYldwQUIyTk9YM01NOTlzVzNQbzU5YWsvNEtFM0FrOFcrRFlBQ0d0YkNlSmoyYkVpakkvS3QvOEE0SjZhTytwYVg0NVpaRlRFMW1PUi9zemY0MTFPVGpsV245ZThjcWlwWnByMy93RGJUNjVYdzFkUU1KV2tpS29keEFKemdmaFhKL0hmNGxSK0YvZzM0dzFLMDg2QzdqMDZXS0NYQUd5V1FlV2pkZXpPcC9DdTNQaWFLNEJpRURndjh1U1J4bXZGZjJ2ZkRjOXIrenI0dWxFaXliUmFFcW81eDlyaHpYem1IaXBWb1JlemEvTStpeEVuR2pPUzNTZjVId1Q4RkwzdzdwUHhWOE1YL2lxNEZwNGZzYnNYZHpJWVhsSDdzRjBYWWdKSVoxUmNZeHp6eG12MEExSDlzNzRRYWhaeVc2K0tualo4Zk0rbVhlMFlJUGFJbnQ2VitmM3dhK0hDL0Z2NGthUDRUT3BqUnpxSmxDM2hnOC9ZVWllVEd6Y3VjN01kZTlmVGQ3L3dUamF4dFhuZjRoaGxYR1FORTU1T1ArZmozcjZyTUk0U2RSZldKdE8zVC9obWZMNENXTGhUZjFlQ2F2MS80ZEhxK21mdGMvQ1BUYm9UdjR3V1VBRWJZOU12Yy9yQ0JYbTM3VjM3UmZ3eStMWHdkdmRHMFBYRGZhMUZkMjkxYVF5V0Z4SGxsY0s1RE5HRkI4dDVPcEhHUjFJRll0aC93VDFHb1hBaFQ0Z2xXSUp5MmljZitsTldkUi80SjBIVFlGbGY0aEJnVzI0WFJQWS85UEh0WG4wNDViU21xa2FydXRmNjkwN3Frc3hxd2NKVTFaLzEvTWVhZnNOZUpUNGUrUFZyR1M1aTFEVDdtMWRWR2NnS0pSK3NWZm9oZC84QUZUYlBzdjd2eU03dk80em5wakdmUTE4MGZBNzlqWmZoMzhRTFR4R3ZpODZvMWxIS290bTB6eUF4a2phUE83em42Qmp4aXZwZUgvaW1NK2IrL3dEUDZiT01iZjhBOWRjV1pWcVZlc3AwbmRXTzdMcU5TaFJjS3FzNy93Q1F4RWgwYTJtdE5RaVc2aXVWSWFNS0hSbEl3UXdiR1FmU3ZuNzRpL3NRZUN2aU5QTnFYaFozOEczREVobzRVMzJwZnJueWY0UnlPRVpSN1Y5Q1N4SHhNUkxFUkNJdmxJZm5OTEZkancwcHRaVk16T2ZNM0p3TUhqSDZWdzBxOVNnK2FuS3gyMWFGT3V1V3BHNStZWHhnL1pwOGEvQm1TV2JWTFNMVWRJVWovaWFhY3hraFhQVGVDQXlkUVBtR01uQUpxMzhEZjJqdGQrRXVvVzlsZFN6YXI0VlpnczJuU051YUJmNzhCUDNTT3UzN3JjOUNRdy9TMjYwa2VLRWttSWo4aVZURThNeTdnd3hnZ2pvUVFlbGZtVCswL3dEQzIyK0VYeGcxUFJyQlJIcGx4RkhmMmtRemlLT1RPVUdleXVyZ2V3SEpOZlQ0VEZ4ekJPaGlJNi8xOXpQbWNYaEpZQnF2UWxwL1gzby9USHc1NDEwdlVOQTA2N3NwV3ZMTzV0MG5odUlRQ2tpT29aV0dTRHlDT29yOC93RDl1NjJlSDQ1UlRNTUpkYVBiM0VmKzZaWnNaOStEWHZQN0NjOTE0cStEZDFhU3ovTHBHcVRXa0lmSnhFeVJ5Z2Y5OVNQK2xlZS84RkIvRG4vRXo4STYvRkNmM2NFbWtYTTNiS0hmRVB4M1RIOEs0TURCWWJIdWsvTkhmalpQRVlGVlY1UDlEcVArQ2VPdjIrbmVDZkY5dElydElOU2lsT3dBNERSQUR2Nm8xZlVhK0dycUJoSzBrUlZEdUlCT2NEOEsrRGYyRC9FOGRwOFN0VThNelRyQXV1V2dlQXVmdlR3Ym1DajZ4dktmK0ExOStueE5GY0F4Q0J3WCtYSkk0elhMbWNIREZTdjFzL3dPckxKcWVGamJwZEQ1TmZ0NytOcmFOSlJKTURHcFlEQUo0R2VmZXFjT2l6NlZLdDNLOGJSeEhjd1Fra2oyeUtjdmg2U3dZWFRTcTZ3bnpDb0J5UU9jZnBVejYybXJJYk5JbWphYjVRekhnVjVSNmc2NDFXTFc0V3NvRmRKWmVoa0FDOGM4NEo5SytFZitDZ0VSc2ZIUGhheGtlTnBvOU9rbUlUcUZlVWdaNC82Wm44cSs1NDlKZlEzRjdKSXNxUmRVVVlKengvV3Z6Vy9hODhmeC9FTDQ2NjNjVzdiclBUVlRTb1RuUCtxejVuL2tWcGVuYkZlMWxFSExFODNaUC9JOFhOcHFPSDVlN1grWjYzL3dUMTBlWFVaL0hyeGtMaGJBQXZ3cHdialA0OGo4NitrUGp0WVNhUDhBQkR4K3N4VmpQb2QyaStXYzRJaVk4NXhYbXY3Q2ZoZVh3ZDhINXZFZDFHYzY3ZlNORW80WXhJQkdwUDhBd0tPVWoyWVY2ZCswQmZyclB3Ujhkc2lHUHlORXZITzQ1em1GaFVZcWFuajIxM1MrNnlMd3NIREFwUHMzOTkyZm01OEY0ekw4WXZBYURBTGEvWUtNKzl6SFg2d1drbzhOSzBWMERJMHAzQXhjakh2bkZmbEI4RlpQSytNdmdKeU1oZkVHbnRqNlhNZGZxOUxFZkV4RXNSRUlpK1VoK2MxMloxL0VoNkhKazM4T2ZxTnU3Vi9FY2d1Yllxa2FEeXlKZURrYzlzK29xVzIxQ1BRSXZzbHdyUElEdXpFQVJnL1hGTml1eDRhVTJzcW1ablBtYms0R0R4ajlLWkpwN2VJSCsyUnVJbFB5N1c1UEZmT0gwUTI0MHFYVzVtdllHUklwZWdrSkRjY2M0QjlLc3dhMUJwVVMya3FTTkpFTnJGQUNDZmJKcGtlckpvYUN5a2pNcnhkWFU0Qnp6L1dvbjBTVFZtTjJraXhyTjh3Vmh5S0FILzhBQ0wvWi93Qjc5cDNiUG14NWVNNDU5YS9ObjlzbTYrMi90RWVKWnR1emZIYUhibk9QOUZpcjlJaDRtbHVENVJoUUIvbEpCUEdhL043OXN1MkZuKzBUNG1oVml3U08wR1QvQU5lc1ZlN2szKzhQMGY1bzhMT1A5M1hyK2pQcS93RFlvc3ZLL1ovMGpVZCtmSnU3cytWajczNzV1LzQrbGU3ZjJ2OEEyNy9vUGxlUjV2OEF5MDNic1k1NllIcFhoSDdFOTQwbndDMGZUaW9DVFhkMkMvY2Z2bS93cjNtVFNVME5EZXh5R1Y0dWlNTUE1NC9yWG5Zei9lS25xejBjSC91OVAwWDVEZjdPL3dDRWQvMHp6UHRHUGwyYmR2WDM1bysxL3dEQ1RmNkxzK3piUDN1L08vT09NWTQ5YWJIcURlSUgreHlJSWxQemJsNVBGUGx0QjRhVVhVVEdablBsN1g0R0R6bjlLNHpzT2UrSVBncURXUEErdmFCY1M3NHRhc3BiRXlBYlRDV1VnT091U0NRY2UxZmxDUDdUOEYrSlJ1VnJIV2RJdk9WYnJEUEUvd0RSbC9TdjEraWxQaVltS1VDRVJmTUNuT2ErV2YydWYyVVp2RWwwUEZ2aEZSUHJjaTR2dE9PRU4yRkFBa1E5UE1Bd0NEOTRBWStZWWIzY3J4VWFNblNxZkRMOC93RGduaDVuaFpWb3FyVDNqK1gvQUFEM3I0Vi9FN1MvR2ZnWFMvRVdrNHVJTlJqM1N3NzhOYXpMeEpDM0hKVThaNHlNRWNFVjFuMlQvaEp2OUszL0FHYlorNjJZMzV4em5QSHJYNVUvRHo0cWVMdmdqcjF6L1pjajJjbS9iZTZUcUVUZVZJdzdTUm5CVmg2Z3F3Nlp4eFgwQnAvL0FBVVIxZlR0Sk52SDRJc1d2Q2R4bmJVSDh2UC9BRno4dk9PQnh2OEF4cDE4cHJLZjduV0w4eFVNMW91SDc3U1hvZldmeEQrSmVuL0JYd2RxV3E2bUJQYjJjZTlCdjJOUEszM0lsR0R5eDQ5dVNlQWEvS2VhVFZmSG5pMlNRUm0rMXpXNzh2c2pITTF4TkpuQStydit0ZGg4Ui9pejQzL2FGOFUydjlwR1hVYmxtMjJPajZYQXhqakpISWppRzVtWTQ1SkxONzQ0cjZqL0FHVy8yYXJuNFdhcEY0dDhYV2tiZUkxVC9RdE9aZ3dzUXk4dTVIQmxLa2pBSkNnbmtrL0wzMFlReXFpNTFIZWI2ZjErTE9Dck9lYVZsQ21yUVhYK3Z3UjlGZUFiS1A0WStDdEQ4S1JSQzRHazJrZHEwNGZIbXVxamUrTWNaYkovR3Q3L0FJUjMrMFA5SyswZVg1LzczWnN6dHp6ak9mZW5wb2lhc2d2SGxhTnB2bUtxT0JYeEQrMGYrMGo0NStIdng5dkxidzNxZHpwbGhwVnBEWWl6dVl0MXRkN2N1MGhqY1lPUzVYZXVEaE9EaXZuOFBoNm1NcU9NWHJ2cWUvWHIwOEhUVGt0Tmo3Yi9BT0VvK3ovdXZzMjdaOHVmTXhuSEhwWG5IN1JudzcwN1Z2Z2g0eU9wU3BLbGxwazkvQVhqd1VuaWpaNDJVNTRPNEFlNFlqb1RYeTlwUDdlK3J4eGs2dDRPc3I2Y2pKZXl2bnRsei91c2tuODY0ajQyL3RlZUwvalJvNzZKTkJhYUQ0ZmQxZVd5c2l6UFB0T1ZFa2pmZUFJQndBb3lCbk9CWG9VTXN4TWFzVzFaSjczUFByNW5ocFVwSk83YTJzY0w4Q3pQL3dBTHA4Q0xic3lTUHJkbkdXWCs2MHlxL3dDRzB0bjJyOVdmN0Qvc24vVFBQODN5Zm0yYk51Znh6WHhqK3hwK3picThHc3cvRWZ4Slp5NmRhV0NOTHBWbmNvVmt1SkNwSG1zcDVWQXBPM1BKSkREZ0RkOWxwcmNtck1MUjQxaldiNVN5bmtVczJyUXExa29POWtWbE5HZE9pNVQwdXo0aS93Q0NoRjYrcGVNUENGd1lmS2pOaFBHcDNaeVJJcFAvQUtFUHpycC8rQ2VtcHcybWcrTk1NSHVMZTZ0cEdoNlpWMGRRYy9WR3J0UDIyUGdmZStMdmgxWjY1bzBiMzJvNkJLOHIyeXJsNUxhUUFTYkFQdk1Da2JZOUEyT2NBL0QzdzErS0d2OEF3cDEvKzEvRDl6SEhLOGZsVFFUcnZobmp5RHRkY2p1QVFRUVIyUEp6Nk5DSDF6TC9BR01IcXY4QU81NTFlZjFUTVBheldqL3lzZnJOOXIvNFNiL1JkbjJiWis5MzUzNXh4akhIclhsZjdUbndzbDhZZkJ2VzlNdEFielUxQzNsa29YQjgySTdpb0hPU3liMEh1NHJ3SDRTZnRvK01QRTN4TDhPNk5jNlRvZHRaYWpkcGF6dkRETjVtMWp4dEpsSUJ5QjFCcjdTaG1QaVpqRktQSUVYekFwem12QXFVYXVCcVJjdDl6M3FkV2xqcWNsSGJZL0piNFhlT1pmaHY0LzBQeExDalRMWXo3cFlreG1TRmdVa1VaNHlVWmdNOURnMStxbmhYeGZwZDk0ZnNkWDBXN2oxalROU2pFOE54R2RveDB3UnlRUWNnZzRJSUlOZkpIN1ZIN0gxN1phdE40cThEVy8yMkc4WnBielJvVkFramZxMGtLL3hBNXlVSElQM1FRY0w4MitDL2lqNHorRWQvY3dhTHFsMXBENy85SjArZU1OR1g2SGZGSUNBM0dNNERkczE5QlhvMDgwZ3F0R1ZwTCtyTThDaFdxWlpOMHEwYnhmOEFWMGZxOTlrLzRTYi9BRXJmOW0yZnV0bU4rY2M1eng2MTh0L3R5ZkZxMDhOZUNqOE5iS1piblU5U2VLNHZXUS82aTNWeElxc096TTZyZ1orNnB6MUdmQ0p2MngvaTFyTnAvWkduYW5EYVRYSjJEK3pMQmZ0RWhJeGhjaGlDZjluQjlNVnRhZCt5L3JscDhJL0dueEk4ZFBOSHFNZGxKTFpXTjA1ZTVhVm1BYWE0Sk9RY0U0VTViSnljRUFIa29ZQllXcEdwaUpMZlJMcXpxcjQ1NHFuS25oNHZiVnZvanpqOW15SDdSOGVmQThlZHU3VWtHY1p4d2EvVWorM1A3Si8wUHlQTjhuNWQrL2JuOE1WK1hIN05ralEvSGZ3VklxN21UVUZmQjlsWTErcFNhSW1ySUx4NVdqYWI1aXFqZ1ZPZGZ4bytuNmw1Ti9CbDYvb2o0Yy80S0UyM2xlTC9BQWZjYnMvYXJHZWJiajd1WkZPUGZyWFJmOEU4ZFovc3pTdkhTZVQ1dVo3TTUzWS9obTl2YXVjLzRLRVhCazhZZUVJQ3VCYTJWeEVHL3ZBU0tNL3BYUy84RTc5R1RVdEs4ZE8wakppZXpIQS8yWnY4YTZKLzhpcGYxOW81NGY4QUkxZjlmWlByei9oRi9zLzczN1R1MmZOank4Wnh6NjF6bnhJdFYrSlhnTFgvQUFzWUZoZlZyT1MwaWxlVElqa1lZUnp4MmJhZndyZkhpYVc0UGxHRkFIK1VrRThacWR2RDBkZ3B1bG1aMmhIbUJTT0NSemo5SytZakp4YWt0MGZUU2lwSnhlelB5UThHK0l0UitGdnhEMHZXUHN6UjZsb2VvTEpMYXlmS2QwYjRraWIweUF5bjZtdjFYOExlUHROK0tQaDZ3dmRJZFpOTzFLSVN4WEFiY1Jqa3F5OW1CQlVqUEJCSGF2bG45cW45bXE4OGVhMVA0eThHMkt5YXRNTTZqcE1PQWJsZ1A5ZEZucStQdkwvRmpJK2JJYjVvK0hmeGU4Yi9BQU4xeTRHaTNrMm16SklSZGFYZndsb2krTUVTUk5ncTJPTWphM2JPSytyclVvWnJTalVwTzAxMC9yOEdmSzBhczhycVNwMVZlTDYvci9tZnFsL1ozL0NPL3dDbWVaOW94OHV6YnQ2Ky9OSDJ2L2hKdjlGMmZadG43M2ZuZm5IR01jZXRmRDBuL0JRM3hUZTZlSUwzd3JwRWt1Y3RKQkxMR3AraWt0ajh6WFBhbCszYjQrZFpCcEZobzJqRjFLK2NzRHp5cVBZdTIzdDNTdktXVTRwdTFsOTU2cnpYREpYdS91UDBDOG4vQUlSZjk3bjdUNXZ5NHhzeGpuM3FPNXVZZGN0cGJpNGxUVHJleVF5U1N5c0NnWEdTeEp3QUFGemsxNC8reVY0ODFuNHcvQ1pianhIZVQzbXBXbC9jUnZmU29GYTRCSWtCR0FGMmdTYkJnQURaanRWNzlxbTAxdlN2Z2Y0aDA3dzVZWFdyWG1xb2x0S2xxbStTT0RlREt3UWNzQ201U0FDZm16akFOY0xvT05mMkVuMXRjN1ZYVXFIdDRycGM5VldjZUdnSXdCZENZYnd3TzNIODgwdjJUL2hKdjlLMy9adG43clpqZm5IT2M4ZXRmbGQ0SitPM2p6NGJvbHBwT3YzVWRuQWRnMCs4QW5oVEhWUWpnN1ArQTdUWHJ1aS84RkFmSDJrMlRRUG92aDI0WW5Ja01FNm5PQU1rQ2IyN1lyMDZtVDE0djNHbXZ1UE5wNXZRa3ZmVFRQdlFhaC93angreGlQN1FSODIvTzNyMnhnMSthdjdYWHhIc2ZpWjhhdFF2dE1rV2F3c0xhTFRZNW8yM0pJVUxNN0tlNDN1d3ozMjVIQkZSL0V6OXJMNGhmRTYybnRieS90dEdzSmsyVFcyanhHRVNMakdHZG1aOEVkUUdBUGNWTjhEZjJaOWQrS0dvV3QvcWx0Y2FQNFRVaDVMdVZUSEpkSi9jZ0JIT2VtL0cwYzlTTnA3OEpoRmdMMThSSkwrdnpPREY0dDQrMUREeGY5Zm9mVUg3QzlyTjRQOEFndkxkVDJwTGF4cVUxN0h1YmFmS0NwRXZHTzVpWWoxQkJyMC80MS9CaFBqRjhOdFgwc1RwSGUzS2ZiTEV1bkVWd3Z6SjgyZUFjbENjZmRacTdIUmZCMWhiNlJaUVdTQ3dzb1lVaGd0WVYrU0tOUUZWUjdBQUNwVzhReVdERzFXSlhXRStXR0pPU0J4bjlLK2RxWWlVNjdyeDBkN24wTk9oR0ZCVUphcTFqOGk3SzcxcjRkZU1JcmlJUzZWcitpM2dZTEl2elF6eHZ5R0hma1lJNkVaSFExK2wvd0FEUGlYb1h4cjhKUjZ4cHQ0a0dwMnFyL2FHbE1NeVcwbnAxeVViQjJ2amtlNElISS90R2ZzZzJueGRnYnhENGZ1SXRPOFhCQVc4MWRzTjhvSEN5RWNxd0hBZkI0d0NNWUsvQ2MxdDQwK0NIaStPUmwxSHdycjBHUkhLdVVNaTU1MnR5c3FIak9OeW52bXZwSnFqbTFKT0x0TmYxOXg4NUIxc3FxUG1WNFArdnZQMWkvNFNMKzBQOUYreitYNS83cmZ2enR6eG5HUGVqK3cvN0ovMHp6L044bjV0bXpibjhjMStmUGhyOXVieDFveXdqVU5PMGJXR2lJSW5raGVHVnlPN2JIQy9rb3FUeG4rM244U1BGRmhMWjJFZWxlSFlaRkttV3l0Mmtud2Y5cVJtVWZVS0Q3MTVheWpFM3RwNjNQVS90YkRXdnI5eDlNL3RPL3RNMnZ3eDhIWEdtMk96L2hMTlJqeFp3aHc1dDF6L0FLOXhqZ0RIeWcvZWJzUUd4OEEvRGI0ZjZwOFZQR2xsb1duQjNtdUg4eTR1V3l3Z2hCSG1TdWZiUGZxU0IxSXJxUGh4OEVQSFh4NDFDNTFXM0VrdG8wdWIzWGRVbUpHN0lCT1NTOGpkdUFlbUNSWDNuOEN2Z3A0ZitGT2d2bzJtUm1hL3VzU1gycnlxUE91R1hvTWRGUVpPRUI0enlTU1NmUWRTamxkSjA0UG1xUDhBcjhPeDU2cDFjenFxcE5XcHIrdng3bmMrR05Ic2JYdzVwbmhuVExmN0JwK2wyMGNNQUxienNSUWdCNEdTYzVKN25QclhLL0gzVC83RitDUGp4Zk04NzdSb2w0bjNkdTNFVEgzelhmUzJnOE5LTHFKak16bnk5cjhEQjV6K2xlZi9BQjV2MjFuNEllUG1kQkg1R2gzYmpiem5NVEN2bktMYnF4YjdyOHo2S3FrcVVrdXovSS9OL3dDQzBmbS9HVHdGSG5HN1g5UFhQcG01anI5WC9PLzRSZjhBZFkrMCtiODJjN01ZNDk2L0gzdy9ybDU0WTE3VGRZMCtRUlgrblhNVjNieU1nWUxKRzRkQ1FlRGdnY0d2WUx2OXMzNHIzekswMnZXeEs4REdtMi8vQU1SWDFtWTRHcmk1eGxUYTA3bnltWDQybmhZeWpOUFhzZnBGOWsvNFNiL1N0LzJiWis2MlkzNXh6blBIclIvYVAvQ08vd0NoK1g5b3g4Mi9kdDYrM05mbkJhZnRwL0ZxeGpNY092Mm9VdHU1MDIzNi93RGZGUTNYN1pQeFd2SlRKTHIxc1hJeGthYmIvd0R4RmVUL0FHUGlPNis5L3dDUjYzOXNZZnMvdVgrWitrdjlrZjI3L3AzbStSNXYvTFBidXhqanJrZWxIOXVmMlQvb2ZrZWI1UHk3OSszUDRZcnpmOW52NG02djRyK0RuaHZWdFhNVjNxTjBrelN6S2dqREVUeUtQbFVBRGhSMHIwdE5FVFZrRjQ4clJ0Tjh4VlJ3SzhXY0hUbTRQZE94N01KcXBCVFd6VnlSL0RWckFwbFdTVXNnM0FFakdSK0ZjUnEzZ2p3bDR6MW8zZXQrRGZEdXAzOTB5UnkzdDNwa1VzN0RBVWZPd0o0QUFHZW1CWFNwNGd2Sm5XTm1UYTUybkM5aldyUG9kclpReVhFUVlTUktaRnkyUmtESXBSazR1OFhZY29xU3RKWE0zVFBCR2plQjlLQ2FIWXc2YmJXeE1rZHJhd3BGQ0NUa25ZaWdja2tuRlNXK3F5NjNNdGxPcUpGTDFNWUliam5qSlBwVWR0cTl4cVU2V3M1VXhTbmF3VVlPS3ZYbW1RYVBiUGQyNFlUUjQybGprY25CL1EwbTIzZGpTU1ZrTXVkUGowQ0w3WGJzenlBN2NTa0VZUDB4VVZyZFA0amtOdGNoVWpRZVlERndjamp2bjFOTXNiNlhXN2dXdDBRWWlDMkZHRGtWWTFDMlRRSVZ1TFRJa1p2TE84NUdDQ2Y2Q2tNYmR4RHcwcXkycE1qU25hUkx5TWUyTVVscC93QVZOdjhBdFg3dnlNYmZKNHpucm5PZlFVM1Q1RzhRTzhkMzh5eGpjdXpqbW5hai93QVU5NWYyUDVmT3p2My9BRGRNWS9tYUFPVStJUHd3OEkrSS9LaTF6dzVwMnVNVitXZStnRFRSZ2Rsa1hES1BZR3VMMGY4QVk1K0VPcG85MC9oTXhNSEs3STlTdTluUUhvWlQ2MTdEcDhTK0lFZVM3eXpSbmF1emppb3RRdVgwQ1piZTBJRWJMNWgzakp5U1IvUVZ2Q3ZWcHEwSnRMeWJNSlVLVTNlY0UzNXBIUGVIdkJYaHY0VHl5V25oZnc5cG1saDFBZWFHMlZacEIxdzhnd3pENmsxMU52cFVXdHdyZXpzNlN5OVJHUUY0NDR5RDZVV05qRnJjSDJxNnlaU1N1Vk9CZ1ZVdk5TbjBlNWUwdHlCREhqYUdHVHlNbjlUV1VwT1R2SjNackdLaXJSVmtMTnJVK2xTdGFSSkcwY1IycVhCSkk5OEdvTmIrSFBoL3h6cHlMcjJtMjJyUXkvdmpCZVFSeklyTU1rcUhVNDY5ZXRhbHJwRnZxVnVsMU1HTXNvM01WT0JtczZmWExxeW1rdDRtVVJ4TVkxeXVUZ0hBcEp0TzZHMG1yTThkMUg5bUw0VTNWMDdTZUNiTUZXeCs1dTdxSWNmN0tUQWZwWGVlR3YyYmZoejRGbVM5MGJ3emFXOTNiL3ZJcmlaZlBsUmh5Q3J5Ym1INEVWM1VmaDYwbVJaR0Q3bkFZNGJ1YXlVOFFYa3pyR3pKdGM3VGhleHJkNGl0SmNybTJ2Vm1DdzlHTDVsQlg5RVN4Ni9jWDhpMjBpUkNPWWlOaW9PUUR3Y2MrOVc1OUZnMHFKcnVKNUdraUc1UTVCQlB2Z1ZMUG9kclpReVhFUVlTUktaRnkyUmtESXJOdHRYdU5TblMxbkttS1U3V0NqQnhYT2RCSmI2ck5yVXkyVTZva1V2Vm93UXd4enhrbjByZ3ZIbjdOSHcwOFFTUzZucWZoVzF1cjJSdjNrc2J2YkdRazhzeGhaQ3plNXlhOUh2Tk1nMGUyZTd0d3dtanh0TEhJNU9EK2hxcFkzMHV0M0F0Ym9neEVGc0tNSElxNFZKMDNlRGFma1JPbkNvclRTZnFlY2VBZjJlZmh2b09yeDNHbWVFYkd6dTdiOS9EY3MwbHhKRzRJd1ZhWjMya2RRUmdnamcxNmJkeER3MHF5MnBNalNuYVJMeU1lMk1VN1VMWk5BaFc0dE1pUm04czd6a1lJSi9vS2kwK1J2RUR2SGQvTXNZM0xzNDVvblVuVWQ1dHQrWVFwd3BxMEVsNkRyVC9BSXFiZjlxL2QrUmpiNVBHYzljNXo2Q3NmeFg0VDBHNE1jT3BhSHBtdUl5NUg5cTJrZHh0OWh1SEFyNXc4YWZ0cnI4TWZqRDRsOE94YUxIcWZoMnhuVzFGemJ5YmJsWlVVQ1hodmxjQjk2Z2ZMMDZucFhiYUwrMmY4SnZFa1FrMWpYTHZTcHhnSkZjNmRQdUFQcVlsZGYxcnNlRHhNRXBxRDExMC93Q0FjYXhtR20zQnlXbmYvZ25ybmhYd0o0ZXRvSG0welJOUDBNZ21JcnBWcEhicXk4SG5hdlBXdkl2MjBmRjBmZ3Y0SWF2b2lTS0pOWGxodElOL0xrbHhKSitHeU5obkhVajFxdDRtL2JmK0duaGEyWWVIOVJ2ZGVKRzd5TGF4a1E3K25MVEJBQndPbWZvYStNUGpaOGJOZitQSGl5TFV0VGpXM2doQmhzTk50OHNzS3NSM3hsM2JDNWJBemdZQUFBcnZ3V0JyVHJLcFZUU1d1cHc0M0hVWVVYVHBOTnZUUTYvOWlud2szaXY0L3dDa3VRVGI2WGEzTjlNUjZlV1lsLzhBSDVrUDRWK2kwMnRUNlZLMXBFa2JSeEhhcGNFa2ozd2ErZXYyU1BoRnFQd2E4TVhtcDZ2YmkxOFI2MEkya2dsWDU3VzNBekhHUjJjbGl6RC9BSFFlVk5mU1ZycEZ2cVZ1bDFNR01zbzNNVk9CbXViTXE4YStJYmpzdERweTJoS2hoMHBidlV3OWIrRkhoVHgyYmUrMS9RdFAxZTQyYmthK3M0cHpIdTVJVXVoSUdlMVVmRGVtYU40RUYxQjRkOE82UG9jY3pEemhwMWtsdjVwWElVdHN4a2pKNitwclpuMXk2c3BwTGVKbEVjVEdOY3JrNEJ3SzFJL0QxcE1peU1IM09BeHczYzE1dlBLM0xmUTlIa2pmbXRxUnY0YXRZRk1xeVNsa0c0QWtZeVB3cWxIcjl4ZnlMYlNKRUk1aUkyS2c1QVBCeHo3MUVuaUM4bWRZMlpOcm5hY0wyTmFzK2gydGxESmNSQmhKRXBrWExaR1FNaW9MSXA5RmcwcUpydUo1R2tpRzVRNUJCUHZnVnlQaVB3UjRZK0tsMUZiK0ovRFdsYW94VXF0ekxhcVo0d0FUaFpEOHlqNkd1aHR0WHVOU25TMW5LbUtVN1dDakJ4VjY4MHlEUjdaN3UzRENhUEcwc2NqazRQNkdxakp4ZDR1ekpsRlNWcEs2UEg5Vy9ZNitFT254RzdYd2w1ajdnTmo2amRCUHlFb3JVOEgvQUFCK0c5cGRCTFh3Vm84RHhMdlNaNFBQa0JHQjk2VXVlLzFyMEd4dnBkYnVCYTNSQmlJTFlVWU9SVmpVTFpOQWhXNHRNaVJtOHM3emtZSUovb0syZUlyU1ZuTnY1c3hXSG94ZDFCZmNobHpBdmhpTkh0UG0zL0p0bDVBQTZZeGlpMC80cWJmOXEvZCtSamI1UEdjOWM1ejZDbTZmSTNpQjNqdS9tV01ibDJjYzA3VWYrS2U4djdIOHZuWjM3L202WXgvTTF6blFjdDQ3K0dmaEhYSkZYV3ZET2xhN0pJdi9BQjhhamFwSk1vSFpaQUF3SDBOY2JZZnNmL0NQWFVlNm04SXJBNGNydHQ3KzZST2dQVHpjZDY5ZDArSmZFQ1BKZDVab3p0WFp4eFVXb1hMNkJNdHZhRUNObDh3N3hrNUpJL29LM2pYcXdWb1RhOUd6Q1ZDbE4zbkJQMVNPQTByNElmRDM0ZGFrcDBmd1hvL254NGRMbThnKzB6SWZWWGtKSy9oWG85dnBVV3R3cmV6czZTeTlSR1FGNDQ0eUQ2VVdOakZyY0gycTZ5WlNTdVZPQmdWVXZOU24wZTVlMHR5QkRIamFHR1R5TW45VFdjcHltN3pkL1UwaENNRmFDdDZDemExUHBVcldrU1J0SEVkcWx3U1NQZkJxNUhvRnZmeHJjeVBLSkpnSkdDa1lCUEp4eDcwdHJwRnZxVnVsMU1HTXNvM01WT0JtczZmWExxeW1rdDRtVVJ4TVkxeXVUZ0hBcUN4emVKYnFCakVzY1JWRHRCSU9jRDhhZHJYZ0RSZGEwMlcxMU96aTFTenh1YTF2b2ttaVlqMVZsSU5hRWZoNjBtUlpHRDduQVk0YnVheVU4UVhrenJHekp0YzdUaGV4cHB0YW9UU2VqUElyMzltSDRWZUliNUJQNEtzN1pwWENrMk56YzI0WEo3S2tvVWRmU3ZQZmlOL3dUeDBjd1QzbmhEeExjNmN5Z3Q5aTFWQlBHZllTTHRaUjlRNXI2MG4wTzFzb1pMaUlNSklsTWk1Ykl5QmtWbTIycjNHcFRwYXpsVEZLZHJCUmc0cnRwNDNFMG5lTTM4OWZ6T09wZ3NQVVZwUVh5MC9JL05QWHYyYi9BSXAvRHUrTjNhYVBlWFRSWktYL0FJZGxhWnNEcVFFeEtQeFVWRDRiL2FjK0tmZ2E4TWNYaW05bWtoT3lTRFZvMXVXSHFyR1ZTNC9NVitvRjVwa0dqMnozZHVHRTBlTnBZNUhKd2YwTmN0cS9nL3cvOFRaaGFlSnRCMDNXSTlwdzl6YW8waTQvdXVSbGZ3SXIwbzVxcW1tSXBxWDllWjVzc3JjSGZEMUhIK3ZJOHUvWlcrT0hpejlvYURYRjhUMldtV3RqcG5sTEZjYWJHOGJ6U3R1M0FobmNZQzRKeGo3NHIyelh0SHNyVFRaN1dhMWgxR3p2a2FDNHRiNk1TeFNJUnlyTGpCQjZFR3N2d3g4T1BEM3dhMEZyUHdsWWYyWmFUWExTdkVaWGxCWndOeHk1Si9nVWRlZ3JhMCtSdkVEdkhkL01zWTNMczQ1cng2ODRUcXVWSldYUTllaENjS1NqVmQzMU9NMDM0SS9EclhQTTh6d0Y0WXQvS3hqN1BvOXV1YzU2NVErbE4xTDRLL0R2UkpFamo4QStGN2dPTnhOeG85dXhIMHdncnQ5Ui93Q0tlOHY3SDh2blozNy9BSnVtTWZ6Tk8wK0pmRUNQSmQ1Wm96dFhaeHhVZTFxZnpQN3kvWlUvNVY5eHhtbmZBbjRjNjFBMDhuZ1R3M0F5c1Uyd2FSYnFwNEJ6eWg1NXF0Zi9BQWMrSG1rWEJ0NC9oLzRWbVVBTnZtMGEzTGMrNFFWMitvWEw2Qk10dmFFQ05sOHc3eGs1Skkvb0tzV05qRnJjSDJxNnlaU1N1Vk9CZ1VlMXFmelA3dzlsVC9sWDNGSHc3NE8waTIwVzJpc0xLSFNiTkF3anN0UGlTR0NJYmpuYWdHQms1Sjl5VFVrMnRUNlZLMXBFa2JSeEhhcGNFa2ozd2FTODFLZlI3bDdTM0lFTWVOb1laUEl5ZjFOWHJYU0xmVXJkTHFZTVpaUnVZcWNETlp0MzFab2xiUkU4dWgyVU1ieUpCaDFCWUhlM0JINDFpVzJzWGwzY1JRU3piNHBYQ091MERJSndSd0toaTFXN2tsUkd1SFpXSUJCUFVWMFYzcGxyYldzMHNVS3BKR2pNckRxQ0JrR2tNaXZkTHRkUHRaTGkzaTh1YU1ibGJjVGcvUW1zelQ5UXVOVnZJN1c2azgyQ1RPNU5vR2NBa2NqbnFCVVZoZjNGNWVSUVRTdEpFN1laRzZFVnNhcFpRYWZZeTNGdkdJWmt4dGRlb3lRRCtob0FpMU96aDBlMU54YUo1TXdJWGRrdHdmWTVxcnBWeEpyZHcwRjYzblJLaGNMamJ6a0RQR1BVMUhwRnpMcVY0SUxwek5FUVRzYnBtcnV0UXBwVnFrdG9vZ2tad3BaT3BHQ2Nmb0tBR2F0R3VoeHh5V1E4aDVDVlkvZXlQeHpUZEkvNG52bS9idjMvQUpXTm44T001ejB4NkNtYUk3YXRMSWwyVGNLaTVVUDJOUDF6L2lVK1I5ai9BTkg4emR2MmQ4WXgvTTBBTjFhUnREa2pqc2o1Q1NEY3crOWsvam1wOUt0NDlidDJudlY4NlZYS0JzN2VNQTQ0eDZtbTZJaTZ0Rks5MlB0RElRRkw5aFZmV3BuMHE2U0swWXdSc2dZcW5RbkpHZjBGQUNhbGVUYVBkRzN0SDhtRUFOdHdHNVB1YzFmMC9UN2ZWYk9PNnVvL05ua3p1ZmNSbkJJSEE0NkFVbWtXc1dwV1ludWtFMHBZamUzWEZadXFYaytuMzB0dmJ5TkRDbU5xTDBHUUNmMU5BQmVhcGRhZmRTVzl2TDVjTVoycXUwSEErcEZhOXRvOW5kMjhVOHNPK1dWQTd0dUl5U01rOEdqVDlQdDd5emlubmlXU1Z4bG5icVRXSGQ2bGRXMTFORkZPeVJ4dXlxbzZBQTRBb0FXVFhMMkdSbzBud2lrcUJzWGdEOEszWmREc29ZM2tTRERxQ3dPOXVDUHhwOE9rMmNrU08xdWpNeWdrbnVhNXVMVmJ1U1ZFYTRkbFlnRUU5UlFCTmJheGVYZHhGQkxOdmlsY0k2N1FNZ25CSEFyWHZkTHRkUHRaTGkzaTh1YU1ibGJjVGcvUW1wYnZUTFcydFpwWW9WU1NOR1pXSFVFRElOWVZoZjNGNWVSUVRTdEpFN1laRzZFVUFTNmZxRnhxdDVIYTNVbm13U1ozSnRBemdFamtjOVFLdmFuWnc2UGFtNHRFOG1ZRUx1eVc0UHNjMUxxbGxCcDlqTGNXOFlobVRHMTE2akpBUDZHc3pTTG1YVXJ3UVhUbWFJZ25ZM1ROQUVtbFhFbXQzRFFYcmVkRXFGd3VOdk9RTThZOVRVMnJScm9jY2Nsa1BJZVFsV1Azc2o4YzAvV29VMHExU1cwVVFTTTRVc25VakJPUDBGVjlFZHRXbGtTN0p1RlJjcUg3R2dEd254bCt4djRJK0syb2FqcWtiWFhoelY1bjgyV2ZUaXBobGtZa3N6eE1NWko1T3dyazhua212SGZFZi9CUGZWdEl1VVMwOGFXVjVFd3lHbnNIaFlmZ0hmOEFuWDIzcm4vRXA4ajdIL28vbWJ0K3p2akdQNW1uNklpNnRGSzkyUHRESVFGTDloWG8wOHd4Tkpjc1o2ZWVwNTlUTDhOVmZOS0d2bG9mRm5oYi9nbmRmNnNETnFQamUydFlWZmFVdGRQYVZtNkhxMGlnZGZRMTdYOFB2MlpmQmZ3VjFlRzgwMjJrMVhXb1ZESnFtcWJaWkkyN21OY0JFOWlCdXh4dU5ld2ExTStsWFNSV2pHQ05rREZVNkU1SXorZ3E3cEZyRnFWbUo3cEJOS1dJM3QxeFUxY2ZpS3k1WnowKzRkTEE0ZWkrYUVkZnYvTVhUOVB0OVZzNDdxNmo4MmVUTzU5eEdjRWdjRGpvQldaZWFwZGFmZFNXOXZMNWNNWjJxdTBIQStwRkdxWGsrbjMwdHZieU5EQ21OcUwwR1FDZjFOYStuNmZiM2xuRlBQRXNrcmpMTzNVbXVBN3d0dEhzN3UzaW5saDN5eW9IZHR4R1NSa25nMWlTYTVld3lOR2srRVVsUU5pOEFmaFNYZXBYVnRkVFJSVHNrY2JzcXFPZ0FPQUs2R0hTYk9TSkhhM1JtWlFTVDNOQURKZERzb1kza1NERHFDd085dUNQeHJFdHRZdkx1NGlnbG0zeFN1RWRkb0dRVGdqZ1ZERnF0M0pLaU5jT3lzUUNDZW9yb3J2VExXMnRacFlvVlNTTkdaV0hVRURJTkFFVjdwZHJwOXJKY1c4WGx6UmpjcmJpY0g2RTFtYWZxRnhxdDVIYTNVbm13U1ozSnRBemdFamtjOVFLaXNMKzR2THlLQ2FWcEluYkRJM1FpdGpWTEtEVDdHVzR0NHhETW1OcnIxR1NBZjBOQUVXcDJjT2oycHVMUlBKbUJDN3NsdUQ3SE5WZEt1Sk5idUdndlc4NkpVTGhjYmVjZ1o0eDZtbzlJdVpkU3ZCQmRPWm9pQ2RqZE0xZDFxRk5LdFVsdEZFRWpPRkxKMUl3VGo5QlFBelZvMTBPT09TeUhrUElTckg3MlIrT2FicEgvRTk4MzdkKy93REt4cy9oeG5PZW1QUVV6UkhiVnBaRXV5YmhVWEtoK3hwK3VmOEFFcDhqN0gvby9tYnQrenZqR1A1bWdCdXJTTm9ja2Nka2ZJU1FibUgzc244YzFQcFZ2SHJkdTA5NnZuU3E1UU5uYnhnSEhHUFUwM1JFWFZvcFh1eDlvWkNBcGZzS3I2MU0rbFhTUldqR0NOa0RGVTZFNUl6K2dvQVRVcnliUjdvMjlvL2t3Z0J0dUEzSjl6bXIrbjZmYjZyWngzVjFINXM4bWR6N2lNNEpBNEhIUUNrMGkxaTFLekU5MGdtbExFYjI2NHJOMVM4bjArK2x0N2VSb1lVeHRSZWd5QVQrcG9BTHpWTHJUN3FTM3Q1Zkxoak8xVjJnNEgxSXJYdHRIczd1M2lubGgzeXlvSGR0eEdTUmtuZzBhZnA5dmVXY1U4OFN5U3VNczdkU2F3N3ZVcnEydXBvb3AyU09OMlZWSFFBSEFGQUN5YTVld3lOR2srRVVsUU5pOEFmaFc3TG9kbERHOGlRWWRRV0IzdHdSK05QaDBtemtpUjJ0MFptVUVrOXpYTnhhcmR5U29qWERzckVBZ25xS0FKcmJXTHk3dUlvSlp0OFVyaEhYYUJrRTRJNEZhOTdwZHJwOXJKY1c4WGx6UmpjcmJpY0g2RTFMZDZaYTIxck5MRkNxU1Jvekt3NmdnWkJyQ3NMKzR2THlLQ2FWcEluYkRJM1FpZ0NYVDlRdU5Wdkk3VzZrODJDVE81Tm9HY0FrY2pucUJWN1U3T0hSN1UzRm9ua3pBaGQyUzNCOWptcGRVc29OUHNaYmkzakVNeVkydXZVWklCL1ExbWFSY3k2bGVDQzZjelJFRTdHNlpvQWswcTRrMXU0YUM5YnpvbFF1Rnh0NXlCbmpIcWFtMWFOZERqamtzaDVEeUVxeCs5a2ZqbW42MUNtbFdxUzJpaUNSbkNsazZrWUp4K2dxdm9qdHEwc2lYWk53cUxsUS9ZMEFQMGovQUludm0vYnYzL2xZMmZ3NHpuUFRIb0ticTBqYUhKSEhaSHlFa0c1aDk3Si9ITk8xei9pVStSOWovd0JIOHpkdjJkOFl4L00wL1JFWFZvcFh1eDlvWkNBcGZzS0FIYVZieDYzYnRQZXI1MHF1VURaMjhZQnh4ajFOVk5Tdkp0SHVqYjJqK1RDQUcyNERjbjNPYVhXcG4wcTZTSzBZd1JzZ1lxblFuSkdmMEZYZEl0WXRTc3hQZElKcFN4Rzl1dUtBRjAvVDdmVmJPTzZ1by9Obmt6dWZjUm5CSUhBNDZBVm1YbXFYV24zVWx2YnkrWERHZHFydEJ3UHFSUnFsNVBwOTlMYjI4alF3cGphaTlCa0FuOVRXdnArbjI5NVp4VHp4TEpLNHl6dDFKb0EvLzlrPSIgaGVpZ2h0PSI0NjAiIHdpZHRoPSI0NjAiLz48Y2xpcFBhdGggaWQ9ImNsaXAxIj48cmVjdCBoZWlnaHQ9IjI0NzY1MDAiIHdpZHRoPSIyNDc2NTAwIiB5PSIwIiB4PSIwIi8+PC9jbGlwUGF0aD48L2RlZnM+PGcgdHJhbnNmb3JtPSJ0cmFuc2xhdGUoLTM5MyAtMTY0KSI+PGcgdHJhbnNmb3JtPSJtYXRyaXgoMC4wMDAxMDQ5ODcgMCAwIDAuMDAwMTA0OTg3IDM5MyAxNjQpIj48ZyB0cmFuc2Zvcm09InNjYWxlKDEgMS4wMDM4NSkiIGNsaXAtcGF0aD0idXJsKCNjbGlwMSkiPjx1c2UgdHJhbnNmb3JtPSJzY2FsZSg1MzgzLjcgNTM4My43KSIgeGxpbms6aHJlZj0iI2ltZzAiIGhlaWdodD0iMTAwJSIgd2lkdGg9IjEwMCUiLz48L2c+PC9nPjwvZz48L3N2Zz4=;" vertex="1" parent="gjLjuswlvgeIbJqZDYXq-30">
          <mxGeometry y="24" width="109.58" height="110" as="geometry" />
        </mxCell>
        <mxCell id="gjLjuswlvgeIbJqZDYXq-6" value="" style="edgeStyle=orthogonalEdgeStyle;rounded=0;orthogonalLoop=1;jettySize=auto;html=1;" edge="1" parent="gjLjuswlvgeIbJqZDYXq-30" source="gjLjuswlvgeIbJqZDYXq-3" target="gjLjuswlvgeIbJqZDYXq-5">
          <mxGeometry relative="1" as="geometry" />
        </mxCell>
        <mxCell id="gjLjuswlvgeIbJqZDYXq-3" value="BRONZE" style="rounded=1;whiteSpace=wrap;html=1;verticalAlign=middle;labelBackgroundColor=default;" vertex="1" parent="gjLjuswlvgeIbJqZDYXq-30">
          <mxGeometry x="240" y="49" width="120" height="60" as="geometry" />
        </mxCell>
        <mxCell id="gjLjuswlvgeIbJqZDYXq-8" value="" style="edgeStyle=orthogonalEdgeStyle;rounded=0;orthogonalLoop=1;jettySize=auto;html=1;" edge="1" parent="gjLjuswlvgeIbJqZDYXq-30" source="gjLjuswlvgeIbJqZDYXq-5" target="gjLjuswlvgeIbJqZDYXq-7">
          <mxGeometry relative="1" as="geometry" />
        </mxCell>
        <mxCell id="gjLjuswlvgeIbJqZDYXq-5" value="SILVER" style="whiteSpace=wrap;html=1;rounded=1;labelBackgroundColor=default;" vertex="1" parent="gjLjuswlvgeIbJqZDYXq-30">
          <mxGeometry x="410" y="49" width="120" height="60" as="geometry" />
        </mxCell>
        <mxCell id="gjLjuswlvgeIbJqZDYXq-13" value="" style="edgeStyle=orthogonalEdgeStyle;rounded=0;orthogonalLoop=1;jettySize=auto;html=1;" edge="1" parent="gjLjuswlvgeIbJqZDYXq-30" source="gjLjuswlvgeIbJqZDYXq-7" target="gjLjuswlvgeIbJqZDYXq-12">
          <mxGeometry relative="1" as="geometry" />
        </mxCell>
        <mxCell id="gjLjuswlvgeIbJqZDYXq-7" value="GOLD" style="whiteSpace=wrap;html=1;rounded=1;labelBackgroundColor=default;" vertex="1" parent="gjLjuswlvgeIbJqZDYXq-30">
          <mxGeometry x="590" y="49" width="120" height="60" as="geometry" />
        </mxCell>
        <mxCell id="gjLjuswlvgeIbJqZDYXq-9" value="EXTRACT" style="text;html=1;align=center;verticalAlign=middle;whiteSpace=wrap;rounded=0;" vertex="1" parent="gjLjuswlvgeIbJqZDYXq-30">
          <mxGeometry x="140" y="40" width="60" height="40" as="geometry" />
        </mxCell>
        <mxCell id="gjLjuswlvgeIbJqZDYXq-15" value="" style="edgeStyle=orthogonalEdgeStyle;rounded=0;orthogonalLoop=1;jettySize=auto;html=1;" edge="1" parent="gjLjuswlvgeIbJqZDYXq-30" source="gjLjuswlvgeIbJqZDYXq-12" target="gjLjuswlvgeIbJqZDYXq-14">
          <mxGeometry relative="1" as="geometry" />
        </mxCell>
        <mxCell id="gjLjuswlvgeIbJqZDYXq-12" value="AWS GLUE" style="whiteSpace=wrap;html=1;rounded=1;labelBackgroundColor=default;" vertex="1" parent="gjLjuswlvgeIbJqZDYXq-30">
          <mxGeometry x="790" y="49" width="120" height="60" as="geometry" />
        </mxCell>
        <mxCell id="gjLjuswlvgeIbJqZDYXq-17" value="" style="edgeStyle=orthogonalEdgeStyle;rounded=0;orthogonalLoop=1;jettySize=auto;html=1;" edge="1" parent="gjLjuswlvgeIbJqZDYXq-30" source="gjLjuswlvgeIbJqZDYXq-14" target="gjLjuswlvgeIbJqZDYXq-16">
          <mxGeometry relative="1" as="geometry" />
        </mxCell>
        <mxCell id="gjLjuswlvgeIbJqZDYXq-14" value="AWS ATHENA" style="whiteSpace=wrap;html=1;rounded=1;labelBackgroundColor=default;" vertex="1" parent="gjLjuswlvgeIbJqZDYXq-30">
          <mxGeometry x="790" y="189" width="120" height="60" as="geometry" />
        </mxCell>
        <mxCell id="gjLjuswlvgeIbJqZDYXq-16" value="BI / ANALYTICS" style="whiteSpace=wrap;html=1;rounded=1;labelBackgroundColor=default;" vertex="1" parent="gjLjuswlvgeIbJqZDYXq-30">
          <mxGeometry x="960" y="189" width="120" height="60" as="geometry" />
        </mxCell>
        <mxCell id="gjLjuswlvgeIbJqZDYXq-23" value="" style="endArrow=none;html=1;rounded=0;" edge="1" parent="gjLjuswlvgeIbJqZDYXq-30">
          <mxGeometry width="50" height="50" relative="1" as="geometry">
            <mxPoint x="650" y="160" as="sourcePoint" />
            <mxPoint x="650" y="109" as="targetPoint" />
          </mxGeometry>
        </mxCell>
        <mxCell id="gjLjuswlvgeIbJqZDYXq-24" value="" style="endArrow=none;html=1;rounded=0;" edge="1" parent="gjLjuswlvgeIbJqZDYXq-30">
          <mxGeometry width="50" height="50" relative="1" as="geometry">
            <mxPoint x="460" y="160" as="sourcePoint" />
            <mxPoint x="650" y="160" as="targetPoint" />
          </mxGeometry>
        </mxCell>
        <mxCell id="gjLjuswlvgeIbJqZDYXq-25" value="" style="endArrow=none;html=1;rounded=0;" edge="1" parent="gjLjuswlvgeIbJqZDYXq-30">
          <mxGeometry width="50" height="50" relative="1" as="geometry">
            <mxPoint x="460" y="110" as="sourcePoint" />
            <mxPoint x="460" y="160" as="targetPoint" />
          </mxGeometry>
        </mxCell>
        <mxCell id="gjLjuswlvgeIbJqZDYXq-26" value="" style="rounded=1;whiteSpace=wrap;html=1;fillColor=none;" vertex="1" parent="gjLjuswlvgeIbJqZDYXq-30">
          <mxGeometry x="210" width="520" height="200" as="geometry" />
        </mxCell>
        <mxCell id="gjLjuswlvgeIbJqZDYXq-27" value="TRANSFORM" style="text;html=1;align=center;verticalAlign=middle;whiteSpace=wrap;rounded=0;" vertex="1" parent="gjLjuswlvgeIbJqZDYXq-30">
          <mxGeometry x="520" y="134" width="60" height="30" as="geometry" />
        </mxCell>
        <mxCell id="gjLjuswlvgeIbJqZDYXq-29" value="LOAD" style="text;html=1;align=center;verticalAlign=middle;whiteSpace=wrap;rounded=0;" vertex="1" parent="gjLjuswlvgeIbJqZDYXq-30">
          <mxGeometry x="720" y="50" width="60" height="30" as="geometry" />
        </mxCell>
      </root>
    </mxGraphModel>
  </diagram>
</mxfile>
